<?xml version="1.0" encoding="UTF-8"?><svg xmlns="http://www.w3.org/2000/svg" width="100%" height="100%"><defs><font id="web" horiz-adv-x="1137"><!--



NOTICE: This font software is the valuable property 
of Webtype LLC, The Font Bureau, Webtype and/or its 
suppliers and its use by you is covered under the terms 
of the Web Font license agreement between you and Webtype 
LLC. You may ONLY use this font software with the licensed 
web site. Except as specifically permitted by the license, 
you may not copy this font software. If you have any 
questions, please contact Webtype.com. 

For more information, please visit http://www.webtype.com/store/license/?id=23

Licensed to: www.sap.com

Serial number: SH-690
--><font-face font-family="" units-per-em="2048" panose-1="2 0 5 3 0 0 0 2 0 4" ascent="2025" descent="-569" alphabetic="0"/><missing-glyph horiz-adv-x="1024" d="M0 1434H1024V0H0V1434ZM102 102H922V1331H102V102Z"/><glyph unicode=" " horiz-adv-x="442"/><glyph unicode="!" horiz-adv-x="621" d="M137 164H274L246 0H109L137 164ZM383 1516H504L270 397H223L383 1516Z"/><glyph unicode="&quot;" horiz-adv-x="803" d="M596 1010L631 1411L649 1516H760L741 1411L637 1010H596ZM256 1010L291 1411L309 1516H420L401 1411L297 1010H256Z"/><glyph unicode="#" horiz-adv-x="1423" d="M205 0L301 459H59V547H319L408 969H147V1057H426L522 1516H616L520 1057H950L1047 1516H1141L1044 1057H1286V969H1026L938 547H1198V459H920L823 0H729L825 459H395L299 0H205ZM414 547H844L932 969H502L414 547Z"/><glyph unicode="$" horiz-adv-x="1288" d="M551 -8L520 -190H430L463 0Q373 12 305 41T186 113T101 206T43 313L139 348Q151 316 175 276T240 197T340 128T483 86L602 764Q533 792 468 823T352 896T271 992T240 1124Q240 1207 263 1269T325 1376T413 1450T514 1496T615 1519T702 1526Q709 1526 716 1525T731 1524L758 1677H848L819 1516Q950 1494 1042 1422T1176 1231L1075 1200Q1063 1236 1042 1271T989 1337T910 1389T799 1423L694 829Q768 799 840 765T969 685T1061 575T1096 424Q1096 326 1067 256T991 137T886 61T770 17T660 -3T573 -8H551ZM567 82Q773 82 881 165T989 410Q989 475 964 523T895 609T796 676T678 731L563 82H567ZM684 1434Q601 1434 538 1412T431 1351T366 1260T344 1149Q344 1093 366 1050T425 973T512 912T618 860L719 1432Q710 1432 702 1433T684 1434Z"/><glyph unicode="%" horiz-adv-x="1901" d="M322 0L1473 1516H1579L428 0H322ZM1331 68Q1392 68 1445 103T1537 199T1598 344T1620 522Q1620 579 1610 626T1577 708T1520 762T1436 782Q1375 782 1323 747T1231 650T1170 505T1147 328Q1147 271 1158 223T1192 141T1249 87T1331 68ZM1325 -20Q1254 -20 1201 5T1113 76T1061 182T1044 317Q1044 452 1079 555T1172 728T1300 834T1444 870Q1514 870 1566 845T1652 775T1703 667T1720 528Q1720 404 1688 303T1602 130T1476 19T1325 -20ZM467 733Q528 733 581 768T673 865T734 1010T756 1188Q756 1245 746 1292T713 1374T655 1428T571 1448Q511 1448 459 1413T367 1315T306 1170T283 993Q283 936 294 889T328 807T385 753T467 733ZM461 645Q389 645 337 670T249 741T197 848T180 983Q180 1117 215 1220T308 1394T436 1500T580 1536Q650 1536 702 1511T788 1441T839 1333T856 1194Q856 1069 824 968T738 795T612 684T461 645Z"/><glyph unicode="&amp;" horiz-adv-x="1446" d="M500 -29Q374 -29 283 1T133 84T46 207T18 356Q18 430 35 490T81 598T152 685T242 755T345 813T455 862Q432 928 422 992T412 1124Q412 1215 437 1292T510 1425T626 1512T778 1544Q853 1544 905 1524T991 1468T1039 1386T1055 1288Q1055 1187 1014 1116T907 992T755 900T582 825Q625 714 698 600Q770 488 827 404T936 260Q987 315 1026 379T1095 507T1146 635T1182 752H1282Q1267 690 1244 618T1186 472T1105 327T999 193Q1061 134 1124 107T1266 78L1247 -20Q1203 -20 1163 -13T1084 10T1007 54T928 123Q843 54 738 13T500 -29ZM608 559Q570 622 539 677T485 784Q412 752 346 716T230 630T151 517T121 365Q121 303 142 248T208 152T324 87T496 63Q610 63 700 98T862 193Q806 259 745 348T608 559ZM950 1282Q950 1316 942 1346T913 1400T858 1438T770 1452Q709 1452 662 1429T583 1362T535 1260T518 1130Q518 1019 555 901Q633 932 704 965T830 1042T917 1143T950 1282Z"/><glyph unicode="'" horiz-adv-x="463" d="M256 1010L291 1411L309 1516H420L401 1411L297 1010H256Z"/><glyph unicode="(" horiz-adv-x="811" d="M438 -420Q264 -246 174 -42T84 391Q84 575 130 729T266 1020T484 1280T780 1526L815 1475Q678 1372 565 1252T370 996T243 707T197 385Q197 275 217 171T275 -30T367 -211T489 -369L438 -420Z"/><glyph unicode=")" horiz-adv-x="811" d="M-76 -369Q60 -266 174 -146T370 111T499 401T545 723Q545 832 525 936T467 1135T374 1317T250 1475L301 1526Q478 1352 567 1149T657 717Q657 534 610 380T474 88T255 -173T-41 -420L-76 -369Z"/><glyph unicode="*" horiz-adv-x="1040" d="M680 723L578 1094L352 780L276 846L549 1118L164 1159L180 1251L555 1159L393 1507L487 1542L590 1171L815 1485L891 1419L618 1147L1004 1106L987 1014L612 1106L774 758L680 723Z"/><glyph unicode="+" horiz-adv-x="1298" d="M584 147V618H115V709H584V1180H678V709H1147V618H678V147H584Z"/><glyph unicode="," horiz-adv-x="543" d="M47 -199L123 0H70L98 164H236L209 12L92 -199H47Z"/><glyph unicode="-" horiz-adv-x="731" d="M115 594L133 692H578L559 594H115Z"/><glyph unicode="." horiz-adv-x="543" d="M70 0L98 164H236L207 0H70Z"/><glyph unicode="/" horiz-adv-x="1081" d="M-86 0L1061 1516H1167L20 0H-86Z"/><glyph unicode="0" horiz-adv-x="1296" d="M547 61Q635 61 710 95T846 191T954 338T1033 523T1081 736T1098 965Q1098 1079 1076 1170T1011 1324T902 1420T752 1454Q664 1454 589 1421T453 1327T344 1183T265 1000T216 788T199 559Q199 444 221 352T286 195T395 96T547 61ZM543 -29Q428 -29 344 14T206 135T125 320T98 557Q98 685 117 808T173 1040T266 1242T395 1402T559 1506T758 1544Q872 1544 955 1502T1093 1384T1174 1202T1200 969Q1200 842 1181 718T1125 484T1032 279T904 117T741 10T543 -29Z"/><glyph unicode="1" horiz-adv-x="872" d="M2 0L18 94H307L537 1399Q507 1384 469 1372T392 1350T313 1335T240 1329L256 1417Q344 1420 425 1444T565 1516H657L408 94H670L653 0H2Z"/><glyph unicode="2" horiz-adv-x="1169" d="M-25 0L-20 33Q-3 169 49 266T177 436T342 562T523 661T700 754T852 858T959 991T999 1174Q999 1233 982 1284T929 1373T837 1432T702 1454Q646 1454 594 1441T491 1397T393 1317T299 1198L221 1243Q272 1323 330 1380T451 1473T580 1527T713 1544Q811 1544 884 1516T1005 1438T1078 1323T1102 1182Q1102 1090 1076 1018T1005 888T899 784T769 697T627 619T482 543T345 461T227 364T140 244T92 94H915L899 0H-25Z"/><glyph unicode="3" horiz-adv-x="1174" d="M469 -29Q364 -29 286 -7T149 57T51 155T-18 281L74 317Q125 191 222 126T475 61Q566 61 641 84T771 156T855 280T885 459Q885 530 864 586T792 682T659 741T451 762H397L412 852H477Q609 852 705 872T864 935T957 1042T987 1198Q987 1254 971 1301T918 1382T819 1435T668 1454Q621 1454 575 1446T483 1418T395 1365T311 1284L238 1337Q316 1431 425 1487T676 1544Q794 1544 873 1516T1001 1440T1069 1331T1090 1204Q1090 1113 1060 1044T980 925T863 845T723 801Q852 772 919 683T987 461Q987 344 949 253T843 100T680 4T469 -29Z"/><glyph unicode="4" horiz-adv-x="1188" d="M647 0L717 389H6L18 461L879 1516H1012L829 481H1085L1071 389H815L745 0H647ZM152 481H731L891 1389H887L152 481Z"/><glyph unicode="5" horiz-adv-x="1159" d="M479 -29Q370 -29 292 -5T158 62T66 160T4 281L98 315Q118 260 148 214T225 133T334 80T485 61Q587 61 668 101T805 209T890 369T920 563Q920 727 837 814T598 901Q541 901 490 885T393 840T310 774T240 694L162 729L356 1516H1110L1083 1417H432L285 840Q311 871 344 898T417 946T503 979T604 991Q698 991 775 962T907 877T992 741T1022 557Q1022 413 976 303T855 120T681 9T479 -29Z"/><glyph unicode="6" horiz-adv-x="1210" d="M532 -29Q432 -29 351 7T213 115T125 292T94 537Q94 679 117 808T184 1050T289 1253T426 1409T587 1509T768 1544Q892 1544 985 1515T1130 1440L1073 1364Q1047 1383 1018 1399T952 1428T870 1447T770 1454Q674 1454 581 1405T411 1261T278 1030T203 719Q230 750 273 789T374 862T502 919T655 942Q770 942 850 910T979 824T1051 698T1073 545Q1073 413 1032 307T918 126T746 11T532 -29ZM543 61Q626 61 703 89T839 175T933 324T969 539Q969 605 952 662T896 761T795 828T643 852Q565 852 498 830T375 772T273 695T195 614Q193 596 193 577T193 539Q193 418 219 329T291 180T402 91T543 61Z"/><glyph unicode="7" horiz-adv-x="1108" d="M129 0L1010 1417H238L254 1516H1135L1120 1423L236 0H129Z"/><glyph unicode="8" horiz-adv-x="1229" d="M528 -29Q397 -29 301 4T142 92T47 216T16 358Q16 449 52 519T154 645T311 741T512 817Q455 849 404 884T315 961T254 1052T231 1161Q231 1245 269 1315T372 1437T522 1516T702 1544Q817 1544 901 1513T1041 1433T1122 1321T1149 1194Q1149 1104 1112 1041T1016 934T881 860T727 805Q793 768 855 728T967 638T1045 528T1075 393Q1075 300 1034 223T921 89T748 2T528 -29ZM119 362Q119 302 147 248T228 152T357 86T532 61Q614 61 694 81T836 143T936 245T975 389Q975 456 944 509T861 607T745 689T610 764Q499 732 408 695T253 610T154 502T119 362ZM1049 1190Q1049 1236 1030 1283T969 1368T859 1430T696 1454Q617 1454 550 1432T435 1372T359 1284T332 1178Q332 1122 357 1077T424 994T521 921T637 854Q732 884 808 914T938 982T1020 1070T1049 1190Z"/><glyph unicode="9" horiz-adv-x="1210" d="M446 -29Q323 -29 230 1T84 76L145 152Q193 113 263 87T444 61Q539 61 632 111T802 255T935 486T1012 795Q983 764 940 726T839 653T711 596T559 573Q444 573 364 605T235 691T163 818T141 971Q141 1103 182 1209T296 1389T468 1504T682 1544Q782 1544 863 1508T1001 1401T1089 1224T1120 979Q1120 837 1097 708T1030 466T925 263T788 107T627 7T446 -29ZM1022 977Q1022 1097 996 1187T924 1336T813 1424T672 1454Q589 1454 512 1426T376 1340T282 1192T246 977Q246 911 263 854T318 755T419 688T571 664Q649 664 716 686T840 743T942 820T1020 901Q1020 920 1021 938T1022 977Z"/><glyph unicode=":" horiz-adv-x="543" d="M229 911L260 1075H397L367 911H229ZM70 0L98 164H236L207 0H70Z"/><glyph unicode=";" horiz-adv-x="543" d="M229 911L260 1075H397L367 911H229ZM47 -199L123 0H70L98 164H236L209 12L92 -199H47Z"/><glyph unicode="&lt;" horiz-adv-x="1298" d="M82 621V707L1165 1167V1067L203 664L1165 260V160L82 621Z"/><glyph unicode="=" horiz-adv-x="1298" d="M113 850V944H1147V850H113ZM113 383V477H1147V383H113Z"/><glyph unicode="&gt;" horiz-adv-x="1298" d="M96 160V260L1059 664L96 1067V1167L1180 707V621L96 160Z"/><glyph unicode="?" horiz-adv-x="1057" d="M266 0L295 164H432L403 0H266ZM365 397Q370 460 376 509T393 598Q408 657 433 697T495 770T583 830T702 893Q747 915 787 940T857 999T906 1081T924 1196Q924 1250 905 1297T847 1378T748 1432T606 1452Q552 1452 506 1442T416 1409T331 1351T246 1266L178 1319Q364 1544 614 1544Q716 1544 793 1517T922 1443T1000 1334T1026 1200Q1026 1113 1003 1053T940 951T850 879T745 821Q682 788 639 763T565 714T517 662T486 598T464 514T444 397H365Z"/><glyph unicode="@" horiz-adv-x="1778" d="M754 401Q797 401 837 408T916 433T994 477T1075 545L1141 999Q1084 1068 1017 1098T860 1128Q789 1128 729 1091T626 990T559 841T535 659Q535 590 551 541T596 461T665 416T754 401ZM881 -29Q710 -29 566 27T317 187T153 435T94 758Q94 935 154 1080T320 1328T569 1487T881 1544Q1048 1544 1192 1488T1441 1331T1607 1089T1667 778Q1667 669 1641 584T1570 441T1465 353T1337 322Q1289 322 1251 334T1183 368T1134 418T1104 477Q1025 408 940 365T758 322Q690 322 633 342T533 402T466 505T442 653Q442 767 473 868T563 1045T701 1165T881 1210Q970 1210 1035 1179T1153 1096L1167 1192H1255L1169 590Q1163 549 1172 514T1203 452T1260 410T1341 395Q1393 395 1438 417T1518 487T1573 607T1593 778Q1593 932 1539 1060T1390 1281T1164 1424T881 1475Q728 1475 598 1423T373 1276T224 1049T170 758Q170 599 223 467T372 241T598 94T881 41Q1005 41 1106 70T1305 150L1335 88Q1236 35 1122 3T881 -29Z"/><glyph unicode="A" horiz-adv-x="1337" d="M-51 0L743 1522H864L1122 0H1020L936 508H322L59 0H-51ZM369 600H922L788 1407H784L369 600Z"/><glyph unicode="B" horiz-adv-x="1370" d="M317 825H715Q811 825 893 841T1037 897T1132 1001T1167 1163Q1167 1224 1144 1272T1073 1353T948 1403T764 1421H422L317 825ZM188 94H670Q764 94 842 114T976 176T1063 285T1094 442Q1094 588 979 660T649 733H301L188 94ZM70 0L336 1516H772Q908 1516 1003 1490T1158 1418T1245 1308T1272 1169Q1272 1074 1241 1006T1160 892T1045 819T913 776V772Q975 760 1027 733T1116 665T1175 568T1196 442Q1196 342 1161 261T1057 121T888 32T657 0H70Z"/><glyph unicode="C" horiz-adv-x="1397" d="M635 -29Q505 -29 407 18T243 148T144 347T111 598Q111 737 138 861T213 1091T327 1280T473 1422T641 1512T823 1544Q944 1544 1032 1514T1181 1424T1273 1277T1315 1077L1214 1069Q1207 1164 1184 1236T1113 1356T993 1428T815 1452Q701 1452 593 1394T401 1226T265 956T213 596Q213 474 241 376T324 208T457 101T639 63Q726 63 798 85T930 156T1042 282T1141 469L1229 434Q1139 205 991 88T635 -29Z"/><glyph unicode="D" horiz-adv-x="1417" d="M188 94H473Q646 94 782 144T1011 295T1154 545T1204 893Q1204 1019 1170 1117T1066 1282T891 1385T641 1421H422L188 94ZM70 0L336 1516H639Q811 1516 937 1473T1146 1349T1269 1156T1309 903Q1309 690 1255 523T1094 239T827 62T455 0H70Z"/><glyph unicode="E" horiz-adv-x="1202" d="M70 0L336 1516H1192L1176 1421H422L322 852H883L866 758H305L188 94H987L971 0H70Z"/><glyph unicode="F" horiz-adv-x="1126" d="M70 0L336 1516H1178L1161 1421H422L322 852H868L852 758H305L172 0H70Z"/><glyph unicode="G" horiz-adv-x="1442" d="M637 -29Q504 -29 406 18T242 147T145 342T113 586Q113 737 142 867T224 1103T346 1292T496 1430T664 1515T838 1544Q961 1544 1048 1513T1194 1422T1282 1278T1321 1085L1221 1079Q1207 1272 1114 1362T831 1452Q758 1452 684 1427T542 1354T414 1232T310 1064T241 850T215 590Q215 473 241 377T321 210T456 102T645 63Q742 63 825 100T973 206T1083 376T1147 604H766L782 698H1264L1141 0H1040L1081 238H1077Q1043 182 999 134T899 49T778 -8T637 -29Z"/><glyph unicode="H" horiz-adv-x="1462" d="M70 0L336 1516H438L322 850H1174L1290 1516H1393L1126 0H1024L1157 756H305L172 0H70Z"/><glyph unicode="I" horiz-adv-x="553" d="M92 0L358 1516H461L195 0H92Z"/><glyph unicode="J" horiz-adv-x="983" d="M317 -29Q237 -29 179 -9T78 43T8 116T-41 201L51 240Q91 153 156 108T319 63Q377 63 425 78T512 130T578 226T621 375L821 1516H924L723 371Q704 263 669 187T583 63T466 -7T317 -29Z"/><glyph unicode="K" horiz-adv-x="1325" d="M1032 0L627 877L268 547L172 0H70L336 1516H438L291 684L1190 1516H1323L700 944L1139 0H1032Z"/><glyph unicode="L" horiz-adv-x="1126" d="M70 0L336 1516H438L188 94H926L909 0H70Z"/><glyph unicode="M" horiz-adv-x="1747" d="M70 0L336 1516H467L762 139H766L1546 1516H1677L1411 0H1307L1542 1333H1538Q1527 1312 1512 1283T1478 1219T1441 1147T1401 1075L788 0H694L463 1075Q455 1110 448 1142T434 1205T421 1269T408 1337H403L168 0H70Z"/><glyph unicode="N" horiz-adv-x="1485" d="M70 0L336 1516H453L1079 188H1083L1317 1516H1415L1149 0H1061L414 1372H410L168 0H70Z"/><glyph unicode="O" horiz-adv-x="1481" d="M639 63Q756 63 868 116T1070 276T1213 542T1268 915Q1268 1036 1239 1135T1156 1305T1023 1413T844 1452Q769 1452 693 1429T547 1358T416 1240T310 1075T239 862T213 602Q213 480 242 381T326 211T460 102T639 63ZM629 -29Q504 -29 408 19T245 153T145 354T111 606Q111 753 140 879T220 1110T341 1295T494 1431T669 1515T856 1544Q980 1544 1075 1497T1236 1365T1336 1164T1370 911Q1370 765 1342 639T1264 408T1145 222T993 85T819 0T629 -29Z"/><glyph unicode="P" horiz-adv-x="1280" d="M336 1516H768Q895 1516 987 1491T1140 1418T1230 1306T1260 1159Q1260 1028 1214 942T1092 804T918 731T713 709H297L172 0H70L336 1516ZM727 803Q813 803 890 816T1025 867T1118 974T1153 1155Q1153 1286 1055 1353T752 1421H422L313 803H727Z"/><glyph unicode="Q" horiz-adv-x="1481" d="M918 -375Q819 -375 745 -353T623 -286T558 -175T555 -20Q448 -7 366 45T227 180T141 371T111 606Q111 753 140 879T220 1110T341 1295T494 1431T669 1515T856 1544Q980 1544 1075 1497T1236 1365T1336 1164T1370 911Q1370 767 1343 643T1268 416T1152 233T1005 97T835 11T651 -23Q642 -96 657 -145T708 -225T799 -268T926 -281H1020L1004 -375H918ZM639 63Q716 63 793 86T939 157T1069 276T1173 442T1243 655T1268 915Q1268 1036 1239 1135T1156 1305T1023 1413T844 1452Q769 1452 693 1429T547 1358T416 1240T310 1075T239 862T213 602Q213 480 242 381T326 211T460 102T639 63Z"/><glyph unicode="R" horiz-adv-x="1337" d="M70 0L336 1516H768Q882 1516 973 1493T1127 1425T1225 1312T1260 1155Q1260 1116 1254 1071T1230 980T1182 890T1103 810T985 749T821 715L1073 0H969L719 711H297L172 0H70ZM313 803H727Q784 803 838 808T939 826T1026 864T1093 927T1137 1020T1153 1149Q1153 1281 1055 1351T752 1421H422L313 803Z"/><glyph unicode="S" horiz-adv-x="1288" d="M569 -29Q441 -29 349 -1T196 80T104 208T66 379L168 387Q180 218 280 141T578 63Q665 63 740 84T871 147T957 254T989 406Q989 482 957 535T872 628T752 697T615 754T477 812T357 884T272 983T240 1122Q240 1217 277 1295T379 1428T527 1514T707 1544Q830 1544 916 1518T1059 1445T1146 1333T1186 1188L1083 1176Q1073 1256 1043 1309T963 1394T847 1439T698 1452Q621 1452 556 1429T444 1364T371 1264T344 1137Q344 1068 376 1020T461 936T581 871T719 815T856 755T977 677T1062 569T1094 420Q1094 302 1049 217T930 78T762 -3T569 -29Z"/><glyph unicode="T" horiz-adv-x="1229" d="M430 0L680 1421H193L209 1516H1286L1270 1421H782L532 0H430Z"/><glyph unicode="U" horiz-adv-x="1440" d="M623 -29Q522 -29 444 -7T310 54T218 146T164 264T145 399T156 545L326 1516H428L258 541Q241 446 250 360T300 207T419 102T618 63Q827 63 943 169T1094 469L1278 1516H1380L1192 442Q1173 330 1126 243T1007 95T839 3T623 -29Z"/><glyph unicode="V" horiz-adv-x="1311" d="M473 -6L215 1516H315L541 137H545L1253 1516H1362L567 -6H473Z"/><glyph unicode="W" horiz-adv-x="1860" d="M350 0L223 1516H324L397 543Q405 433 413 330T424 152H428Q442 188 460 232T500 327T544 432T590 541L1001 1516H1120L1192 532Q1200 426 1206 330T1214 152H1219Q1254 240 1292 330T1376 524L1798 1516H1903L1243 0H1139L1036 1374H1032L453 0H350Z"/><glyph unicode="X" horiz-adv-x="1294" d="M987 0L639 737L37 0H-78L598 825L272 1516H375L668 895L1174 1516H1288L709 809L1092 0H987Z"/><glyph unicode="Y" horiz-adv-x="1210" d="M420 0L539 674L193 1516H299L602 762L1165 1516H1284L641 674L522 0H420Z"/><glyph unicode="Z" horiz-adv-x="1239" d="M-41 0L-27 76L1120 1427H272L287 1516H1262L1249 1440L102 88H1012L995 0H-41Z"/><glyph unicode="[" horiz-adv-x="770" d="M-16 -410L322 1516H799L784 1434H408L98 -328H475L461 -410H-16Z"/><glyph unicode="\" horiz-adv-x="1081" d="M799 0L184 1516H283L897 0H799Z"/><glyph unicode="]" horiz-adv-x="770" d="M-100 -410L-86 -328H291L600 1432H223L238 1516H715L377 -410H-100Z"/><glyph unicode="^" horiz-adv-x="1298" d="M606 1516H692L1153 698H1053L649 1413L246 698H145L606 1516Z"/><glyph unicode="_" horiz-adv-x="1004" d="M-176 -244L-160 -154H844L827 -244H-176Z"/><glyph unicode="`" horiz-adv-x="1024" d="M565 1192L281 1501H434L629 1192H565Z"/><glyph unicode="a" horiz-adv-x="1106" d="M319 68Q425 68 538 117T760 256L823 616Q678 601 570 578T382 525T252 461T170 388T127 309T115 227Q115 153 167 111T319 68ZM305 -18Q234 -18 180 -1T88 47T33 120T14 213Q14 300 55 378T193 520T447 627T836 690L848 756Q860 816 854 863T821 944T747 994T629 1012Q570 1012 511 997T400 958T304 905T231 846L170 911Q209 945 257 978T363 1038T489 1081T637 1098Q735 1098 800 1072T902 1000T947 890T944 750L860 266Q852 221 847 187T840 123T838 64T844 0H739Q734 42 734 79T743 160Q629 75 517 29T305 -18Z"/><glyph unicode="b" horiz-adv-x="1180" d="M518 68Q592 68 667 100T804 202T903 382T942 647Q942 731 920 799T859 914T763 986T639 1012Q585 1012 533 994T435 948T350 886T283 819L178 238Q246 151 329 110T518 68ZM508 -18Q452 -18 405 -6T316 27T237 79T162 147L137 0H39L305 1516H403L299 920Q320 944 355 975T437 1033T538 1079T653 1098Q743 1098 815 1067T937 979T1015 840T1042 657Q1042 482 996 355T874 145T702 22T508 -18Z"/><glyph unicode="c" horiz-adv-x="1057" d="M442 -23Q353 -23 282 11T162 106T86 253T59 440Q59 559 83 654T149 823T245 948T359 1033T480 1082T596 1098Q687 1098 750 1075T856 1013T924 921T965 811L872 786Q858 844 835 886T777 957T695 998T586 1012Q504 1012 427 976T290 867T194 688T158 440Q158 354 178 285T237 166T330 90T455 63Q516 63 563 77T651 120T727 195T801 303L877 264Q841 194 798 141T703 51T586 -4T442 -23Z"/><glyph unicode="d" horiz-adv-x="1180" d="M461 68Q555 68 642 116T821 260L926 842Q896 879 860 910T782 963T690 999T584 1012Q541 1012 493 1000T398 959T308 885T232 775T180 624T160 428Q160 341 182 274T244 161T339 92T461 68ZM453 -18Q364 -18 292 11T168 95T88 232T59 418Q59 542 82 640T145 814T238 943T350 1031T472 1082T594 1098Q658 1098 711 1081T808 1039T884 985T940 932L1042 1516H1141L922 266Q914 221 909 187T901 123T899 64T907 0H801Q796 37 796 79T805 162Q775 127 735 95T648 37T552 -3T453 -18Z"/><glyph unicode="e" horiz-adv-x="1083" d="M446 -23Q359 -23 288 9T165 100T87 243T59 430Q59 549 83 645T149 815T245 942T358 1030T476 1081T588 1098Q708 1098 784 1053T901 931T949 755T936 547L934 532H160Q158 509 157 484T156 434Q156 330 185 260T259 145T357 82T457 63Q521 63 572 80T665 127T741 198T805 287L883 242Q845 181 800 132T700 49T583 -4T446 -23ZM846 614Q856 689 849 761T811 888T724 978T580 1012Q517 1012 454 987T335 912T238 788T174 614H846Z"/><glyph unicode="f" horiz-adv-x="621" d="M113 0L287 987H98L115 1075H303L338 1278Q350 1346 375 1392T435 1465T516 1504T612 1516Q618 1516 632 1515T661 1512T691 1508T711 1505L692 1417Q678 1420 653 1423T606 1427Q568 1427 540 1419T491 1393T457 1346T436 1272L401 1075H618L602 987H385L211 0H113Z"/><glyph unicode="g" horiz-adv-x="1116" d="M481 326Q424 326 375 337T283 371Q223 354 196 329T168 274Q168 246 186 228T243 195T343 170T492 143Q571 129 639 112T759 66T839 -6T868 -113Q868 -168 850 -211T801 -287T726 -343T633 -381T527 -403T416 -410Q276 -410 177 -389T14 -332T-79 -246T-109 -141Q-109 -76 -83 -29T-17 50T67 103T152 135Q113 155 93 182T72 250Q72 307 107 347T217 416Q164 462 137 526T109 668Q109 773 149 853T254 988T397 1070T555 1098Q646 1098 718 1067T840 981Q902 1016 968 1043T1112 1083L1094 977Q1074 976 1048 974T994 968T935 955T874 934Q899 894 912 846T926 745Q926 638 886 559T782 428T639 351T481 326ZM485 410Q557 410 619 431T728 495T802 602T829 752Q829 808 812 856T761 939T673 994T549 1014Q480 1014 418 991T308 924T233 816T205 670Q205 614 223 567T276 485T363 430T485 410ZM-8 -127Q-8 -167 14 -203T87 -267T220 -311T424 -328Q494 -328 556 -317T665 -281T739 -219T766 -129Q766 -83 746 -53T688 -2T597 32T479 57Q410 68 350 79T240 102Q192 91 147 72T68 25T13 -41T-8 -127Z"/><glyph unicode="h" horiz-adv-x="1153" d="M39 0L305 1516H403L295 897Q332 934 382 970T487 1035T598 1080T707 1098Q798 1098 858 1072T953 1001T995 893T991 758L858 0H760L893 756Q904 817 898 865T867 945T797 995T682 1012Q634 1012 584 997T483 955T381 890T279 807L137 0H39Z"/><glyph unicode="i" horiz-adv-x="467" d="M285 1350L307 1475H414L391 1350H285ZM51 0L242 1075H340L150 0H51Z"/><glyph unicode="j" horiz-adv-x="467" d="M285 1350L307 1475H414L391 1350H285ZM-88 -410Q-126 -410 -144 -409T-172 -406L-158 -319Q-144 -321 -123 -322T-84 -324Q-42 -324 -20 -297T14 -211L242 1075H340L111 -221Q101 -276 84 -312T42 -370T-15 -401T-88 -410Z"/><glyph unicode="k" horiz-adv-x="1038" d="M39 0L305 1516H403L223 496L858 1075H985L565 698L842 0H741L492 631L203 371L137 0H39Z"/><glyph unicode="l" horiz-adv-x="467" d="M51 0L317 1516H416L150 0H51Z"/><glyph unicode="m" horiz-adv-x="1841" d="M39 0L229 1075H328L295 897Q332 934 379 970T478 1035T584 1080T690 1098Q760 1098 812 1083T899 1039T954 971T979 883Q1084 983 1191 1040T1395 1098Q1486 1098 1546 1072T1641 1001T1683 893T1679 758L1546 0H1448L1581 756Q1592 817 1586 865T1555 945T1485 995T1370 1012Q1276 1012 1181 957T983 807L842 0H743L877 756Q887 817 882 865T851 945T781 995T666 1012Q618 1012 571 997T475 955T379 890T279 807L137 0H39Z"/><glyph unicode="n" horiz-adv-x="1153" d="M39 0L229 1075H328L295 897Q332 934 382 970T487 1035T598 1080T707 1098Q798 1098 858 1072T953 1001T995 893T991 758L858 0H760L893 756Q904 817 898 865T867 945T797 995T682 1012Q634 1012 584 997T483 955T381 890T279 807L137 0H39Z"/><glyph unicode="o" horiz-adv-x="1147" d="M471 63Q559 63 639 103T779 218T875 397T911 631Q911 707 893 776T837 897T739 981T598 1012Q509 1012 430 971T290 854T195 674T160 442Q160 365 177 297T232 176T329 94T471 63ZM465 -23Q370 -23 295 10T167 105T87 250T59 436Q59 545 81 637T143 802T236 931T349 1024T475 1079T604 1098Q699 1098 774 1064T902 969T982 823T1010 637Q1010 528 988 437T926 272T835 144T721 51T595 -4T465 -23Z"/><glyph unicode="p" horiz-adv-x="1180" d="M518 68Q561 68 609 80T705 120T795 192T870 301T922 450T942 645Q942 734 920 802T857 917T761 988T639 1012Q592 1012 544 997T449 956T360 894T283 819L178 238Q213 199 248 168T323 114T410 80T518 68ZM-33 -410L229 1075H328L299 920Q327 952 366 984T452 1041T548 1082T647 1098Q736 1098 809 1069T933 983T1013 845T1042 657Q1042 534 1019 436T957 263T864 135T752 48T629 -2T506 -18Q454 -18 407 -6T317 29T236 81T164 147L66 -410H-33Z"/><glyph unicode="q" horiz-adv-x="1180" d="M461 68Q555 68 642 116T821 260L926 842Q896 879 860 910T782 963T690 999T584 1012Q541 1012 493 1000T398 959T308 885T232 775T180 624T160 428Q160 341 182 274T244 161T339 92T461 68ZM705 -410L805 162Q775 127 735 95T648 37T552 -3T453 -18Q364 -18 292 11T168 95T88 232T59 418Q59 542 82 640T145 814T238 943T350 1031T472 1082T594 1098Q658 1098 711 1081T808 1039T884 985T940 932L967 1075H1065L803 -410H705Z"/><glyph unicode="r" horiz-adv-x="774" d="M39 0L229 1075H328L287 850H291Q331 898 380 942T488 1021T614 1077T758 1098H774L756 1006H719Q665 1006 604 987T482 929T364 836T262 709L137 0H39Z"/><glyph unicode="s" horiz-adv-x="1004" d="M395 -18Q308 -18 244 -4T132 39T51 107T-8 197L86 238Q103 203 129 172T194 118T284 82T403 68Q472 68 528 80T625 120T688 190T711 293Q711 344 687 379T622 440T530 485T424 524T319 565T227 619T162 693T137 797Q137 862 160 917T230 1013T342 1075T494 1098Q575 1098 635 1085T740 1048T818 994T877 926L793 870Q751 936 674 974T485 1012Q423 1012 377 997T301 954T255 892T240 817Q240 765 264 730T329 669T420 624T525 586T630 545T722 492T786 416T811 309Q811 219 777 157T686 56T554 0T395 -18Z"/><glyph unicode="t" horiz-adv-x="696" d="M371 -14Q296 -14 249 4T177 57T148 144T156 264L283 987H94L111 1075H299L367 1466H465L397 1075H657L641 987H381L254 268Q245 220 244 184T255 124T298 87T383 74Q428 74 481 86L498 0Q484 -3 468 -5T434 -10T401 -13T371 -14Z"/><glyph unicode="u" horiz-adv-x="1147" d="M371 -23Q279 -23 219 3T124 74T82 182T86 317L219 1075H317L184 319Q173 258 179 211T210 130T280 80T395 63Q443 63 492 78T591 120T691 185T793 268L934 1075H1032L842 0H743L776 178Q738 140 690 104T588 40T478 -5T371 -23Z"/><glyph unicode="v" horiz-adv-x="1008" d="M319 -6L123 1075H225L387 123H391L887 1075H999L418 -6H319Z"/><glyph unicode="w" horiz-adv-x="1497" d="M258 0L125 1075H223L283 510Q292 418 304 328T324 135H328Q353 193 373 239T412 327T450 412T494 508L754 1075H854L913 496Q918 445 922 402T931 318T939 232T948 135H952Q977 190 997 233T1036 317T1074 399T1116 492L1382 1075H1487L973 0H881L780 938H776L348 0H258Z"/><glyph unicode="x" horiz-adv-x="1010" d="M-61 0L414 563L158 1075H260L481 631L852 1075H961L520 553L797 0H694L453 483L47 0H-61Z"/><glyph unicode="y" horiz-adv-x="1042" d="M25 -410Q-20 -410 -60 -401T-131 -377L-94 -295Q-69 -306 -37 -315T31 -324Q107 -324 158 -278T250 -158L334 -6L123 1075H227L403 119H408L924 1075H1034L330 -190Q298 -249 268 -290T202 -358T125 -397T25 -410Z"/><glyph unicode="z" horiz-adv-x="1004" d="M-43 0L-31 68L793 989H186L203 1075H940L928 1008L100 86H788L774 0H-43Z"/><glyph unicode="{" horiz-adv-x="750" d="M379 -410Q301 -410 250 -392T172 -341T138 -262T141 -160L217 268Q230 343 229 391T206 466T143 504T33 514L47 592Q116 592 162 602T238 639T286 715T317 838L395 1276Q407 1343 431 1388T493 1462T581 1503T696 1516H786L772 1434H682Q598 1434 554 1395T496 1278L418 840Q405 765 385 716T337 636T274 587T195 555L193 551Q232 537 261 519T307 470T327 390T317 266L240 -172Q226 -250 257 -289T373 -328H463L449 -410H379Z"/><glyph unicode="|" horiz-adv-x="680" d="M274 -410V1516H369V-410H274Z"/><glyph unicode="}" horiz-adv-x="750" d="M-109 -410L-94 -328H-4Q79 -328 123 -289T182 -172L260 266Q273 341 293 390T341 470T404 519T483 551L485 555Q446 569 417 587T371 636T351 716T360 840L438 1278Q452 1356 421 1395T305 1434H215L229 1516H299Q377 1516 428 1498T506 1447T540 1368T537 1266L461 838Q448 763 449 715T472 640T535 602T645 592L631 514Q562 514 516 504T439 467T391 391T360 268L283 -170Q271 -237 247 -282T185 -356T97 -397T-18 -410H-109Z"/><glyph unicode="~" horiz-adv-x="1298" d="M934 555Q905 557 857 568T750 596T631 630T514 665T415 693T348 707Q299 712 267 691T227 610L154 616Q158 668 175 704T219 764T282 796T362 803Q391 800 439 789T546 761T665 726T782 691T881 663T948 649Q999 646 1031 667T1069 748L1145 741Q1140 690 1123 653T1078 593T1014 561T934 555Z"/><glyph unicode=" " horiz-adv-x="442"/><glyph unicode="¡" horiz-adv-x="621" d="M346 1352L375 1516H512L483 1352H346ZM117 0L350 1118H397L238 0H117Z"/><glyph unicode="¢" horiz-adv-x="1067" d="M440 -20Q400 -20 364 -13T295 6L174 -264H92L229 43Q148 100 104 203T59 440Q59 559 83 654T149 822T245 947T359 1032T480 1080T596 1096Q624 1096 648 1094T694 1087L793 1307H874L766 1065Q810 1047 842 1021T897 961T937 890T965 811L872 786Q852 862 818 911T727 985L328 90Q383 63 455 63Q509 63 555 78T644 125T724 202T801 311L877 272Q804 132 691 56T440 -20ZM586 1012Q504 1012 427 976T290 867T194 688T158 440Q158 335 187 256T270 129L662 1006Q627 1012 586 1012Z"/><glyph unicode="£" horiz-adv-x="1190" d="M174 -29Q129 -29 91 -16T25 20T-19 77T-35 152Q-35 209 -18 252T32 326T108 371T207 387Q243 387 275 377T335 350T390 311T440 264Q454 311 461 364T469 483Q469 559 456 628T426 762H178L193 852H399Q379 923 363 992T346 1135Q346 1235 378 1311T464 1440T590 1518T741 1544Q852 1544 922 1513T1032 1429T1082 1309T1085 1169L983 1163Q991 1224 985 1277T951 1369T872 1431T739 1454Q679 1454 626 1435T533 1376T470 1276T446 1135Q446 1066 464 997T504 852H836L821 762H530Q546 699 557 630T569 485Q569 404 556 328T514 188Q539 163 564 140T616 100T674 72T739 61Q836 61 892 132T969 360H1063Q1052 276 1029 205T967 82T871 1T733 -29Q689 -29 652 -18T583 13T522 57T467 109Q419 46 347 9T174 -29ZM199 303Q139 303 98 268T57 160Q57 113 90 84T180 55Q324 55 401 176Q377 201 354 224T307 265T256 292T199 303Z"/><glyph unicode="¤" horiz-adv-x="1152" d="M1056 392L940 284L740 500Q668 452 572 452Q480 452 408 500L208 284L92 392L300 608Q272 648 262 686T252 780Q252 828 262 870T300 952L92 1168L208 1276L408 1060Q480 1108 572 1108Q668 1108 740 1060L944 1276L1060 1156L852 952Q880 912 890 872T900 780Q900 684 848 608L1056 392ZM748 780Q748 860 698 910T572 960Q496 960 448 910T400 780Q400 700 450 652T572 604Q652 604 700 652T748 780Z"/><glyph unicode="¥" horiz-adv-x="1210" d="M420 0L469 281H82L98 375H485L524 590H137L154 682H537L193 1516H301L604 762L1167 1516H1284L647 682H1034L1018 590H627L588 375H979L963 281H571L522 0H420Z"/><glyph unicode="¦" horiz-adv-x="680" d="M274 678V1516H369V678H274ZM274 -410V428H369V-410H274Z"/><glyph unicode="§" horiz-adv-x="1040" d="M344 -410Q268 -410 214 -397T121 -361T60 -307T24 -241T6 -169T-2 -94L98 -88Q102 -142 113 -185T152 -258T226 -303T348 -319Q412 -319 459 -302T537 -256T583 -189T598 -106Q598 -38 560 17T463 121T338 218T213 319T117 434T78 575Q78 650 109 709T189 814T301 892T426 946Q391 975 362 1006T310 1073T275 1146T262 1229Q262 1293 286 1350T356 1451T470 1519T627 1544Q730 1544 798 1520T907 1452T965 1352T985 1231L887 1227Q885 1276 872 1317T829 1389T748 1437T623 1454Q558 1454 510 1437T431 1391T383 1324T367 1241Q367 1173 406 1118T503 1014T630 916T756 815T854 700T893 559Q893 481 861 422T777 319T662 245T535 193Q569 163 599 131T653 64T689 -10T702 -94Q702 -159 679 -216T611 -316T499 -385T344 -410ZM178 584Q178 531 203 487T269 403T361 325T463 248Q633 306 713 378T793 551Q793 603 767 647T698 733T603 812T496 891Q331 832 255 757T178 584Z"/><glyph unicode="¨" horiz-adv-x="1004" d="M676 1192L698 1329H829L807 1192H676ZM352 1192L375 1329H506L483 1192H352Z"/><glyph unicode="©" horiz-adv-x="1765" d="M885 41Q983 41 1073 67T1242 139T1385 252T1495 397T1566 568T1591 758Q1591 856 1566 947T1496 1118T1386 1264T1243 1376T1074 1449T885 1475Q787 1475 697 1449T527 1377T384 1264T274 1119T203 948T178 758Q178 660 203 569T274 398T384 252T527 140T696 67T885 41ZM885 -29Q776 -29 676 -1T490 78T332 202T210 361T132 549T104 758Q104 867 131 967T210 1154T332 1313T489 1436T676 1516T885 1544Q993 1544 1093 1516T1280 1437T1438 1314T1559 1155T1637 967T1665 758Q1665 650 1638 550T1560 362T1438 202T1280 79T1093 -1T885 -29ZM881 319Q800 319 734 352T622 446T551 589T526 774Q526 868 551 950T622 1092T734 1186T881 1221Q1008 1221 1084 1149T1196 946L1122 928Q1090 1038 1035 1093T881 1149Q819 1149 768 1122T681 1046T624 928T604 776Q604 686 623 615T679 494T767 418T883 391Q980 391 1042 449T1135 623Q1152 618 1167 614Q1180 610 1191 608T1208 604Q1173 467 1090 393T881 319Z"/><glyph unicode="ª" horiz-adv-x="815" d="M362 836Q429 836 500 871T645 965L686 1192Q546 1178 457 1154T318 1097T248 1026T229 942Q229 896 260 866T362 836ZM352 760Q298 760 259 773T193 810T154 864T141 932Q141 995 167 1047T256 1141T427 1212T696 1260L707 1309Q722 1385 692 1427T569 1470Q531 1470 497 1464T429 1444T363 1409T293 1358L246 1411Q330 1481 408 1512T573 1544Q646 1544 692 1525T762 1472T790 1392T786 1294L729 967Q724 938 721 914T717 867T718 823T725 776H635Q632 802 631 828T633 881Q559 825 485 793T352 760Z"/><glyph unicode="«" horiz-adv-x="1016" d="M641 0L438 539L831 1075H940L551 539L750 0H641ZM264 0L63 539L455 1075H563L176 539L373 0H264Z"/><glyph unicode="¬" horiz-adv-x="1536" d="M1116 352V728H212V920H1296V352H1116Z"/><glyph unicode="­" horiz-adv-x="731" d="M115 594L133 692H578L559 594H115Z"/><glyph unicode="®" horiz-adv-x="1128" d="M436 1348H614Q704 1348 751 1310T799 1204Q799 1139 767 1106T680 1061L815 815H748L616 1053H496V815H436V1348ZM608 594Q509 594 423 631T272 734T170 886T133 1073Q133 1172 170 1259T271 1410T422 1512T608 1550Q707 1550 793 1513T943 1411T1044 1259T1081 1073Q1081 973 1044 886T944 734T794 632T608 594ZM608 649Q695 649 771 682T904 773T993 908T1026 1073Q1026 1160 994 1237T904 1372T771 1463T608 1497Q521 1497 445 1464T313 1372T223 1237T190 1073Q190 986 223 909T312 774T445 683T608 649ZM612 1108Q671 1108 705 1128T739 1202Q739 1252 705 1271T610 1290H496V1108H612Z"/><glyph unicode="¯" horiz-adv-x="1004" d="M311 1192L328 1286H864L848 1192H311Z"/><glyph unicode="°" horiz-adv-x="799" d="M465 1069Q504 1069 542 1084T609 1129T657 1200T676 1296Q676 1332 665 1363T632 1417T581 1453T514 1466Q475 1466 437 1451T370 1407T322 1336T303 1239Q303 1203 314 1172T347 1118T398 1082T465 1069ZM461 991Q405 991 360 1010T282 1062T233 1139T215 1235Q215 1308 242 1365T312 1462T410 1523T518 1544Q574 1544 620 1525T698 1473T748 1396T766 1300Q766 1227 739 1170T668 1073T570 1012T461 991Z"/><glyph unicode="±" horiz-adv-x="1298" d="M133 209H602V680H133V770H602V1241H696V770H1165V680H696V209H1165V119H133V209Z"/><glyph unicode="²" horiz-adv-x="899" d="M121 614Q135 696 169 756T250 862T350 942T459 1005T565 1062T655 1123T717 1199T741 1300Q741 1331 731 1358T701 1406T651 1438T580 1450Q544 1450 512 1443T449 1418T390 1371T332 1296L258 1337Q292 1392 331 1430T413 1492T500 1525T588 1536Q649 1536 695 1518T773 1468T820 1393T836 1300Q836 1236 814 1188T756 1102T672 1034T572 976T467 918T368 854T284 773T227 668H727L713 578H115L121 614Z"/><glyph unicode="³" horiz-adv-x="899" d="M430 559Q316 559 240 609T125 756L203 797Q221 753 245 724T300 678T367 654T446 647Q497 647 540 661T614 703T664 769T682 858Q683 899 670 932T629 988T555 1025T446 1038H375L389 1116H469Q532 1116 582 1126T669 1158T724 1216T743 1305Q743 1334 734 1360T703 1406T647 1438T565 1450Q505 1450 449 1424T338 1341L281 1395Q350 1469 422 1502T580 1536Q651 1536 700 1517T780 1466T824 1396T838 1317Q838 1223 785 1162T635 1073Q709 1048 743 997T778 874Q778 806 754 748T684 648T574 583T430 559Z"/><glyph unicode="´" horiz-adv-x="1004" d="M455 1192L682 1501H836L518 1192H455Z"/><glyph unicode="µ" horiz-adv-x="1155" d="M-33 -410L227 1075H326L193 319Q182 258 187 211T218 130T288 80T403 63Q451 63 500 78T600 120T700 185T801 268L942 1075H1040L850 0H752L784 178Q746 140 698 104T596 40T486 -5T379 -23Q297 -23 236 3T154 88L66 -410H-33Z"/><glyph unicode="¶" horiz-adv-x="1239" d="M428 -410L623 702Q525 708 445 735T309 808T221 919T190 1065Q190 1172 228 1256T333 1397T493 1485T696 1516H1163L825 -410H727L1051 1423H850L526 -410H428Z"/><glyph unicode="·" horiz-adv-x="543" d="M168 561L197 725H334L305 561H168Z"/><glyph unicode="¸" horiz-adv-x="1004" d="M317 -395Q239 -395 182 -376T76 -322L119 -270Q139 -285 159 -297T203 -316T253 -328T315 -332Q467 -332 467 -217Q467 -189 448 -171T389 -152Q366 -152 338 -163T289 -195L242 -170L324 0H399L344 -115Q361 -102 384 -93T436 -84Q487 -84 522 -118T557 -209Q557 -266 536 -302T480 -358T402 -387T317 -395Z"/><glyph unicode="¹" horiz-adv-x="698" d="M154 664H328L459 1403Q421 1387 375 1379T283 1370L297 1456Q360 1458 407 1471T489 1516H569L420 664H578L563 578H139L154 664Z"/><glyph unicode="º" horiz-adv-x="842" d="M455 836Q514 836 566 863T658 941T720 1062T743 1219Q743 1270 731 1315T693 1395T626 1450T526 1470Q469 1470 417 1443T325 1365T262 1244T238 1090Q238 1039 250 993T288 912T355 857T455 836ZM451 760Q380 760 325 783T232 848T174 949T154 1079Q154 1157 170 1222T213 1338T276 1428T354 1492T440 1531T528 1544Q600 1544 656 1521T750 1455T809 1353T829 1221Q829 1105 795 1019T706 875T584 789T451 760Z"/><glyph unicode="»" horiz-adv-x="1016" d="M377 0L762 539L567 1075H676L874 539L485 0H377ZM0 0L387 539L190 1075H299L500 539L109 0H0Z"/><glyph unicode="¼" horiz-adv-x="1831" d="M111 651H285L416 1391Q378 1375 332 1367T240 1358L254 1444Q317 1446 364 1459T446 1503H526L377 651H535L520 565H96L111 651ZM305 0L1452 1516H1559L412 0H305ZM1462 231H1030L1040 293L1575 938H1673L1565 317H1718L1704 231H1550L1509 0H1421L1462 231ZM1477 317L1563 807L1155 317H1477Z"/><glyph unicode="½" horiz-adv-x="1962" d="M111 651H285L416 1391Q378 1375 332 1367T240 1358L254 1444Q317 1446 364 1459T446 1503H526L377 651H535L520 565H96L111 651ZM305 0L1452 1516H1559L412 0H305ZM1124 37Q1138 119 1172 179T1253 284T1353 364T1463 427T1568 485T1658 546T1721 622T1745 723Q1745 754 1735 781T1705 829T1655 860T1583 872Q1547 872 1515 865T1452 841T1393 794T1335 719L1262 760Q1296 815 1335 853T1417 914T1503 947T1591 958Q1652 958 1698 940T1776 890T1823 815T1839 723Q1839 659 1817 611T1759 525T1675 457T1575 399T1470 341T1371 276T1288 195T1231 90H1731L1716 0H1118L1124 37Z"/><glyph unicode="¾" horiz-adv-x="1970" d="M387 547Q159 547 82 743L160 784Q178 740 202 712T257 666T324 642T403 635Q454 635 497 649T571 691T621 757T639 846Q640 886 627 919T586 976T512 1013T403 1026H332L346 1104H426Q489 1104 539 1114T626 1146T681 1204T700 1292Q700 1321 691 1347T660 1394T604 1426T522 1438Q462 1438 406 1412T295 1329L238 1382Q307 1457 379 1490T537 1524Q608 1524 657 1505T737 1454T781 1384T795 1305Q795 1211 742 1150T592 1061Q666 1036 700 985T735 862Q735 794 711 736T641 636T531 571T387 547ZM444 0L1591 1516H1698L551 0H444ZM1602 231H1169L1180 293L1714 938H1812L1704 317H1858L1843 231H1690L1649 0H1561L1602 231ZM1616 317L1702 807L1294 317H1616Z"/><glyph unicode="¿" horiz-adv-x="1057" d="M625 1352L653 1516H791L762 1352H625ZM442 -29Q340 -29 263 -2T135 72T57 181T31 315Q31 403 54 463T117 565T206 637T311 694Q374 727 418 752T491 802T539 854T570 917T592 1001T612 1118H692Q687 1055 681 1007T664 918Q649 859 624 819T562 746T474 686T354 623Q310 600 270 576T200 517T151 435T133 319Q133 265 151 218T209 137T308 83T451 63Q505 63 551 73T641 106T725 164T811 250L879 197Q694 -29 442 -29Z"/><glyph unicode="À" horiz-adv-x="1337" d="M-51 0L743 1522H864L1122 0H1020L936 508H322L59 0H-51ZM369 600H922L788 1407H784L369 600ZM794 1622L510 1931H663L858 1622H794Z"/><glyph unicode="Á" horiz-adv-x="1337" d="M-51 0L743 1522H864L1122 0H1020L936 508H322L59 0H-51ZM369 600H922L788 1407H784L369 600ZM777 1622L1004 1931H1158L840 1622H777Z"/><glyph unicode="Â" horiz-adv-x="1337" d="M-51 0L743 1522H864L1122 0H1020L936 508H322L59 0H-51ZM369 600H922L788 1407H784L369 600ZM523 1612L832 1931H914L1112 1612H1045L852 1825L586 1612H523Z"/><glyph unicode="Ã" horiz-adv-x="1337" d="M-51 0L743 1522H864L1122 0H1020L936 508H322L59 0H-51ZM369 600H922L788 1407H784L369 600ZM973 1618Q938 1618 901 1636T827 1675T759 1715T701 1733Q654 1733 631 1708T598 1622H521Q538 1725 580 1775T703 1825Q740 1825 778 1807T853 1768T921 1728T975 1710Q1022 1710 1045 1735T1080 1821H1158Q1139 1717 1095 1668T973 1618Z"/><glyph unicode="Ä" horiz-adv-x="1337" d="M-51 0L743 1522H864L1122 0H1020L936 508H322L59 0H-51ZM369 600H922L788 1407H784L369 600ZM916 1622L938 1759H1069L1047 1622H916ZM592 1622L615 1759H746L723 1622H592Z"/><glyph unicode="Å" horiz-adv-x="1337" d="M-51 0L723 1485Q688 1505 671 1541T653 1620Q653 1666 668 1703T710 1765T771 1805T842 1819Q880 1819 909 1807T957 1773T987 1724T997 1665Q997 1629 987 1599T960 1544T920 1503T872 1475L1122 0H1020L936 508H322L59 0H-51ZM369 600H922L788 1407H784L369 600ZM811 1524Q861 1524 895 1560T930 1661Q930 1703 908 1731T840 1759Q790 1759 756 1723T721 1622Q721 1580 743 1552T811 1524Z"/><glyph unicode="Æ" horiz-adv-x="1982" d="M481 600H956L1104 1436H1102L481 600ZM-80 0L1049 1516H1972L1956 1421H1202L1102 852H1663L1647 758H1085L969 94H1767L1751 0H850L940 508H412L33 0H-80Z"/><glyph unicode="Ç" horiz-adv-x="1397" d="M635 -29Q505 -29 407 18T243 148T144 347T111 598Q111 737 138 861T213 1091T327 1280T473 1422T641 1512T823 1544Q944 1544 1032 1514T1181 1424T1273 1277T1315 1077L1214 1069Q1207 1164 1184 1236T1113 1356T993 1428T815 1452Q701 1452 593 1394T401 1226T265 956T213 596Q213 474 241 376T324 208T457 101T639 63Q726 63 798 85T930 156T1042 282T1141 469L1229 434Q1139 205 991 88T635 -29ZM514 -395Q436 -395 379 -376T273 -322L316 -270Q336 -285 356 -297T400 -316T450 -328T512 -332Q664 -332 664 -217Q664 -189 645 -171T586 -152Q563 -152 535 -163T486 -195L439 -170L521 0H596L541 -115Q558 -102 581 -93T633 -84Q684 -84 719 -118T754 -209Q754 -266 733 -302T677 -358T599 -387T514 -395Z"/><glyph unicode="È" horiz-adv-x="1202" d="M70 0L336 1516H1192L1176 1421H422L322 852H883L866 758H305L188 94H987L971 0H70ZM727 1622L443 1931H596L791 1622H727Z"/><glyph unicode="É" horiz-adv-x="1202" d="M70 0L336 1516H1192L1176 1421H422L322 852H883L866 758H305L188 94H987L971 0H70ZM627 1622L854 1931H1008L690 1622H627Z"/><glyph unicode="Ê" horiz-adv-x="1202" d="M70 0L336 1516H1192L1176 1421H422L322 852H883L866 758H305L188 94H987L971 0H70ZM455 1612L764 1931H846L1044 1612H977L784 1825L518 1612H455Z"/><glyph unicode="Ë" horiz-adv-x="1202" d="M70 0L336 1516H1192L1176 1421H422L322 852H883L866 758H305L188 94H987L971 0H70ZM848 1622L870 1759H1001L979 1622H848ZM524 1622L547 1759H678L655 1622H524Z"/><glyph unicode="Ì" horiz-adv-x="553" d="M92 0L358 1516H461L195 0H92ZM404 1622L120 1931H273L468 1622H404Z"/><glyph unicode="Í" horiz-adv-x="553" d="M92 0L358 1516H461L195 0H92ZM378 1622L605 1931H759L441 1622H378Z"/><glyph unicode="Î" horiz-adv-x="553" d="M92 0L358 1516H461L195 0H92ZM132 1612L441 1931H523L721 1612H654L461 1825L195 1612H132Z"/><glyph unicode="Ï" horiz-adv-x="553" d="M92 0L358 1516H461L195 0H92ZM525 1622L547 1759H678L656 1622H525ZM201 1622L224 1759H355L332 1622H201Z"/><glyph unicode="Ð" horiz-adv-x="1417" d="M70 0L203 758H25L41 852H219L336 1516H639Q811 1516 937 1473T1146 1349T1269 1156T1309 903Q1309 690 1255 523T1094 239T827 62T455 0H70ZM188 94H473Q646 94 782 144T1011 295T1154 545T1204 893Q1204 1019 1170 1117T1066 1282T891 1385T641 1421H422L322 852H653L637 758H305L188 94Z"/><glyph unicode="Ñ" horiz-adv-x="1485" d="M70 0L336 1516H453L1079 188H1083L1317 1516H1415L1149 0H1061L414 1372H410L168 0H70ZM1046 1618Q1011 1618 974 1636T900 1675T832 1715T774 1733Q727 1733 704 1708T671 1622H594Q611 1725 653 1775T776 1825Q813 1825 851 1807T926 1768T994 1728T1048 1710Q1095 1710 1118 1735T1153 1821H1231Q1212 1717 1168 1668T1046 1618Z"/><glyph unicode="Ò" horiz-adv-x="1481" d="M639 63Q756 63 868 116T1070 276T1213 542T1268 915Q1268 1036 1239 1135T1156 1305T1023 1413T844 1452Q769 1452 693 1429T547 1358T416 1240T310 1075T239 862T213 602Q213 480 242 381T326 211T460 102T639 63ZM629 -29Q504 -29 408 19T245 153T145 354T111 606Q111 753 140 879T220 1110T341 1295T494 1431T669 1515T856 1544Q980 1544 1075 1497T1236 1365T1336 1164T1370 911Q1370 765 1342 639T1264 408T1145 222T993 85T819 0T629 -29ZM866 1622L582 1931H735L930 1622H866Z"/><glyph unicode="Ó" horiz-adv-x="1481" d="M639 63Q756 63 868 116T1070 276T1213 542T1268 915Q1268 1036 1239 1135T1156 1305T1023 1413T844 1452Q769 1452 693 1429T547 1358T416 1240T310 1075T239 862T213 602Q213 480 242 381T326 211T460 102T639 63ZM629 -29Q504 -29 408 19T245 153T145 354T111 606Q111 753 140 879T220 1110T341 1295T494 1431T669 1515T856 1544Q980 1544 1075 1497T1236 1365T1336 1164T1370 911Q1370 765 1342 639T1264 408T1145 222T993 85T819 0T629 -29ZM766 1622L993 1931H1147L829 1622H766Z"/><glyph unicode="Ô" horiz-adv-x="1481" d="M639 63Q756 63 868 116T1070 276T1213 542T1268 915Q1268 1036 1239 1135T1156 1305T1023 1413T844 1452Q769 1452 693 1429T547 1358T416 1240T310 1075T239 862T213 602Q213 480 242 381T326 211T460 102T639 63ZM629 -29Q504 -29 408 19T245 153T145 354T111 606Q111 753 140 879T220 1110T341 1295T494 1431T669 1515T856 1544Q980 1544 1075 1497T1236 1365T1336 1164T1370 911Q1370 765 1342 639T1264 408T1145 222T993 85T819 0T629 -29ZM594 1612L903 1931H985L1183 1612H1116L923 1825L657 1612H594Z"/><glyph unicode="Õ" horiz-adv-x="1481" d="M639 63Q756 63 868 116T1070 276T1213 542T1268 915Q1268 1036 1239 1135T1156 1305T1023 1413T844 1452Q769 1452 693 1429T547 1358T416 1240T310 1075T239 862T213 602Q213 480 242 381T326 211T460 102T639 63ZM629 -29Q504 -29 408 19T245 153T145 354T111 606Q111 753 140 879T220 1110T341 1295T494 1431T669 1515T856 1544Q980 1544 1075 1497T1236 1365T1336 1164T1370 911Q1370 765 1342 639T1264 408T1145 222T993 85T819 0T629 -29ZM1044 1618Q1009 1618 972 1636T898 1675T830 1715T772 1733Q725 1733 702 1708T669 1622H592Q609 1725 651 1775T774 1825Q811 1825 849 1807T924 1768T992 1728T1046 1710Q1093 1710 1116 1735T1151 1821H1229Q1210 1717 1166 1668T1044 1618Z"/><glyph unicode="Ö" horiz-adv-x="1481" d="M639 63Q756 63 868 116T1070 276T1213 542T1268 915Q1268 1036 1239 1135T1156 1305T1023 1413T844 1452Q769 1452 693 1429T547 1358T416 1240T310 1075T239 862T213 602Q213 480 242 381T326 211T460 102T639 63ZM629 -29Q504 -29 408 19T245 153T145 354T111 606Q111 753 140 879T220 1110T341 1295T494 1431T669 1515T856 1544Q980 1544 1075 1497T1236 1365T1336 1164T1370 911Q1370 765 1342 639T1264 408T1145 222T993 85T819 0T629 -29ZM987 1622L1009 1759H1140L1118 1622H987ZM663 1622L686 1759H817L794 1622H663Z"/><glyph unicode="×" horiz-adv-x="1298" d="M270 227L211 287L569 645L211 1006L270 1065L629 705L989 1065L1049 1006L688 645L1049 287L989 227L629 588L270 227Z"/><glyph unicode="Ø" horiz-adv-x="1481" d="M629 -29Q502 -29 405 19T242 156L74 -31L12 14L201 221Q156 300 134 397T111 606Q111 753 140 879T220 1110T341 1295T494 1431T669 1515T856 1544Q981 1544 1077 1497T1239 1362L1407 1546L1468 1501L1280 1294Q1325 1216 1347 1120T1370 911Q1370 765 1342 639T1262 408T1142 222T990 85T816 0T629 -29ZM639 63Q715 63 791 86T937 157T1067 276T1172 442T1242 655T1268 915Q1268 1005 1253 1081T1208 1221L307 231Q363 150 445 107T639 63ZM844 1452Q769 1452 693 1429T547 1358T416 1240T310 1075T239 862T213 602Q213 422 272 295L1171 1284Q1117 1365 1035 1408T844 1452Z"/><glyph unicode="Ù" horiz-adv-x="1440" d="M623 -29Q522 -29 444 -7T310 54T218 146T164 264T145 399T156 545L326 1516H428L258 541Q241 446 250 360T300 207T419 102T618 63Q827 63 943 169T1094 469L1278 1516H1380L1192 442Q1173 330 1126 243T1007 95T839 3T623 -29ZM846 1622L562 1931H715L910 1622H846Z"/><glyph unicode="Ú" horiz-adv-x="1440" d="M623 -29Q522 -29 444 -7T310 54T218 146T164 264T145 399T156 545L326 1516H428L258 541Q241 446 250 360T300 207T419 102T618 63Q827 63 943 169T1094 469L1278 1516H1380L1192 442Q1173 330 1126 243T1007 95T839 3T623 -29ZM746 1622L973 1931H1127L809 1622H746Z"/><glyph unicode="Û" horiz-adv-x="1440" d="M623 -29Q522 -29 444 -7T310 54T218 146T164 264T145 399T156 545L326 1516H428L258 541Q241 446 250 360T300 207T419 102T618 63Q827 63 943 169T1094 469L1278 1516H1380L1192 442Q1173 330 1126 243T1007 95T839 3T623 -29ZM574 1612L883 1931H965L1163 1612H1096L903 1825L637 1612H574Z"/><glyph unicode="Ü" horiz-adv-x="1440" d="M623 -29Q522 -29 444 -7T310 54T218 146T164 264T145 399T156 545L326 1516H428L258 541Q241 446 250 360T300 207T419 102T618 63Q827 63 943 169T1094 469L1278 1516H1380L1192 442Q1173 330 1126 243T1007 95T839 3T623 -29ZM967 1622L989 1759H1120L1098 1622H967ZM643 1622L666 1759H797L774 1622H643Z"/><glyph unicode="Ý" horiz-adv-x="1210" d="M420 0L539 674L193 1516H299L602 762L1165 1516H1284L641 674L522 0H420ZM631 1622L858 1931H1012L694 1622H631Z"/><glyph unicode="Þ" horiz-adv-x="1290" d="M260 502H664Q721 502 775 507T877 527T967 566T1037 630T1083 723T1100 852Q1100 984 994 1052T668 1120H369L260 502ZM70 0L336 1516H438L387 1214H696Q826 1214 922 1188T1081 1113T1175 999T1206 854Q1206 725 1159 639T1034 502T859 430T659 408H244L172 0H70Z"/><glyph unicode="ß" horiz-adv-x="1202" d="M606 -23Q500 -23 428 3T301 80L360 147Q385 126 411 111T467 85T534 69T616 63Q688 63 747 87T848 160T913 278T936 438Q936 508 913 575T841 694T715 779T528 813L543 895Q643 896 717 918T840 980T912 1076T936 1200Q936 1251 919 1293T868 1366T782 1413T664 1430Q531 1430 446 1344T328 1077L137 0H39L231 1094Q270 1310 384 1413T670 1516Q759 1516 827 1494T941 1431T1012 1334T1036 1208Q1036 1065 958 980T723 856Q792 843 850 806T949 715T1014 590T1038 438Q1038 318 1002 231T906 87T768 4T606 -23Z"/><glyph unicode="à" horiz-adv-x="1106" d="M319 68Q425 68 538 117T760 256L823 616Q678 601 570 578T382 525T252 461T170 388T127 309T115 227Q115 153 167 111T319 68ZM305 -18Q234 -18 180 -1T88 47T33 120T14 213Q14 300 55 378T193 520T447 627T836 690L848 756Q860 816 854 863T821 944T747 994T629 1012Q570 1012 511 997T400 958T304 905T231 846L170 911Q209 945 257 978T363 1038T489 1081T637 1098Q735 1098 800 1072T902 1000T947 890T944 750L860 266Q852 221 847 187T840 123T838 64T844 0H739Q734 42 734 79T743 160Q629 75 517 29T305 -18ZM606 1192L322 1501H475L670 1192H606Z"/><glyph unicode="á" horiz-adv-x="1106" d="M319 68Q425 68 538 117T760 256L823 616Q678 601 570 578T382 525T252 461T170 388T127 309T115 227Q115 153 167 111T319 68ZM305 -18Q234 -18 180 -1T88 47T33 120T14 213Q14 300 55 378T193 520T447 627T836 690L848 756Q860 816 854 863T821 944T747 994T629 1012Q570 1012 511 997T400 958T304 905T231 846L170 911Q209 945 257 978T363 1038T489 1081T637 1098Q735 1098 800 1072T902 1000T947 890T944 750L860 266Q852 221 847 187T840 123T838 64T844 0H739Q734 42 734 79T743 160Q629 75 517 29T305 -18ZM506 1192L733 1501H887L569 1192H506Z"/><glyph unicode="â" horiz-adv-x="1106" d="M319 68Q425 68 538 117T760 256L823 616Q678 601 570 578T382 525T252 461T170 388T127 309T115 227Q115 153 167 111T319 68ZM305 -18Q234 -18 180 -1T88 47T33 120T14 213Q14 300 55 378T193 520T447 627T836 690L848 756Q860 816 854 863T821 944T747 994T629 1012Q570 1012 511 997T400 958T304 905T231 846L170 911Q209 945 257 978T363 1038T489 1081T637 1098Q735 1098 800 1072T902 1000T947 890T944 750L860 266Q852 221 847 187T840 123T838 64T844 0H739Q734 42 734 79T743 160Q629 75 517 29T305 -18ZM334 1182L643 1501H725L923 1182H856L663 1395L397 1182H334Z"/><glyph unicode="ã" horiz-adv-x="1106" d="M319 68Q425 68 538 117T760 256L823 616Q678 601 570 578T382 525T252 461T170 388T127 309T115 227Q115 153 167 111T319 68ZM305 -18Q234 -18 180 -1T88 47T33 120T14 213Q14 300 55 378T193 520T447 627T836 690L848 756Q860 816 854 863T821 944T747 994T629 1012Q570 1012 511 997T400 958T304 905T231 846L170 911Q209 945 257 978T363 1038T489 1081T637 1098Q735 1098 800 1072T902 1000T947 890T944 750L860 266Q852 221 847 187T840 123T838 64T844 0H739Q734 42 734 79T743 160Q629 75 517 29T305 -18ZM784 1188Q749 1188 712 1206T638 1245T570 1285T512 1303Q465 1303 442 1278T409 1192H332Q349 1295 391 1345T514 1395Q551 1395 589 1377T664 1338T732 1298T786 1280Q833 1280 856 1305T891 1391H969Q950 1287 906 1238T784 1188Z"/><glyph unicode="ä" horiz-adv-x="1106" d="M319 68Q425 68 538 117T760 256L823 616Q678 601 570 578T382 525T252 461T170 388T127 309T115 227Q115 153 167 111T319 68ZM305 -18Q234 -18 180 -1T88 47T33 120T14 213Q14 300 55 378T193 520T447 627T836 690L848 756Q860 816 854 863T821 944T747 994T629 1012Q570 1012 511 997T400 958T304 905T231 846L170 911Q209 945 257 978T363 1038T489 1081T637 1098Q735 1098 800 1072T902 1000T947 890T944 750L860 266Q852 221 847 187T840 123T838 64T844 0H739Q734 42 734 79T743 160Q629 75 517 29T305 -18ZM727 1192L749 1329H880L858 1192H727ZM403 1192L426 1329H557L534 1192H403Z"/><glyph unicode="å" horiz-adv-x="1106" d="M319 68Q425 68 538 117T760 256L823 616Q678 601 570 578T382 525T252 461T170 388T127 309T115 227Q115 153 167 111T319 68ZM305 -18Q234 -18 180 -1T88 47T33 120T14 213Q14 300 55 378T193 520T447 627T836 690L848 756Q860 816 854 863T821 944T747 994T629 1012Q570 1012 511 997T400 958T304 905T231 846L170 911Q209 945 257 978T363 1038T489 1081T637 1098Q735 1098 800 1072T902 1000T947 890T944 750L860 266Q852 221 847 187T840 123T838 64T844 0H739Q734 42 734 79T743 160Q629 75 517 29T305 -18ZM645 1237Q694 1237 729 1273T764 1374Q764 1416 742 1444T674 1473Q624 1473 590 1437T555 1335Q555 1293 576 1265T645 1237ZM643 1178Q604 1178 575 1190T527 1223T497 1272T487 1333Q487 1379 502 1416T544 1478T605 1518T676 1532Q714 1532 743 1520T791 1486T821 1437T831 1378Q831 1331 815 1294T773 1231T712 1192T643 1178Z"/><glyph unicode="æ" horiz-adv-x="1827" d="M305 -18Q234 -18 180 -1T88 47T33 120T14 213Q14 300 55 378T193 520T447 627T836 690L848 756Q860 816 854 863T821 944T747 994T629 1012Q570 1012 511 997T400 958T304 905T231 846L170 911Q209 945 257 978T363 1038T489 1081T637 1098Q712 1098 766 1083T857 1040T914 973T940 885Q982 940 1031 980T1131 1046T1233 1085T1331 1098Q1451 1098 1528 1053T1645 931T1692 755T1679 547L1677 532H903Q901 509 900 484T899 434Q899 330 928 260T1002 145T1100 82T1200 63Q1264 63 1315 80T1408 127T1484 198T1548 287L1626 242Q1588 181 1543 132T1444 49T1327 -4T1190 -23Q1065 -23 975 41T842 219Q794 179 731 137T596 61T450 4T305 -18ZM807 430Q807 481 811 527T823 616Q681 602 574 580T388 528T257 463T173 389T128 309T115 227Q115 153 167 111T319 68Q369 68 431 84T559 130T692 202T819 299Q807 360 807 430ZM1589 614Q1600 689 1593 761T1554 888T1467 978T1323 1012Q1260 1012 1197 987T1079 912T982 788T918 614H1589Z"/><glyph unicode="ç" horiz-adv-x="1057" d="M442 -23Q353 -23 282 11T162 106T86 253T59 440Q59 559 83 654T149 823T245 948T359 1033T480 1082T596 1098Q687 1098 750 1075T856 1013T924 921T965 811L872 786Q858 844 835 886T777 957T695 998T586 1012Q504 1012 427 976T290 867T194 688T158 440Q158 354 178 285T237 166T330 90T455 63Q516 63 563 77T651 120T727 195T801 303L877 264Q841 194 798 141T703 51T586 -4T442 -23ZM344 -395Q266 -395 209 -376T103 -322L146 -270Q166 -285 186 -297T230 -316T280 -328T342 -332Q494 -332 494 -217Q494 -189 475 -171T416 -152Q393 -152 365 -163T316 -195L269 -170L351 0H426L371 -115Q388 -102 411 -93T463 -84Q514 -84 549 -118T584 -209Q584 -266 563 -302T507 -358T429 -387T344 -395Z"/><glyph unicode="è" horiz-adv-x="1083" d="M446 -23Q359 -23 288 9T165 100T87 243T59 430Q59 549 83 645T149 815T245 942T358 1030T476 1081T588 1098Q708 1098 784 1053T901 931T949 755T936 547L934 532H160Q158 509 157 484T156 434Q156 330 185 260T259 145T357 82T457 63Q521 63 572 80T665 127T741 198T805 287L883 242Q845 181 800 132T700 49T583 -4T446 -23ZM846 614Q856 689 849 761T811 888T724 978T580 1012Q517 1012 454 987T335 912T238 788T174 614H846ZM594 1192L310 1501H463L658 1192H594Z"/><glyph unicode="é" horiz-adv-x="1083" d="M446 -23Q359 -23 288 9T165 100T87 243T59 430Q59 549 83 645T149 815T245 942T358 1030T476 1081T588 1098Q708 1098 784 1053T901 931T949 755T936 547L934 532H160Q158 509 157 484T156 434Q156 330 185 260T259 145T357 82T457 63Q521 63 572 80T665 127T741 198T805 287L883 242Q845 181 800 132T700 49T583 -4T446 -23ZM846 614Q856 689 849 761T811 888T724 978T580 1012Q517 1012 454 987T335 912T238 788T174 614H846ZM494 1192L721 1501H875L557 1192H494Z"/><glyph unicode="ê" horiz-adv-x="1083" d="M446 -23Q359 -23 288 9T165 100T87 243T59 430Q59 549 83 645T149 815T245 942T358 1030T476 1081T588 1098Q708 1098 784 1053T901 931T949 755T936 547L934 532H160Q158 509 157 484T156 434Q156 330 185 260T259 145T357 82T457 63Q521 63 572 80T665 127T741 198T805 287L883 242Q845 181 800 132T700 49T583 -4T446 -23ZM846 614Q856 689 849 761T811 888T724 978T580 1012Q517 1012 454 987T335 912T238 788T174 614H846ZM322 1182L631 1501H713L911 1182H844L651 1395L385 1182H322Z"/><glyph unicode="ë" horiz-adv-x="1083" d="M446 -23Q359 -23 288 9T165 100T87 243T59 430Q59 549 83 645T149 815T245 942T358 1030T476 1081T588 1098Q708 1098 784 1053T901 931T949 755T936 547L934 532H160Q158 509 157 484T156 434Q156 330 185 260T259 145T357 82T457 63Q521 63 572 80T665 127T741 198T805 287L883 242Q845 181 800 132T700 49T583 -4T446 -23ZM846 614Q856 689 849 761T811 888T724 978T580 1012Q517 1012 454 987T335 912T238 788T174 614H846ZM715 1192L737 1329H868L846 1192H715ZM391 1192L414 1329H545L522 1192H391Z"/><glyph unicode="ì" horiz-adv-x="467" d="M51 0L242 1075H340L150 0H51ZM287 1192L3 1501H156L351 1192H287Z"/><glyph unicode="í" horiz-adv-x="467" d="M51 0L242 1075H340L150 0H51ZM270 1192L497 1501H651L333 1192H270Z"/><glyph unicode="î" horiz-adv-x="467" d="M51 0L242 1075H340L150 0H51ZM16 1182L325 1501H407L605 1182H538L345 1395L79 1182H16Z"/><glyph unicode="ï" horiz-adv-x="467" d="M51 0L242 1075H340L150 0H51ZM409 1192L431 1329H562L540 1192H409ZM85 1192L108 1329H239L216 1192H85Z"/><glyph unicode="ð" horiz-adv-x="1147" d="M526 1257L737 1329Q700 1366 663 1395T594 1446L657 1520Q711 1485 755 1445T836 1362L1073 1444L1090 1362L889 1292Q964 1178 995 1050T1026 784Q1026 579 983 428T866 176T692 27T477 -23Q379 -23 302 10T170 104T88 249T59 434Q59 544 81 634T143 796T234 920T345 1008T466 1060T590 1077Q660 1077 715 1063T811 1023T883 959T934 874Q926 1001 888 1095T795 1262L543 1176L526 1257ZM471 63Q562 63 641 101T780 212T874 387T909 621Q909 696 890 763T829 881T725 961T573 991Q494 991 420 953T288 843T195 668T160 436Q160 360 177 292T232 173T329 93T471 63Z"/><glyph unicode="ñ" horiz-adv-x="1153" d="M39 0L229 1075H328L295 897Q332 934 382 970T487 1035T598 1080T707 1098Q798 1098 858 1072T953 1001T995 893T991 758L858 0H760L893 756Q904 817 898 865T867 945T797 995T682 1012Q634 1012 584 997T483 955T381 890T279 807L137 0H39ZM807 1188Q772 1188 735 1206T661 1245T593 1285T535 1303Q488 1303 465 1278T432 1192H355Q372 1295 414 1345T537 1395Q574 1395 612 1377T687 1338T755 1298T809 1280Q856 1280 879 1305T914 1391H992Q973 1287 929 1238T807 1188Z"/><glyph unicode="ò" horiz-adv-x="1147" d="M471 63Q559 63 639 103T779 218T875 397T911 631Q911 707 893 776T837 897T739 981T598 1012Q509 1012 430 971T290 854T195 674T160 442Q160 365 177 297T232 176T329 94T471 63ZM465 -23Q370 -23 295 10T167 105T87 250T59 436Q59 545 81 637T143 802T236 931T349 1024T475 1079T604 1098Q699 1098 774 1064T902 969T982 823T1010 637Q1010 528 988 437T926 272T835 144T721 51T595 -4T465 -23ZM626 1192L342 1501H495L690 1192H626Z"/><glyph unicode="ó" horiz-adv-x="1147" d="M471 63Q559 63 639 103T779 218T875 397T911 631Q911 707 893 776T837 897T739 981T598 1012Q509 1012 430 971T290 854T195 674T160 442Q160 365 177 297T232 176T329 94T471 63ZM465 -23Q370 -23 295 10T167 105T87 250T59 436Q59 545 81 637T143 802T236 931T349 1024T475 1079T604 1098Q699 1098 774 1064T902 969T982 823T1010 637Q1010 528 988 437T926 272T835 144T721 51T595 -4T465 -23ZM527 1192L754 1501H908L590 1192H527Z"/><glyph unicode="ô" horiz-adv-x="1147" d="M471 63Q559 63 639 103T779 218T875 397T911 631Q911 707 893 776T837 897T739 981T598 1012Q509 1012 430 971T290 854T195 674T160 442Q160 365 177 297T232 176T329 94T471 63ZM465 -23Q370 -23 295 10T167 105T87 250T59 436Q59 545 81 637T143 802T236 931T349 1024T475 1079T604 1098Q699 1098 774 1064T902 969T982 823T1010 637Q1010 528 988 437T926 272T835 144T721 51T595 -4T465 -23ZM355 1182L664 1501H746L944 1182H877L684 1395L418 1182H355Z"/><glyph unicode="õ" horiz-adv-x="1147" d="M471 63Q559 63 639 103T779 218T875 397T911 631Q911 707 893 776T837 897T739 981T598 1012Q509 1012 430 971T290 854T195 674T160 442Q160 365 177 297T232 176T329 94T471 63ZM465 -23Q370 -23 295 10T167 105T87 250T59 436Q59 545 81 637T143 802T236 931T349 1024T475 1079T604 1098Q699 1098 774 1064T902 969T982 823T1010 637Q1010 528 988 437T926 272T835 144T721 51T595 -4T465 -23ZM805 1188Q770 1188 733 1206T659 1245T591 1285T533 1303Q486 1303 463 1278T430 1192H353Q370 1295 412 1345T535 1395Q572 1395 610 1377T685 1338T753 1298T807 1280Q854 1280 877 1305T912 1391H990Q971 1287 927 1238T805 1188Z"/><glyph unicode="ö" horiz-adv-x="1147" d="M471 63Q559 63 639 103T779 218T875 397T911 631Q911 707 893 776T837 897T739 981T598 1012Q509 1012 430 971T290 854T195 674T160 442Q160 365 177 297T232 176T329 94T471 63ZM465 -23Q370 -23 295 10T167 105T87 250T59 436Q59 545 81 637T143 802T236 931T349 1024T475 1079T604 1098Q699 1098 774 1064T902 969T982 823T1010 637Q1010 528 988 437T926 272T835 144T721 51T595 -4T465 -23ZM748 1192L770 1329H901L879 1192H748ZM424 1192L447 1329H578L555 1192H424Z"/><glyph unicode="÷" horiz-adv-x="1298" d="M551 938V1098H698V938H551ZM115 618V709H1147V618H115ZM551 227V387H698V227H551Z"/><glyph unicode="ø" horiz-adv-x="1147" d="M465 -23Q378 -23 310 3T188 80L66 -63L6 -18L141 139Q101 198 80 272T59 436Q59 545 81 637T143 802T236 931T349 1024T475 1079T604 1098Q689 1098 757 1072T877 995L1006 1143L1065 1096L926 934Q966 875 988 800T1010 637Q1010 528 988 437T926 272T835 144T721 51T595 -4T465 -23ZM471 63Q559 63 639 103T779 218T875 397T911 631Q911 696 899 754T860 862L248 154Q285 110 340 87T471 63ZM598 1012Q509 1012 430 971T290 854T195 674T160 442Q160 376 171 318T209 211L819 922Q781 965 726 988T598 1012Z"/><glyph unicode="ù" horiz-adv-x="1147" d="M371 -23Q279 -23 219 3T124 74T82 182T86 317L219 1075H317L184 319Q173 258 179 211T210 130T280 80T395 63Q443 63 492 78T591 120T691 185T793 268L934 1075H1032L842 0H743L776 178Q738 140 690 104T588 40T478 -5T371 -23ZM626 1192L342 1501H495L690 1192H626Z"/><glyph unicode="ú" horiz-adv-x="1147" d="M371 -23Q279 -23 219 3T124 74T82 182T86 317L219 1075H317L184 319Q173 258 179 211T210 130T280 80T395 63Q443 63 492 78T591 120T691 185T793 268L934 1075H1032L842 0H743L776 178Q738 140 690 104T588 40T478 -5T371 -23ZM527 1192L754 1501H908L590 1192H527Z"/><glyph unicode="û" horiz-adv-x="1147" d="M371 -23Q279 -23 219 3T124 74T82 182T86 317L219 1075H317L184 319Q173 258 179 211T210 130T280 80T395 63Q443 63 492 78T591 120T691 185T793 268L934 1075H1032L842 0H743L776 178Q738 140 690 104T588 40T478 -5T371 -23ZM355 1182L664 1501H746L944 1182H877L684 1395L418 1182H355Z"/><glyph unicode="ü" horiz-adv-x="1147" d="M371 -23Q279 -23 219 3T124 74T82 182T86 317L219 1075H317L184 319Q173 258 179 211T210 130T280 80T395 63Q443 63 492 78T591 120T691 185T793 268L934 1075H1032L842 0H743L776 178Q738 140 690 104T588 40T478 -5T371 -23ZM748 1192L770 1329H901L879 1192H748ZM424 1192L447 1329H578L555 1192H424Z"/><glyph unicode="ý" horiz-adv-x="1042" d="M25 -410Q-20 -410 -60 -401T-131 -377L-94 -295Q-69 -306 -37 -315T31 -324Q107 -324 158 -278T250 -158L334 -6L123 1075H227L403 119H408L924 1075H1034L330 -190Q298 -249 268 -290T202 -358T125 -397T25 -410ZM535 1192L762 1501H916L598 1192H535Z"/><glyph unicode="þ" horiz-adv-x="1180" d="M518 68Q561 68 609 80T705 120T795 192T870 301T922 450T942 645Q942 734 920 802T857 917T761 988T639 1012Q592 1012 544 997T449 956T360 894T283 819L178 238Q213 199 248 168T323 114T410 80T518 68ZM-33 -410L305 1516H403L299 920Q327 952 366 984T452 1041T548 1082T647 1098Q736 1098 809 1069T933 983T1013 845T1042 657Q1042 534 1019 436T957 263T864 135T752 48T629 -2T506 -18Q454 -18 407 -6T317 29T236 81T164 147L66 -410H-33Z"/><glyph unicode="ÿ" horiz-adv-x="1042" d="M25 -410Q-20 -410 -60 -401T-131 -377L-94 -295Q-69 -306 -37 -315T31 -324Q107 -324 158 -278T250 -158L334 -6L123 1075H227L403 119H408L924 1075H1034L330 -190Q298 -249 268 -290T202 -358T125 -397T25 -410ZM694 1192L716 1329H847L825 1192H694ZM370 1192L393 1329H524L501 1192H370Z"/><glyph unicode="ı" horiz-adv-x="467" d="M51 0L242 1075H340L150 0H51Z"/><glyph unicode="Œ" horiz-adv-x="2259" d="M1130 0L1180 281Q1128 206 1065 149T932 52T785 -8T629 -29Q504 -29 408 19T245 153T145 354T111 606Q111 753 140 879T220 1110T341 1295T494 1431T669 1515T856 1544Q952 1544 1030 1515T1167 1433T1267 1305T1329 1139L1397 1516H2249L2232 1421H1479L1378 852H1939L1923 758H1362L1245 94H2044L2028 0H1130ZM639 63Q715 63 791 86T937 157T1067 276T1172 442T1242 655T1268 915Q1268 1036 1239 1135T1156 1305T1023 1413T844 1452Q769 1452 693 1429T547 1358T416 1240T310 1075T239 862T213 602Q213 480 242 381T326 211T460 102T639 63Z"/><glyph unicode="œ" horiz-adv-x="1919" d="M1282 -23Q1211 -23 1152 -2T1047 58T969 153T920 279Q883 204 832 147T721 53T596 -4T465 -23Q370 -23 295 10T167 105T87 250T59 436Q59 545 81 637T143 802T236 931T349 1024T475 1079T604 1098Q679 1098 741 1076T850 1015T929 919T979 793Q1019 873 1073 930T1186 1025T1307 1080T1423 1098Q1543 1098 1620 1053T1737 931T1785 755T1772 547L1769 532H995Q993 509 992 484T991 434Q991 330 1020 260T1094 145T1192 82T1292 63Q1356 63 1407 80T1500 127T1576 198T1640 287L1718 242Q1680 181 1635 132T1536 49T1419 -4T1282 -23ZM471 63Q559 63 639 103T779 218T875 397T911 631Q911 707 893 776T837 897T739 981T598 1012Q509 1012 430 971T290 854T195 674T160 442Q160 365 177 297T232 176T329 94T471 63ZM1681 614Q1692 689 1685 761T1647 888T1560 978T1415 1012Q1352 1012 1289 987T1171 912T1074 788T1010 614H1681Z"/><glyph unicode="Š" horiz-adv-x="1288" d="M569 -29Q441 -29 349 -1T196 80T104 208T66 379L168 387Q180 218 280 141T578 63Q665 63 740 84T871 147T957 254T989 406Q989 482 957 535T872 628T752 697T615 754T477 812T357 884T272 983T240 1122Q240 1217 277 1295T379 1428T527 1514T707 1544Q830 1544 916 1518T1059 1445T1146 1333T1186 1188L1083 1176Q1073 1256 1043 1309T963 1394T847 1439T698 1452Q621 1452 556 1429T444 1364T371 1264T344 1137Q344 1068 376 1020T461 936T581 871T719 815T856 755T977 677T1062 569T1094 420Q1094 302 1049 217T930 78T762 -3T569 -29ZM754 1622L555 1941H623L815 1728L1081 1941H1145L836 1622H754Z"/><glyph unicode="š" horiz-adv-x="1004" d="M395 -18Q308 -18 244 -4T132 39T51 107T-8 197L86 238Q103 203 129 172T194 118T284 82T403 68Q472 68 528 80T625 120T688 190T711 293Q711 344 687 379T622 440T530 485T424 524T319 565T227 619T162 693T137 797Q137 862 160 917T230 1013T342 1075T494 1098Q575 1098 635 1085T740 1048T818 994T877 926L793 870Q751 936 674 974T485 1012Q423 1012 377 997T301 954T255 892T240 817Q240 765 264 730T329 669T420 624T525 586T630 545T722 492T786 416T811 309Q811 219 777 157T686 56T554 0T395 -18ZM539 1192L340 1511H408L600 1298L866 1511H930L621 1192H539Z"/><glyph unicode="Ÿ" horiz-adv-x="1210" d="M420 0L539 674L193 1516H299L602 762L1165 1516H1284L641 674L522 0H420ZM852 1622L874 1759H1005L983 1622H852ZM528 1622L551 1759H682L659 1622H528Z"/><glyph unicode="Ž" horiz-adv-x="1239" d="M-41 0L-27 76L1120 1427H272L287 1516H1262L1249 1440L102 88H1012L995 0H-41ZM729 1622L530 1941H598L790 1728L1056 1941H1120L811 1622H729Z"/><glyph unicode="ž" horiz-adv-x="1004" d="M-43 0L-31 68L793 989H186L203 1075H940L928 1008L100 86H788L774 0H-43ZM539 1192L340 1511H408L600 1298L866 1511H930L621 1192H539Z"/><glyph unicode="ƒ" horiz-adv-x="641" d="M-256 -410L-238 -319Q-227 -321 -209 -321T-174 -322Q-93 -322 -36 -285T37 -160L219 864H31L45 952H233L287 1257Q311 1397 396 1456T627 1516H680L662 1425Q651 1427 632 1427T598 1427Q516 1427 459 1390T385 1266L332 952H569L555 864H317L135 -152Q123 -222 96 -271T27 -351T-72 -396T-203 -410H-256Z"/><glyph unicode="ˆ" horiz-adv-x="1004" d="M283 1182L592 1501H674L872 1182H805L612 1395L346 1182H283Z"/><glyph unicode="ˇ" horiz-adv-x="1004" d="M539 1192L340 1511H408L600 1298L866 1511H930L621 1192H539Z"/><glyph unicode="˚" horiz-adv-x="1085" d="M635 1237Q684 1237 719 1273T754 1374Q754 1416 732 1444T664 1473Q614 1473 580 1437T545 1335Q545 1293 566 1265T635 1237ZM633 1178Q594 1178 565 1190T517 1223T487 1272T477 1333Q477 1379 492 1416T534 1478T595 1518T666 1532Q704 1532 733 1520T781 1486T811 1437T821 1378Q821 1331 805 1294T763 1231T702 1192T633 1178Z"/><glyph unicode="˜" horiz-adv-x="1004" d="M733 1188Q698 1188 661 1206T587 1245T519 1285T461 1303Q414 1303 391 1278T358 1192H281Q298 1295 340 1345T463 1395Q500 1395 538 1377T613 1338T681 1298T735 1280Q782 1280 805 1305T840 1391H918Q899 1287 855 1238T733 1188Z"/><glyph unicode="̄" horiz-adv-x="1004" d="M311 1192L328 1286H864L848 1192H311Z"/><glyph unicode="μ" horiz-adv-x="1155" d="M-33 -410L227 1075H326L193 319Q182 258 187 211T218 130T288 80T403 63Q451 63 500 78T600 120T700 185T801 268L942 1075H1040L850 0H752L784 178Q746 140 698 104T596 40T486 -5T379 -23Q297 -23 236 3T154 88L66 -410H-33Z"/><glyph unicode="–" horiz-adv-x="1290" d="M115 596L131 690H1135L1118 596H115Z"/><glyph unicode="—" horiz-adv-x="1864" d="M115 596L131 690H1708L1692 596H115Z"/><glyph unicode="‘" horiz-adv-x="543" d="M272 1153L299 1305L416 1516H461L385 1317H438L410 1153H272Z"/><glyph unicode="’" horiz-adv-x="543" d="M285 1153L360 1352H307L336 1516H473L446 1364L330 1153H285Z"/><glyph unicode="‚" horiz-adv-x="543" d="M47 -199L123 0H70L98 164H236L209 12L92 -199H47Z"/><glyph unicode="“" horiz-adv-x="874" d="M604 1153L631 1305L748 1516H793L717 1317H770L741 1153H604ZM272 1153L299 1305L416 1516H461L385 1317H438L410 1153H272Z"/><glyph unicode="”" horiz-adv-x="874" d="M616 1153L692 1352H639L668 1516H805L778 1364L662 1153H616ZM285 1153L360 1352H307L336 1516H473L446 1364L330 1153H285Z"/><glyph unicode="„" horiz-adv-x="874" d="M379 -199L455 0H401L430 164H567L541 12L424 -199H379ZM47 -199L123 0H70L98 164H236L209 12L92 -199H47Z"/><glyph unicode="†" horiz-adv-x="1112" d="M295 -410L545 893L129 874L147 975L555 954L633 1516H745L627 954L1042 975L1024 874L616 893L408 -410H295Z"/><glyph unicode="‡" horiz-adv-x="1112" d="M295 -410L403 96L0 76L16 176L416 158L473 559L555 950L150 932L168 1032L565 1012L633 1516H745L637 1012L1042 1032L1024 932L627 950L569 559L487 158L891 176L874 76L475 96L408 -410H295Z"/><glyph unicode="•" horiz-adv-x="948" d="M434 485Q384 485 342 502T269 551T221 624T203 717Q203 768 220 810T268 884T341 932T434 950Q485 950 527 933T601 884T650 811T668 717Q668 667 651 625T602 551T528 503T434 485Z"/><glyph unicode="…" horiz-adv-x="1628" d="M1157 0L1186 164H1323L1294 0H1157ZM614 0L643 164H780L752 0H614ZM72 0L100 164H238L209 0H72Z"/><glyph unicode="‰" horiz-adv-x="2718" d="M322 0L1473 1516H1579L428 0H322ZM2148 68Q2209 68 2262 103T2354 199T2415 344T2437 522Q2437 579 2427 626T2394 708T2337 762T2253 782Q2192 782 2140 747T2048 650T1987 505T1964 328Q1964 271 1975 223T2009 141T2066 87T2148 68ZM2142 -20Q2071 -20 2018 5T1931 76T1879 182T1862 317Q1862 452 1897 555T1989 728T2117 834T2261 870Q2331 870 2383 845T2469 775T2520 667T2537 528Q2537 404 2505 303T2419 130T2293 19T2142 -20ZM1331 68Q1392 68 1445 103T1537 199T1598 344T1620 522Q1620 579 1610 626T1577 708T1520 762T1436 782Q1375 782 1323 747T1231 650T1170 505T1147 328Q1147 271 1158 223T1192 141T1249 87T1331 68ZM1325 -20Q1254 -20 1201 5T1113 76T1061 182T1044 317Q1044 452 1079 555T1172 728T1300 834T1444 870Q1514 870 1566 845T1652 775T1703 667T1720 528Q1720 404 1688 303T1602 130T1476 19T1325 -20ZM467 733Q528 733 581 768T673 865T734 1010T756 1188Q756 1245 746 1292T713 1374T655 1428T571 1448Q511 1448 459 1413T367 1315T306 1170T283 993Q283 936 294 889T328 807T385 753T467 733ZM461 645Q389 645 337 670T249 741T197 848T180 983Q180 1117 215 1220T308 1394T436 1500T580 1536Q650 1536 702 1511T788 1441T839 1333T856 1194Q856 1069 824 968T738 795T612 684T461 645Z"/><glyph unicode="‹" horiz-adv-x="641" d="M264 0L63 539L455 1075H563L176 539L373 0H264Z"/><glyph unicode="›" horiz-adv-x="641" d="M0 0L387 539L190 1075H299L500 539L109 0H0Z"/><glyph unicode="⁄" horiz-adv-x="918" d="M-168 0L979 1516H1085L-61 0H-168Z"/><glyph unicode="⁰" horiz-adv-x="938" d="M459 561Q385 561 331 587T240 660T186 772T168 918Q168 1037 196 1147T277 1343T409 1480T588 1532Q661 1532 715 1505T805 1430T859 1315T877 1167Q877 1047 849 938T766 745T635 611T459 561ZM465 641Q543 641 603 684T703 799T765 965T786 1163Q786 1297 735 1373T584 1450Q506 1450 445 1406T342 1288T278 1119T256 922Q256 787 310 714T465 641Z"/><glyph unicode="⁴" horiz-adv-x="870" d="M561 809H129L139 870L674 1516H772L664 895H817L803 809H649L608 578H520L561 809ZM575 895L662 1384L254 895H575Z"/><glyph unicode="⁵" horiz-adv-x="852" d="M410 561Q351 561 304 577T220 620T158 685T115 766L193 799Q207 764 226 735T273 685T335 653T418 641Q479 641 528 662T611 720T664 808T682 920Q682 964 669 999T633 1060T576 1098T502 1112Q436 1112 388 1086T293 1006L215 1040L328 1516H825L803 1427H395L315 1112Q349 1147 400 1170T526 1194Q580 1194 625 1174T702 1119T752 1035T770 928Q770 845 742 776T665 659T551 584T410 561Z"/><glyph unicode="⁶" horiz-adv-x="885" d="M446 561Q385 561 334 584T246 651T189 761T168 913Q168 994 182 1071T222 1217T286 1344T372 1443T478 1508T602 1532Q692 1532 755 1504T864 1430L807 1370Q764 1408 714 1430T598 1452Q533 1452 479 1421T381 1337T309 1212T265 1058Q320 1110 391 1144T539 1178Q611 1178 661 1158T742 1103T788 1022T803 924Q803 846 776 780T700 665T587 589T446 561ZM532 1096Q497 1096 461 1088T389 1063T319 1021T255 962Q254 951 254 941T254 920Q254 846 271 794T316 708T382 659T459 643Q509 643 555 661T636 715T692 802T713 918Q713 955 703 987T670 1044T614 1082T532 1096Z"/><glyph unicode="⁷" horiz-adv-x="821" d="M719 1427H246L260 1516H834L821 1444L272 578H178L719 1427Z"/><glyph unicode="⁸" horiz-adv-x="883" d="M434 561Q354 561 295 580T196 632T137 707T117 795Q117 850 134 891T186 966T271 1028T389 1085Q359 1104 333 1125T287 1171T256 1225T246 1290Q246 1345 271 1389T338 1465T438 1514T559 1532Q629 1532 680 1513T766 1464T816 1394T831 1313Q831 1266 818 1232T775 1170T700 1118T592 1069Q630 1047 665 1022T728 968T771 903T788 823Q788 763 761 715T687 633T575 580T434 561ZM440 641Q488 641 534 651T616 683T674 738T696 817Q696 858 676 889T623 947T548 997T463 1044Q398 1016 350 991T271 939T223 879T207 803Q207 769 223 740T269 688T342 654T440 641ZM518 1108Q580 1133 622 1156T691 1202T729 1251T741 1309Q741 1335 731 1360T697 1405T637 1437T547 1450Q502 1450 463 1439T396 1408T352 1359T336 1294Q336 1264 351 1239T391 1191T449 1148T518 1108Z"/><glyph unicode="⁹" horiz-adv-x="885" d="M389 561Q299 561 236 589T127 664L184 723Q228 685 277 663T393 641Q457 641 512 671T609 755T681 880T725 1035Q670 982 599 949T453 915Q381 915 331 935T249 990T203 1071T188 1169Q188 1247 215 1313T291 1428T404 1504T545 1532Q606 1532 657 1509T745 1442T802 1332T823 1180Q823 1058 793 947T705 749T568 612T389 561ZM459 997Q528 997 601 1030T736 1130Q736 1141 736 1152T737 1174Q737 1247 720 1299T675 1385T609 1434T532 1450Q482 1450 437 1432T356 1378T300 1291T279 1176Q279 1138 289 1106T321 1049T377 1011T459 997Z"/><glyph unicode="₀" horiz-adv-x="938" d="M288 -425Q214 -425 160 -399T69 -326T15 -214T-3 -68Q-3 51 25 161T106 357T238 494T417 546Q490 546 544 519T634 444T688 329T706 181Q706 61 678 -48T595 -241T464 -375T288 -425ZM294 -345Q372 -345 432 -302T532 -187T594 -21T615 177Q615 311 564 387T413 464Q335 464 274 420T171 302T107 133T85 -64Q85 -199 139 -272T294 -345Z"/><glyph unicode="₁" horiz-adv-x="698" d="M-17 -322H157L288 417Q250 401 204 393T112 384L126 470Q189 472 236 485T318 530H398L249 -322H407L392 -408H-32L-17 -322Z"/><glyph unicode="₂" horiz-adv-x="899" d="M-50 -372Q-36 -290 -2 -230T79 -124T179 -44T288 19T394 76T484 137T546 213T570 314Q570 345 560 372T530 420T480 452T409 464Q373 464 341 457T278 432T219 385T161 310L87 351Q121 406 160 444T242 506T329 539T417 550Q478 550 524 532T602 482T649 407T665 314Q665 250 643 202T585 116T501 48T401 -10T296 -68T197 -132T113 -213T56 -318H556L542 -408H-56L-50 -372Z"/><glyph unicode="₃" horiz-adv-x="899" d="M259 -427Q145 -427 69 -377T-46 -230L32 -189Q50 -233 74 -262T129 -308T196 -332T275 -339Q326 -339 369 -325T443 -283T493 -217T511 -128Q512 -87 499 -54T458 2T384 39T275 52H204L218 130H298Q361 130 411 140T498 172T553 230T572 319Q572 348 563 374T532 420T476 452T394 464Q334 464 278 438T167 355L110 409Q179 483 251 516T409 550Q480 550 529 531T609 480T653 410T667 331Q667 237 614 176T464 87Q538 62 572 11T607 -112Q607 -180 583 -238T513 -338T403 -403T259 -427Z"/><glyph unicode="₄" horiz-adv-x="870" d="M390 -177H-42L-32 -116L503 530H601L493 -91H646L632 -177H478L437 -408H349L390 -177ZM404 -91L491 398L83 -91H404Z"/><glyph unicode="₅" horiz-adv-x="852" d="M239 -425Q180 -425 133 -409T49 -366T-13 -301T-56 -220L22 -187Q36 -222 55 -251T102 -301T164 -333T247 -345Q308 -345 357 -324T440 -266T493 -178T511 -66Q511 -22 498 13T462 74T405 112T331 126Q265 126 217 100T122 20L44 54L157 530H654L632 441H224L144 126Q178 161 229 184T355 208Q409 208 454 188T531 133T581 49T599 -58Q599 -141 571 -210T494 -327T380 -402T239 -425Z"/><glyph unicode="₆" horiz-adv-x="885" d="M275 -425Q214 -425 163 -402T75 -335T18 -225T-3 -73Q-3 8 11 85T51 231T115 358T201 457T307 522T431 546Q521 546 584 518T693 444L636 384Q593 422 543 444T427 466Q362 466 308 435T210 351T138 226T94 72Q149 124 220 158T368 192Q440 192 490 172T571 117T617 36T632 -62Q632 -140 605 -206T529 -321T416 -397T275 -425ZM361 110Q326 110 290 102T218 77T148 35T84 -24Q83 -35 83 -45T83 -66Q83 -140 100 -192T145 -278T211 -327T288 -343Q338 -343 384 -325T465 -271T521 -184T542 -68Q542 -31 532 1T499 58T443 96T361 110Z"/><glyph unicode="₇" horiz-adv-x="821" d="M548 441H75L89 530H663L650 458L101 -408H7L548 441Z"/><glyph unicode="₈" horiz-adv-x="883" d="M263 -425Q183 -425 124 -406T25 -354T-34 -279T-54 -191Q-54 -136 -37 -95T15 -20T100 42T218 99Q188 118 162 139T116 185T85 239T75 304Q75 359 100 403T167 479T267 528T388 546Q458 546 509 527T595 478T645 408T660 327Q660 280 647 246T604 184T529 132T421 83Q459 61 494 36T557 -18T600 -83T617 -163Q617 -223 590 -271T516 -353T404 -406T263 -425ZM269 -345Q317 -345 363 -335T445 -303T503 -248T525 -169Q525 -128 505 -97T452 -39T377 11T292 58Q227 30 179 5T100 -47T52 -107T36 -183Q36 -217 52 -246T98 -298T171 -332T269 -345ZM347 122Q409 147 451 170T520 216T558 265T570 323Q570 349 560 374T526 419T466 451T376 464Q331 464 292 453T225 422T181 373T165 308Q165 278 180 253T220 205T278 162T347 122Z"/><glyph unicode="₉" horiz-adv-x="885" d="M218 -425Q128 -425 65 -397T-44 -322L13 -263Q57 -301 106 -323T222 -345Q286 -345 341 -315T438 -231T510 -106T554 49Q499 -4 428 -37T282 -71Q210 -71 160 -51T78 4T32 85T17 183Q17 261 44 327T120 442T233 518T374 546Q435 546 486 523T574 456T631 346T652 194Q652 72 622 -39T534 -237T397 -374T218 -425ZM288 11Q357 11 430 44T565 144Q565 155 565 166T566 188Q566 261 549 313T504 399T438 448T361 464Q311 464 266 446T185 392T129 305T108 190Q108 152 118 120T150 63T206 25T288 11Z"/><glyph unicode="€" horiz-adv-x="1438" d="M752 -29Q650 -29 562 5T410 112T309 295T272 559H8L25 651H274Q278 708 284 761T301 866H63L80 958H322Q359 1093 420 1201T559 1386T731 1503T926 1544Q1043 1544 1121 1512T1249 1422T1323 1284T1356 1106L1253 1098Q1246 1183 1228 1249T1171 1360T1071 1428T918 1452Q830 1452 754 1417T614 1317T503 1161T424 958H930L913 866H401Q390 815 384 761T375 651H874L858 559H373Q373 311 474 187T758 63Q829 63 887 89T995 165T1086 287T1169 451L1255 416Q1215 316 1164 234T1050 94T913 3T752 -29Z"/><glyph unicode="™" horiz-adv-x="1772" d="M403 649V1440H127V1516H762V1440H485V649H403ZM922 649V1516H1026L1311 758L1597 1516H1704V649H1618V1356L1346 649H1274L1001 1356V649H922Z"/><glyph unicode="∕" horiz-adv-x="918" d="M-168 0L979 1516H1085L-61 0H-168Z"/><glyph unicode="∙" horiz-adv-x="543" d="M168 561L197 725H334L305 561H168Z"/><glyph unicode="ﬀ" horiz-adv-x="1241" d="M287 987H98L115 1075H303L338 1278Q350 1346 375 1392T435 1465T516 1504T612 1516Q618 1516 632 1515T661 1512T691 1508T711 1505L692 1417Q678 1420 653 1423T606 1427Q568 1427 540 1419T491 1393T457 1346T436 1272L401 1075H924L958 1278Q970 1346 995 1392T1056 1465T1137 1504T1233 1516Q1239 1516 1253 1515T1282 1512T1311 1508T1331 1505L1313 1417Q1299 1420 1274 1423T1227 1427Q1188 1427 1160 1419T1111 1393T1078 1346T1057 1272L1022 1075H1239L1223 987H1006L831 0H733L907 987H385L211 0H113L287 987Z"/><glyph unicode="ﬁ" horiz-adv-x="1087" d="M113 0L287 987H98L115 1075H303L338 1278Q350 1346 375 1392T435 1465T516 1504T612 1516Q618 1516 632 1515T661 1512T691 1508T711 1505L692 1417Q678 1420 653 1423T606 1427Q568 1427 540 1419T491 1393T457 1346T436 1272L401 1075H618L602 987H385L211 0H113ZM672 0L862 1075H961L770 0H672ZM905 1350L928 1475H1034L1012 1350H905Z"/><glyph unicode="ﬂ" horiz-adv-x="1087" d="M113 0L287 987H98L115 1075H303L338 1278Q350 1346 375 1392T435 1465T516 1504T612 1516Q618 1516 632 1515T661 1512T691 1508T711 1505L692 1417Q678 1420 653 1423T606 1427Q568 1427 540 1419T491 1393T457 1346T436 1272L401 1075H618L602 987H385L211 0H113ZM672 0L938 1516H1036L770 0H672Z"/><glyph unicode="ﬃ" horiz-adv-x="1708" d="M287 987H98L115 1075H303L338 1278Q350 1346 375 1392T435 1465T516 1504T612 1516Q618 1516 632 1515T661 1512T691 1508T711 1505L692 1417Q678 1420 653 1423T606 1427Q568 1427 540 1419T491 1393T457 1346T436 1272L401 1075H924L958 1278Q970 1346 995 1392T1056 1465T1137 1504T1233 1516Q1239 1516 1253 1515T1282 1512T1311 1508T1331 1505L1313 1417Q1299 1420 1274 1423T1227 1427Q1188 1427 1160 1419T1111 1393T1078 1346T1057 1272L1022 1075H1239L1223 987H1006L831 0H733L907 987H385L211 0H113L287 987ZM1483 1075H1581L1391 0H1292L1483 1075ZM1548 1475H1655L1632 1350H1526L1548 1475Z"/><glyph unicode="ﬄ" horiz-adv-x="1708" d="M326 987H137L154 1075H342L377 1278Q389 1346 414 1392T474 1465T555 1504T651 1516Q657 1516 671 1515T700 1512T730 1508T750 1505L731 1417Q717 1420 692 1423T645 1427Q607 1427 579 1419T530 1393T496 1346T475 1272L440 1075H963L997 1278Q1009 1346 1034 1392T1095 1465T1176 1504T1272 1516Q1278 1516 1292 1515T1321 1512T1350 1508T1370 1505L1352 1417Q1338 1420 1313 1423T1266 1427Q1227 1427 1199 1419T1150 1393T1117 1346T1096 1272L1061 1075H1278L1262 987H1044L870 0H772L946 987H424L250 0H152L326 987ZM1597 1516H1696L1430 0H1331L1597 1516Z"/></font>
</defs>
</svg>
