<?xml version="1.0" encoding="UTF-8"?><svg xmlns="http://www.w3.org/2000/svg" width="100%" height="100%"><defs><font id="web" horiz-adv-x="1228"><!--



NOTICE: This font software is the valuable property 
of Webtype LLC, The Font Bureau, Webtype and/or its 
suppliers and its use by you is covered under the terms 
of the Web Font license agreement between you and Webtype 
LLC. You may ONLY use this font software with the licensed 
web site. Except as specifically permitted by the license, 
you may not copy this font software. If you have any 
questions, please contact Webtype.com. 

For more information, please visit http://www.webtype.com/store/license/?id=23

Licensed to: www.sap.com

Serial number: SH-688
--><font-face font-family="" units-per-em="2048" panose-1="2 0 5 3 0 0 0 2 0 4" ascent="2031" descent="-602" alphabetic="0"/><missing-glyph horiz-adv-x="1024" d="M0 1434H1024V0H0V1434ZM102 102H922V1331H102V102Z"/><glyph unicode=" " horiz-adv-x="551"/><glyph unicode="!" horiz-adv-x="748" d="M119 303H471L418 0H66L119 303ZM303 1516H715L451 479H205L303 1516Z"/><glyph unicode="&quot;" horiz-adv-x="942" d="M606 965L641 1366L668 1516H946L920 1366L815 965H606ZM205 965L240 1366L266 1516H545L518 1366L414 965H205Z"/><glyph unicode="#" horiz-adv-x="1563" d="M193 0L270 383H47V625H322L377 893H135V1135H428L510 1516H803L723 1135H952L1034 1516H1327L1247 1135H1503V893H1196L1141 625H1415V383H1090L1010 0H717L795 383H567L485 0H193ZM616 625H846L901 893H674L616 625Z"/><glyph unicode="$" horiz-adv-x="1378" d="M428 -190L459 -6Q309 25 194 113T2 356L260 471Q277 436 299 399T352 328T420 266T508 221L588 666Q516 694 445 727T317 805T225 913T190 1063Q190 1150 214 1219T278 1340T372 1430T484 1490T604 1525T721 1536H731L756 1677H952L924 1518Q1069 1490 1162 1411T1309 1190L1057 1092Q1025 1169 979 1212T874 1278L803 866Q876 838 950 804T1084 721T1181 602T1219 436Q1219 351 1196 284T1132 167T1036 80T919 21T788 -13T653 -25L625 -190H428ZM913 414Q913 445 901 471T868 520T818 560T754 596L684 205Q803 214 858 267T913 414ZM496 1104Q496 1045 534 1005T635 934L698 1303Q649 1303 611 1287T548 1244T509 1180T496 1104Z"/><glyph unicode="%" horiz-adv-x="2234" d="M393 0L1559 1516H1843L678 0H393ZM1655 188Q1686 188 1712 207T1758 260T1795 336T1821 427T1837 522T1843 614Q1843 680 1819 721T1737 762Q1706 762 1680 743T1632 691T1595 615T1568 524T1552 429T1546 338Q1546 270 1571 229T1655 188ZM1645 -20Q1553 -20 1485 9T1371 91T1304 215T1282 373Q1282 519 1321 631T1425 819T1575 934T1749 973Q1841 973 1909 944T2021 861T2087 735T2109 575Q2109 432 2070 322T1967 135T1819 20T1645 -20ZM504 756Q535 756 561 776T607 829T644 905T670 996T686 1092T692 1184Q692 1250 669 1289T586 1329Q554 1329 528 1310T480 1258T443 1182T417 1091T401 996T395 905Q395 839 420 798T504 756ZM492 549Q400 549 332 578T220 659T153 784T131 942Q131 1088 170 1199T274 1387T423 1501T598 1540Q689 1540 757 1511T869 1430T936 1305T958 1145Q958 1001 919 890T816 704T667 589T492 549Z"/><glyph unicode="&amp;" horiz-adv-x="1501" d="M520 -29Q374 -29 269 0T95 81T-6 202T-39 352Q-39 463 -3 543T92 680T229 776T389 848Q367 919 356 987T344 1120Q344 1214 375 1292T464 1426T605 1513T791 1544Q900 1544 975 1517T1097 1446T1163 1346T1184 1233Q1184 1129 1147 1056T1048 929T909 839T748 770Q763 741 780 711T819 651Q863 588 899 537T967 444Q1019 517 1061 602T1130 780H1411Q1368 632 1302 509T1151 289Q1201 266 1262 257T1407 248L1360 -20Q1226 -20 1119 4T918 88Q824 31 723 1T520 -29ZM541 201Q646 201 733 244Q688 295 644 356T553 492Q530 529 508 568T467 649Q429 628 399 603T346 548T311 481T299 399Q299 355 313 319T358 257T433 216T541 201ZM653 1122Q653 1085 658 1043T678 952Q728 974 770 999T843 1055T891 1127T909 1219Q909 1266 886 1297T807 1329Q776 1329 748 1317T699 1280T666 1216T653 1122Z"/><glyph unicode="'" horiz-adv-x="541" d="M205 965L240 1366L266 1516H545L518 1366L414 965H205Z"/><glyph unicode="(" horiz-adv-x="827" d="M410 -408Q322 -316 254 -220T140 -21T69 191T45 420Q45 608 94 771T237 1076T463 1343T762 1577L887 1407Q776 1316 684 1202T526 956T424 679T387 383Q387 194 443 28T598 -274L410 -408Z"/><glyph unicode=")" horiz-adv-x="827" d="M-127 -250Q-15 -159 79 -43T241 206T347 485T385 784Q385 970 331 1132T180 1430L360 1573Q448 1481 516 1385T631 1187T702 976T727 750Q727 561 677 398T534 91T307 -176T8 -412L-127 -250Z"/><glyph unicode="*" horiz-adv-x="1040" d="M647 602L553 926L358 651L205 782L442 1022L106 1057L139 1247L469 1165L328 1473L514 1542L604 1217L803 1493L956 1362L717 1120L1053 1085L1020 895L692 977L834 672L647 602Z"/><glyph unicode="+" horiz-adv-x="1323" d="M526 178V588H133V848H526V1257H788V848H1182V588H788V178H526Z"/><glyph unicode="," horiz-adv-x="578" d="M-14 -246L117 0H-18L37 317H389L342 45L139 -246H-14Z"/><glyph unicode="-" horiz-adv-x="731" d="M59 532L100 754H637L596 532H59Z"/><glyph unicode="." horiz-adv-x="578" d="M-18 0L37 317H389L334 0H-18Z"/><glyph unicode="/" horiz-adv-x="1327" d="M-84 0L1063 1516H1415L268 0H-84Z"/><glyph unicode="0" horiz-adv-x="1405" d="M633 231Q698 231 752 260T848 341T922 461T975 610T1006 776T1016 948Q1016 1105 957 1191T776 1278Q712 1278 659 1249T564 1170T490 1051T437 903T406 738T395 567Q395 407 453 319T633 231ZM623 -29Q480 -29 375 16T202 144T100 339T66 588Q66 733 92 860T165 1094T279 1283T426 1425T599 1513T791 1544Q932 1544 1036 1498T1209 1370T1312 1175T1346 926Q1346 706 1289 530T1134 229T904 38T623 -29Z"/><glyph unicode="1" horiz-adv-x="938" d="M-66 0L-18 260H254L422 1214Q392 1200 357 1188T285 1166T211 1151T141 1145L188 1417Q276 1420 350 1444T483 1516H799L578 260H817L770 0H-66Z"/><glyph unicode="2" horiz-adv-x="1237" d="M-78 0L-74 33Q-55 182 -5 290T116 477T270 612T438 711T602 793T742 875T840 974T877 1108Q877 1142 866 1171T832 1222T773 1256T688 1268Q652 1268 612 1258T529 1225T442 1166T356 1077L152 1255Q266 1401 409 1472T715 1544Q840 1544 933 1515T1087 1433T1178 1309T1208 1153Q1208 1042 1172 957T1077 806T942 690T786 598T627 519T485 444T377 361T324 260H1061L1014 0H-78Z"/><glyph unicode="3" horiz-adv-x="1255" d="M539 -29Q422 -29 332 -11T169 45T39 138T-70 268L174 440Q205 392 243 355T326 291T420 250T520 236Q578 236 627 249T714 292T772 367T793 479Q793 582 712 626T469 670H408L449 913H514Q632 913 703 931T813 979T864 1048T877 1128Q877 1159 866 1185T830 1230T764 1261T662 1272Q629 1272 588 1266T504 1245T418 1208T336 1153L180 1362Q296 1459 422 1500T698 1542Q833 1542 930 1516T1092 1443T1186 1331T1217 1188Q1217 1104 1192 1039T1121 925T1008 844T858 793Q928 781 980 750T1066 675T1118 575T1135 459Q1135 373 1112 304T1047 180T949 86T826 22T686 -16T539 -29Z"/><glyph unicode="4" horiz-adv-x="1350" d="M629 0L682 297H-33L8 539L852 1516H1204L1036 559H1292L1247 297H991L938 0H629ZM352 559H727L825 1116H821L352 559Z"/><glyph unicode="5" horiz-adv-x="1227" d="M528 -29Q409 -29 320 -12T161 36T40 107T-55 193L152 399Q186 365 225 336T309 284T406 249T520 236Q587 236 642 256T735 317T794 417T815 555Q815 606 801 647T759 717T686 762T580 778Q505 778 440 741T307 633L106 700L309 1516H1208L1147 1264H520L432 928Q452 946 480 962T544 992T619 1014T705 1022Q821 1022 905 989T1044 897T1125 759T1151 586Q1151 432 1101 317T966 125T768 10T528 -29Z"/><glyph unicode="6" horiz-adv-x="1319" d="M627 -29Q489 -29 384 12T207 132T98 321T61 571Q61 733 91 868T173 1112T296 1301T450 1436T623 1517T805 1544Q896 1544 971 1534T1105 1507T1209 1467T1286 1421L1135 1182Q1069 1225 993 1249T809 1274Q734 1274 669 1245T552 1158T461 1018T401 829Q433 854 475 880T569 928T680 963T809 977Q899 977 975 951T1106 874T1192 748T1223 573Q1223 474 1200 391T1136 241T1039 124T917 39T777 -12T627 -29ZM700 731Q650 731 606 722T521 697T445 660T377 614V551Q377 451 399 388T457 288T540 237T635 223Q699 223 749 248T833 317T885 418T903 537Q903 576 894 611T861 673T798 715T700 731Z"/><glyph unicode="7" horiz-adv-x="1083" d="M27 0L815 1249H115L160 1516H1200L1157 1270L365 0H27Z"/><glyph unicode="8" horiz-adv-x="1307" d="M600 -29Q445 -29 331 1T141 83T28 208T-10 367Q-10 457 25 528T118 652T249 744T399 807Q356 835 319 868T255 941T213 1026T197 1128Q197 1216 234 1292T340 1424T507 1512T727 1544Q877 1544 980 1511T1148 1425T1241 1304T1270 1169Q1270 1086 1240 1024T1164 915T1061 838T950 784Q1001 754 1048 719T1130 641T1187 544T1208 424Q1208 305 1160 219T1029 78T835 -3T600 -29ZM332 393Q332 355 347 320T394 258T474 215T590 199Q650 199 701 215T789 261T848 332T870 424Q870 467 850 502T794 568T713 626T616 680Q551 653 499 623T409 557T352 481T332 393ZM942 1149Q942 1177 932 1206T899 1258T836 1296T737 1311Q683 1311 642 1296T572 1254T530 1194T516 1124Q516 1086 532 1054T577 995T644 943T727 895Q788 924 829 955T895 1019T931 1084T942 1149Z"/><glyph unicode="9" horiz-adv-x="1319" d="M520 -29Q428 -29 354 -19T220 9T115 49T39 94L193 322Q257 278 333 253T516 227Q591 227 656 258T772 349T862 493T922 686Q890 660 848 635T755 588T644 554T516 541Q426 541 350 567T219 643T133 769T102 944Q102 1043 125 1125T189 1275T286 1392T408 1476T548 1527T698 1544Q836 1544 941 1503T1118 1383T1227 1194T1264 944Q1264 782 1235 647T1155 403T1034 214T881 79T706 -2T520 -29ZM625 784Q674 784 718 793T802 818T878 854T946 899Q948 916 948 932T948 965Q948 1062 926 1124T868 1222T785 1272T690 1286Q625 1286 576 1262T492 1196T440 1098T422 979Q422 940 431 905T464 842T526 800T625 784Z"/><glyph unicode=":" horiz-adv-x="604" d="M131 774L188 1092H541L483 774H131ZM-4 0L51 317H403L348 0H-4Z"/><glyph unicode=";" horiz-adv-x="604" d="M131 774L188 1092H541L483 774H131ZM-4 -246L125 0H-4L51 317H403L356 53L147 -246H-4Z"/><glyph unicode="&lt;" horiz-adv-x="1323" d="M111 575V754L1194 1229V961L461 664L1194 369V98L111 575Z"/><glyph unicode="=" horiz-adv-x="1323" d="M133 788V1022H1167V788H133ZM133 322V555H1167V322H133Z"/><glyph unicode="&gt;" horiz-adv-x="1323" d="M117 98V369L850 664L117 961V1229L1200 754V575L117 98Z"/><glyph unicode="?" horiz-adv-x="1198" d="M250 0L303 303H655L602 0H250ZM375 475Q377 525 381 562T393 639Q404 705 429 751T489 831T567 890T659 938Q699 956 735 974T798 1016T842 1071T858 1145Q858 1176 848 1201T816 1245T759 1274T674 1284Q632 1284 586 1274T494 1246T404 1199T324 1135L156 1325Q210 1378 275 1419T411 1487T556 1529T705 1544Q834 1544 926 1516T1076 1439T1162 1327T1190 1192Q1190 1120 1175 1067T1133 975T1072 908T998 859T918 818T838 778Q790 752 755 727T697 668T662 588T645 475H375Z"/><glyph unicode="@" horiz-adv-x="1778" d="M807 528Q852 528 895 551T973 610L1024 926Q990 964 958 980T877 997Q827 997 789 970T726 899T689 797T676 680Q676 608 704 568T807 528ZM874 -29Q694 -29 549 29T303 192T147 441T92 756Q92 869 118 971T193 1161T314 1319T474 1440T670 1517T897 1544Q1077 1544 1224 1487T1476 1329T1638 1087T1696 778Q1696 675 1669 590T1591 443T1465 347T1294 313Q1232 313 1187 326T1110 363T1056 420T1022 494Q994 465 962 437T890 387T803 352T698 338Q636 338 586 359T499 420T444 518T424 653Q424 780 455 881T540 1054T665 1163T817 1202Q865 1202 902 1194T967 1172T1016 1138T1055 1098L1069 1186H1317L1217 575Q1206 512 1231 479T1329 446Q1378 446 1418 467T1488 530T1534 632T1550 770Q1550 911 1504 1027T1373 1228T1166 1358T895 1405Q746 1405 626 1357T422 1223T292 1017T246 756Q246 613 290 493T416 284T618 147T887 98Q1001 98 1095 123T1272 203L1341 102Q1250 39 1131 5T874 -29Z"/><glyph unicode="A" horiz-adv-x="1440" d="M-96 0L700 1522H1016L1274 0H948L899 340H395L223 0H-96ZM518 580H864L788 1098H784L518 580Z"/><glyph unicode="B" horiz-adv-x="1440" d="M508 891H750Q810 891 858 902T941 939T995 1003T1014 1098Q1014 1136 1000 1165T955 1215T874 1246T752 1257H575L508 891ZM397 254H686Q744 254 792 267T876 307T932 377T952 479Q952 569 882 612T659 655H467L397 254ZM27 0L293 1516H805Q919 1516 1018 1498T1190 1441T1304 1337T1346 1180Q1346 1075 1317 1005T1239 890T1130 821T1004 784L1001 780Q1060 769 1110 745T1196 683T1253 591T1274 467Q1274 372 1249 301T1179 178T1078 92T957 37T827 9T700 0H27Z"/><glyph unicode="C" horiz-adv-x="1473" d="M682 -29Q541 -29 428 13T234 136T111 335T68 604Q68 822 127 996T291 1292T538 1479T844 1544Q953 1544 1037 1525T1183 1470T1289 1386T1360 1279T1404 1155T1425 1020L1096 991Q1091 1050 1076 1101T1030 1189T949 1247T825 1268Q725 1268 647 1216T514 1074T430 865T401 610Q401 526 419 458T474 342T566 267T696 240Q817 240 904 317T1057 559L1350 451Q1303 339 1242 250T1099 99T915 4T682 -29Z"/><glyph unicode="D" horiz-adv-x="1495" d="M401 270H573Q708 270 807 309T970 425T1065 616T1096 879Q1096 964 1072 1030T997 1143T863 1213T664 1237H573L401 270ZM25 0L291 1516H678Q849 1516 988 1478T1225 1363T1378 1168T1432 891Q1432 729 1400 600T1310 372T1169 203T985 87T768 21T524 0H25Z"/><glyph unicode="E" horiz-adv-x="1276" d="M25 0L291 1516H1300L1251 1237H575L518 911H1001L956 647H471L403 270H1118L1071 0H25Z"/><glyph unicode="F" horiz-adv-x="1180" d="M25 0L291 1516H1270L1223 1237H575L510 868H965L920 604H465L356 0H25Z"/><glyph unicode="G" horiz-adv-x="1546" d="M627 -29Q476 -29 368 23T192 167T95 381T74 647Q79 793 110 916T194 1139T318 1314T473 1441T653 1518T850 1544Q1106 1544 1251 1425T1432 1053L1110 1008Q1096 1129 1027 1198T831 1268Q743 1268 670 1227T541 1108T453 920T412 674Q405 560 426 478T488 343T582 265T694 240Q755 240 809 259T908 313T987 398T1044 512H784L827 760H1405L1272 0H1006L1042 211H1038Q1020 176 985 135T898 57T778 -4T627 -29Z"/><glyph unicode="H" horiz-adv-x="1554" d="M25 0L291 1516H623L520 928H1096L1198 1516H1532L1266 0H932L1047 649H471L356 0H25Z"/><glyph unicode="I" horiz-adv-x="676" d="M39 0L305 1516H639L373 0H39Z"/><glyph unicode="J" horiz-adv-x="1092" d="M397 -29Q238 -29 120 16T-86 143L90 354Q118 327 151 306T220 269T291 246T362 238Q404 238 439 249T503 287T551 359T584 475L766 1516H1098L905 416Q887 310 849 227T750 87T601 1T397 -29Z"/><glyph unicode="K" horiz-adv-x="1450" d="M27 0L293 1516H625L516 901L1145 1516H1499L895 924L1288 0H934L635 698L449 516L358 0H27Z"/><glyph unicode="L" horiz-adv-x="1180" d="M25 0L291 1516H623L403 270H1051L1004 0H25Z"/><glyph unicode="M" horiz-adv-x="1839" d="M27 0L293 1516H731L862 401H866L1368 1516H1819L1552 0H1233L1415 1036H1411Q1393 988 1376 944T1341 859T1305 778T1266 696L926 0H633L541 696Q536 739 532 776T524 853T518 940T514 1053H510L324 0H27Z"/><glyph unicode="N" horiz-adv-x="1571" d="M27 0L293 1516H625L1069 547H1073L1243 1516H1550L1284 0H977L508 979H504L332 0H27Z"/><glyph unicode="O" horiz-adv-x="1577" d="M719 240Q807 240 889 282T1034 406T1136 608T1174 887Q1174 973 1155 1043T1096 1163T997 1240T860 1268Q772 1268 689 1228T542 1108T440 909T401 631Q401 543 421 471T482 348T581 268T719 240ZM705 -29Q567 -29 451 14T249 141T116 346T68 623Q68 776 100 903T190 1133T325 1313T494 1441T687 1518T891 1544Q1022 1544 1135 1501T1331 1374T1461 1169T1509 891Q1509 739 1478 612T1391 382T1260 203T1095 75T906 -3T705 -29Z"/><glyph unicode="P" horiz-adv-x="1364" d="M291 1516H748Q882 1516 995 1495T1190 1424T1318 1294T1364 1096Q1364 984 1338 900T1267 754T1161 651T1028 586T878 551T721 541H451L354 0H25L291 1516ZM745 797Q813 797 866 811T956 857T1012 937T1032 1055Q1032 1097 1017 1131T968 1191T878 1229T741 1243H573L494 797H745Z"/><glyph unicode="Q" horiz-adv-x="1577" d="M930 -406Q810 -406 724 -379T583 -298T505 -168T487 10Q392 38 315 91T182 221T98 399T68 623Q68 776 100 903T190 1133T325 1313T495 1441T688 1518T893 1544Q1023 1544 1136 1501T1332 1374T1463 1169T1511 891Q1511 749 1483 629T1406 411T1288 238T1139 109T967 25T782 -14Q782 -56 795 -81T843 -120T936 -138T1083 -143H1186L1139 -406H930ZM719 240Q807 240 889 282T1035 406T1137 608T1176 887Q1176 973 1156 1043T1097 1163T998 1240T860 1268Q772 1268 690 1228T544 1108T442 909T403 631Q403 543 423 471T482 348T581 268T719 240Z"/><glyph unicode="R" horiz-adv-x="1423" d="M27 0L293 1516H768Q1060 1516 1212 1414T1364 1108Q1364 982 1329 894T1236 747T1108 656T965 612L1192 0H860L647 573H453L352 0H27ZM498 829H750Q809 829 860 838T950 874T1010 946T1032 1067Q1032 1155 966 1199T756 1243H571L498 829Z"/><glyph unicode="S" horiz-adv-x="1397" d="M637 -31Q509 -31 406 -8T222 66T83 194T-14 383L279 479Q321 358 414 297T664 236Q709 236 755 244T838 274T898 330T922 420Q922 470 890 505T806 568T687 619T550 668T414 726T295 803T210 911T178 1059Q178 1145 201 1214T265 1338T360 1431T478 1496T609 1534T745 1546Q834 1546 906 1534T1036 1502T1140 1452T1223 1390T1289 1318T1343 1241L1079 1075Q1057 1108 1028 1143T958 1207T861 1255T731 1274Q629 1274 570 1231T510 1104Q510 1056 542 1022T626 960T746 909T882 859T1019 802T1138 726T1223 621T1255 479Q1255 359 1211 265T1086 105T891 4T637 -31Z"/><glyph unicode="T" horiz-adv-x="1307" d="M354 0L571 1237H131L178 1516H1395L1346 1237H905L686 0H354Z"/><glyph unicode="U" horiz-adv-x="1464" d="M653 -25Q473 -25 357 23T178 157T101 361T111 621L266 1516H600L440 600Q425 518 428 453T457 341T534 271T668 246Q735 246 785 264T873 320T935 417T975 559L1143 1516H1468L1294 524Q1244 241 1086 108T653 -25Z"/><glyph unicode="V" horiz-adv-x="1409" d="M414 -6L172 1516H502L649 432H653L1192 1516H1509L729 -6H414Z"/><glyph unicode="W" horiz-adv-x="1937" d="M307 0L180 1516H514L543 825Q544 784 546 745T550 666T553 584T557 494H561Q579 542 595 583T627 664T657 743T688 823L965 1516H1272L1313 819Q1315 774 1317 737T1320 662T1323 585T1327 494H1331Q1350 546 1365 585T1393 660T1421 732T1454 815L1722 1516H2030L1378 0H1096L1040 1055H1036L594 0H307Z"/><glyph unicode="X" horiz-adv-x="1464" d="M-68 0L557 817L244 1516H584L791 1055L1126 1516H1475L913 778L1266 0H926L680 543L283 0H-68Z"/><glyph unicode="Y" horiz-adv-x="1395" d="M399 0L512 643L154 1516H492L725 926L1165 1516H1511L844 643L731 0H399Z"/><glyph unicode="Z" horiz-adv-x="1331" d="M-70 0L-29 229L918 1239H201L250 1516H1386L1346 1278L416 270H1167L1120 0H-70Z"/><glyph unicode="[" horiz-adv-x="893" d="M-61 -410L279 1516H971L932 1286H569L311 -180H672L633 -410H-61Z"/><glyph unicode="\" horiz-adv-x="1235" d="M768 0L154 1516H473L1087 0H768Z"/><glyph unicode="]" horiz-adv-x="893" d="M-145 -410L-104 -180H258L516 1286H156L195 1516H887L549 -410H-145Z"/><glyph unicode="^" horiz-adv-x="1323" d="M578 1516H756L1231 668H963L666 1184L371 668H100L578 1516Z"/><glyph unicode="_" horiz-adv-x="1020" d="M-188 -324L-150 -96H870L831 -324H-188Z"/><glyph unicode="`" horiz-adv-x="1024" d="M526 1208L270 1563H600L743 1208H526Z"/><glyph unicode="a" horiz-adv-x="1165" d="M426 231Q497 231 552 257T657 326L694 532Q490 520 396 468T301 332Q301 287 332 259T426 231ZM268 -16Q201 -16 146 4T50 60T-12 147T-35 260Q-35 471 153 579T725 707L729 733Q734 764 730 788T709 830T663 856T588 866Q550 866 508 859T421 838T331 807T244 766L133 971Q172 998 227 1023T350 1069T494 1101T655 1114Q786 1114 870 1082T998 990T1050 849T1040 666L969 266Q961 221 956 187T948 123T946 64T952 0H625Q620 42 620 79T629 160Q545 73 454 29T268 -16Z"/><glyph unicode="b" horiz-adv-x="1257" d="M573 229Q625 229 673 256T757 336T814 464T836 637Q836 683 825 721T793 786T738 827T662 842Q632 842 602 832T544 807T493 772T453 733L377 317Q414 277 463 253T573 229ZM668 -18Q609 -18 561 -9T474 19T402 62T342 119L322 0H-4L262 1516H590L485 924Q507 957 540 990T616 1051T708 1095T813 1112Q897 1112 963 1083T1076 999T1146 865T1171 686Q1171 529 1133 400T1028 177T868 33T668 -18Z"/><glyph unicode="c" horiz-adv-x="1116" d="M508 -23Q407 -23 318 5T161 91T55 238T16 449Q16 573 42 670T113 842T217 968T344 1052T480 1099T616 1114Q734 1114 815 1089T950 1016T1032 901T1077 748L784 696Q775 744 762 777T727 832T676 864T602 874Q551 874 505 845T423 760T367 623T346 436Q346 385 355 344T386 272T440 226T522 209Q553 209 581 219T637 252T690 312T743 406L999 303Q973 246 935 188T839 83T700 7T508 -23Z"/><glyph unicode="d" horiz-adv-x="1257" d="M522 231Q582 231 635 262T729 338L805 754Q771 791 724 817T608 844Q562 844 515 821T431 747T370 620T346 434Q346 340 389 286T522 231ZM373 -16Q303 -16 238 7T124 80T44 211T14 408Q14 588 58 720T173 940T334 1071T516 1114Q632 1114 711 1076T842 977L938 1516H1266L1047 266Q1038 218 1033 180T1026 110T1025 52T1032 0H696Q691 11 690 30T690 72T693 119T700 164Q672 125 639 92T567 35T479 -2T373 -16Z"/><glyph unicode="e" horiz-adv-x="1161" d="M516 -23Q409 -23 318 5T159 91T54 236T16 444Q16 581 48 683T132 860T250 984T384 1062T517 1102T631 1114Q753 1114 844 1076T990 961T1062 772T1053 508L1044 457H338V436Q338 368 357 324T407 253T479 217T563 207Q614 207 657 215T740 239T816 277T891 328L1032 139Q949 67 818 22T516 -23ZM610 881Q529 881 464 822T365 651H784Q788 699 782 741T757 814T701 863T610 881Z"/><glyph unicode="f" horiz-adv-x="823" d="M92 0L242 852H61L104 1092H285L301 1192Q313 1260 336 1320T406 1426T529 1497T723 1524Q747 1524 780 1522T844 1518T900 1512T932 1507L891 1278Q878 1283 846 1286T776 1290Q752 1290 728 1285T683 1266T647 1224T625 1153L614 1092H846L803 852H569L420 0H92Z"/><glyph unicode="g" horiz-adv-x="1239" d="M422 -410Q264 -410 152 -390T-30 -336T-133 -255T-166 -156Q-166 -105 -144 -65T-89 7T-18 58T53 90Q30 110 17 136T4 195Q4 217 12 246T41 306T101 370T199 430Q136 480 105 549T74 696Q74 796 113 874T223 1005T389 1086T598 1114Q726 1114 813 1079T952 985Q983 1011 1025 1033T1110 1070T1195 1096T1266 1108L1221 856Q1168 856 1118 850T1030 834Q1035 812 1037 789T1040 743Q1040 645 1002 569T897 440T735 361T530 334Q472 334 422 341T328 362Q308 347 300 334T291 307Q291 286 312 273T373 251T465 235T584 219Q663 208 741 192T882 144T983 61T1022 -72Q1022 -173 973 -238T840 -342T649 -395T422 -410ZM549 516Q591 516 627 531T688 576T728 647T743 741Q743 775 735 805T709 857T660 893T584 907Q543 907 507 891T443 846T399 775T383 682Q383 647 392 617T420 565T472 529T549 516ZM451 -20Q391 -11 330 -3T215 20Q187 -1 166 -35T145 -104Q145 -136 163 -161T222 -205T327 -234T485 -244Q533 -244 576 -237T651 -217T702 -185T721 -139Q721 -111 700 -92T643 -59T557 -37T451 -20Z"/><glyph unicode="h" horiz-adv-x="1245" d="M-4 0L262 1516H590L485 920Q509 950 545 984T628 1047T733 1095T856 1114Q933 1114 991 1093T1087 1029T1137 922T1135 774L999 0H670L791 690Q805 764 778 804T678 844Q649 844 619 835T560 811T504 775T453 733L324 0H-4Z"/><glyph unicode="i" horiz-adv-x="602" d="M223 1241L268 1505H598L553 1241H223ZM4 0L199 1092H526L334 0H4Z"/><glyph unicode="j" horiz-adv-x="602" d="M223 1241L270 1505H600L555 1241H223ZM-25 -420Q-103 -420 -168 -415T-274 -401L-236 -180Q-216 -183 -185 -186T-125 -190Q-97 -190 -78 -185T-45 -164T-22 -123T-4 -57L199 1092H528L311 -139Q300 -196 279 -247T219 -336T121 -397T-25 -420Z"/><glyph unicode="k" horiz-adv-x="1178" d="M-4 0L262 1516H590L444 696L850 1092H1190L764 682L1018 0H688L514 467L383 344L324 0H-4Z"/><glyph unicode="l" horiz-adv-x="602" d="M4 0L270 1516H600L334 0H4Z"/><glyph unicode="m" horiz-adv-x="1888" d="M-4 0L188 1092H518L485 920Q509 950 542 984T620 1047T719 1095T840 1114Q957 1114 1029 1065T1120 918Q1149 953 1186 988T1270 1051T1374 1096T1499 1114Q1576 1114 1634 1093T1730 1029T1780 922T1778 774L1640 0H1313L1434 690Q1446 764 1420 804T1321 844Q1267 844 1214 813T1112 737L983 0H653L774 690Q788 764 761 804T662 844Q636 844 609 835T554 811T502 775T453 733L324 0H-4Z"/><glyph unicode="n" horiz-adv-x="1245" d="M-4 0L188 1092H518L485 920Q509 950 545 984T628 1047T733 1095T856 1114Q933 1114 991 1093T1087 1029T1137 922T1135 774L999 0H670L791 690Q805 764 778 804T678 844Q649 844 619 835T560 811T504 775T453 733L324 0H-4Z"/><glyph unicode="o" horiz-adv-x="1227" d="M539 209Q593 209 642 238T727 323T785 458T807 637Q807 687 797 730T764 805T704 855T614 874Q559 874 511 845T426 760T369 624T348 444Q348 395 358 352T390 278T449 228T539 209ZM514 -23Q419 -23 329 5T170 92T58 241T16 453Q16 576 42 673T114 843T221 968T351 1052T494 1099T639 1114Q735 1114 825 1087T984 1001T1095 854T1137 641Q1137 519 1111 422T1040 252T934 126T804 41T661 -8T514 -23Z"/><glyph unicode="p" horiz-adv-x="1257" d="M573 229Q623 229 670 255T754 333T813 461T836 637Q836 731 793 786T662 842Q634 842 605 833T548 808T496 774T453 733L377 317Q414 279 461 254T573 229ZM-78 -412L188 1092H518L485 924Q509 958 543 992T620 1052T710 1095T811 1112Q895 1112 962 1083T1075 1000T1146 866T1171 686Q1171 526 1132 396T1025 174T866 32T668 -18Q609 -18 561 -8T474 20T402 63T342 119L250 -412H-78Z"/><glyph unicode="q" horiz-adv-x="1257" d="M522 231Q582 231 635 262T729 338L805 754Q771 791 724 817T608 844Q562 844 515 821T431 747T370 620T346 434Q346 340 389 286T522 231ZM600 -410L698 156Q671 120 639 89T567 34T479 -3T373 -16Q292 -16 226 11T112 92T40 225T14 408Q14 591 58 724T174 943T336 1072T518 1114Q585 1114 635 1103T724 1072T791 1028T842 977L864 1092H1194L928 -410H600Z"/><glyph unicode="r" horiz-adv-x="862" d="M-4 0L188 1092H518L483 909H487Q513 942 550 978T637 1044T748 1094T885 1114H891L840 821Q832 822 821 823T798 825T775 826T756 827Q710 827 666 815T582 783T506 735T442 678L324 0H-4Z"/><glyph unicode="s" horiz-adv-x="1073" d="M467 -23Q362 -23 280 -9T133 29T20 87T-63 158L104 332Q135 302 174 276T260 230T360 199T471 188Q502 188 531 193T583 212T619 246T633 299Q633 331 610 352T549 390T462 421T363 453T264 492T177 548T115 627T92 739Q92 839 130 910T229 1026T366 1093T518 1114Q610 1114 683 1103T815 1071T921 1023T1008 961L854 776Q789 830 710 861T541 893Q484 893 447 869T410 793Q410 761 433 739T495 700T581 669T681 638T780 600T867 547T928 471T952 365Q952 286 930 226T871 123T784 52T680 7T571 -16T467 -23Z"/><glyph unicode="t" horiz-adv-x="868" d="M459 -14Q335 -14 265 10T161 80T126 188T137 330L231 852H51L94 1092H274L340 1466H668L604 1092H879L836 852H559L477 383Q469 338 470 308T484 259T525 233T598 225Q624 225 655 228T705 238L670 4Q661 1 637 -2T581 -8T518 -12T459 -14Z"/><glyph unicode="u" horiz-adv-x="1243" d="M322 -20Q244 -20 185 1T90 65T41 171T43 319L178 1092H508L383 393Q369 319 396 280T496 240Q524 240 553 249T612 273T668 309T719 350L852 1092H1180L987 0H657L690 172Q666 143 631 109T549 47T445 -1T322 -20Z"/><glyph unicode="v" horiz-adv-x="1085" d="M246 -2L59 1092H391L481 365H485L836 1092H1151L578 -2H246Z"/><glyph unicode="w" horiz-adv-x="1567" d="M182 0L68 1092H395L416 700Q418 619 421 540T424 367H428Q448 420 465 463T498 546T530 625T565 709L729 1092H983L1014 702Q1017 659 1019 622T1024 545T1028 463T1032 367H1036Q1056 419 1073 461T1105 542T1135 617T1167 698L1333 1092H1624L1122 0H819L770 666H766L485 0H182Z"/><glyph unicode="x" horiz-adv-x="1102" d="M-109 0L352 573L115 1092H455L584 807L801 1092H1135L700 553L956 0H616L469 319L225 0H-109Z"/><glyph unicode="y" horiz-adv-x="1126" d="M129 -418Q13 -418 -68 -400T-195 -362L-90 -109Q-75 -115 -51 -123T0 -137T55 -149T104 -154Q157 -154 189 -132T246 -63L279 -6L68 1092H406L510 383H514L870 1092H1192L508 -152Q470 -220 431 -270T347 -353T249 -402T129 -418Z"/><glyph unicode="z" horiz-adv-x="1065" d="M-72 0L-43 170L578 852H117L160 1092H1038L1006 918L383 233H924L885 0H-72Z"/><glyph unicode="{" horiz-adv-x="889" d="M403 -410Q319 -410 261 -388T170 -326T127 -232T129 -113L180 193Q194 268 190 315T163 390T99 428T-4 438L39 670Q100 670 144 680T221 717T275 792T309 915L365 1221Q376 1288 404 1342T476 1435T578 1495T705 1516H979L940 1286H866Q783 1286 737 1245T676 1124L633 870Q620 795 599 742T549 652T484 592T403 555L401 551Q440 537 468 514T513 455T531 365T520 236L475 -18Q461 -97 492 -138T606 -180H682L641 -410H403Z"/><glyph unicode="|" horiz-adv-x="819" d="M242 -410V1516H565V-410H242Z"/><glyph unicode="}" horiz-adv-x="889" d="M-160 -410L-119 -180H-43Q41 -180 86 -139T145 -18L195 266Q208 341 228 390T275 470T338 519T418 551L420 555Q381 569 352 587T305 636T285 716T295 840L346 1124Q360 1203 330 1244T215 1286H141L180 1516H449Q533 1516 587 1498T669 1446T704 1363T698 1249L639 915Q626 840 630 793T658 718T722 680T823 670L782 438Q722 438 678 428T601 391T547 316T512 193L453 -145Q430 -279 357 -344T147 -410H-160Z"/><glyph unicode="~" horiz-adv-x="1323" d="M932 528Q887 528 837 538T737 563T637 595T543 626T461 651T397 662Q362 662 340 644T309 569L117 602Q127 686 150 745T209 842T289 897T389 913Q437 913 488 903T591 878T690 846T783 814T863 789T926 778Q961 778 984 797T1016 872L1206 848Q1196 763 1172 702T1113 601T1032 544T932 528Z"/><glyph unicode=" " horiz-adv-x="551"/><glyph unicode="¡" horiz-adv-x="731" d="M266 1214L317 1516H670L618 1214H266ZM20 0L287 1036H532L434 0H20Z"/><glyph unicode="¢" horiz-adv-x="1128" d="M508 -23Q468 -23 430 -19T356 -6L236 -264H66L213 51Q124 106 70 204T16 449Q16 573 42 670T113 841T217 966T344 1050T480 1097T616 1112Q664 1112 711 1106L805 1307H975L862 1069Q911 1048 947 1017T1008 945T1050 855T1077 748L799 698Q788 745 773 779T735 836L444 215Q478 203 522 203Q551 203 580 213T639 248T696 311T752 406L999 305Q973 248 934 190T837 84T698 7T508 -23ZM604 881Q552 881 503 851T415 763T354 624T330 436Q330 364 352 309L621 881H604Z"/><glyph unicode="£" horiz-adv-x="1391" d="M221 -29Q157 -29 104 -15T11 28T-50 98T-72 193Q-72 273 -46 327T22 416T120 464T233 479Q309 479 371 455T487 393Q491 413 492 434T494 479Q494 530 482 581T453 686H174L205 862H389Q369 921 355 980T340 1100Q340 1204 378 1286T481 1426T636 1513T827 1544Q920 1544 989 1527T1109 1481T1192 1410T1245 1321T1275 1220T1288 1112L989 1081Q988 1127 981 1165T956 1231T908 1274T831 1290Q794 1290 763 1278T708 1242T672 1179T659 1087Q659 1030 675 976T713 862H1059L1030 686H768Q774 654 778 619T782 547Q782 460 758 385T692 246Q726 226 761 215T838 203Q870 203 899 212T951 247T990 314T1012 422H1292Q1281 338 1254 257T1178 113T1054 10T872 -29Q818 -29 772 -20T685 5T608 41T541 86Q466 30 383 1T221 -29ZM236 137Q268 137 312 154T397 213Q354 253 315 280T233 307Q195 307 167 283T139 213Q139 181 162 159T236 137Z"/><glyph unicode="¤" horiz-adv-x="1152" d="M1056 392L940 284L740 500Q668 452 572 452Q480 452 408 500L208 284L92 392L300 608Q272 648 262 686T252 780Q252 828 262 870T300 952L92 1168L208 1276L408 1060Q480 1108 572 1108Q668 1108 740 1060L944 1276L1060 1156L852 952Q880 912 890 872T900 780Q900 684 848 608L1056 392ZM748 780Q748 860 698 910T572 960Q496 960 448 910T400 780Q400 700 450 652T572 604Q652 604 700 652T748 780Z"/><glyph unicode="¥" horiz-adv-x="1380" d="M391 0L426 188H70L98 367H455L481 506H125L156 682H506L164 1516H502L717 926L1137 1516H1487L850 682H1206L1174 506H813L788 367H1149L1118 188H758L725 0H391Z"/><glyph unicode="¦" horiz-adv-x="819" d="M242 678V1516H565V678H242ZM242 -410V428H565V-410H242Z"/><glyph unicode="§" horiz-adv-x="1188" d="M440 -410Q309 -410 226 -379T91 -297T16 -181T-20 -45L231 0Q238 -43 251 -80T287 -144T344 -186T430 -201Q467 -201 494 -190T539 -159T566 -114T575 -61Q575 -22 554 11T497 76T417 139T326 204T234 274T154 355T98 450T76 565Q76 630 97 683T154 780T236 857T334 920Q292 966 266 1023T240 1149Q240 1239 275 1312T370 1436T511 1516T684 1544Q814 1544 900 1515T1039 1435T1119 1319T1157 1180L905 1137Q899 1178 885 1213T845 1273T782 1313T694 1327Q657 1327 629 1316T580 1286T550 1242T539 1188Q539 1151 561 1119T619 1056T700 995T794 931T887 860T969 779T1027 684T1049 569Q1049 503 1027 450T968 353T883 275T782 213Q824 167 849 112T874 -12Q874 -103 841 -176T750 -302T612 -382T440 -410ZM356 643Q356 596 382 556T451 479T547 405T653 330Q768 399 768 494Q768 540 741 579T671 655T575 728T467 803Q410 766 383 727T356 643Z"/><glyph unicode="¨" horiz-adv-x="1081" d="M692 1196L745 1499H1024L971 1196H692ZM262 1196L315 1499H594L541 1196H262Z"/><glyph unicode="©" horiz-adv-x="1776" d="M893 115Q1028 115 1142 163T1340 297T1471 500T1518 756Q1518 893 1471 1011T1339 1215T1139 1351T887 1401Q752 1401 637 1353T439 1219T309 1016T262 762Q262 624 309 506T441 300T641 164T893 115ZM887 -29Q776 -29 675 -2T487 75T330 196T209 354T131 543T104 756Q104 866 131 967T210 1156T332 1315T492 1438T681 1516T893 1544Q1004 1544 1105 1517T1293 1440T1450 1319T1571 1161T1648 973T1675 762Q1675 651 1648 549T1570 359T1448 200T1289 77T1100 -1T887 -29ZM883 317Q802 317 735 346T620 432T546 572T520 762Q520 867 545 949T619 1089T735 1176T889 1206Q962 1206 1019 1187T1118 1131T1187 1045T1227 934L1042 887Q1033 920 1021 947T992 992T951 1021T893 1032Q852 1032 821 1013T767 959T734 874T723 762Q723 635 766 565T891 494Q957 494 994 535T1049 657Q1112 639 1148 629T1204 614T1228 608T1235 606Q1217 541 1190 488T1121 397T1021 338T883 317Z"/><glyph unicode="ª" horiz-adv-x="911" d="M436 913Q484 913 527 934T602 983L629 1122Q554 1118 503 1108T419 1080T371 1040T352 989Q349 957 368 935T436 913ZM322 739Q271 739 230 755T161 801T121 870T115 958Q124 1027 160 1078T263 1165T425 1221T649 1247L653 1268Q663 1308 641 1332T549 1356Q492 1356 429 1338T307 1282L229 1415Q297 1468 389 1500T598 1532Q691 1532 750 1510T841 1446T879 1345T872 1212L825 940Q813 874 810 831T815 754H582Q579 778 578 805T584 864Q522 805 455 772T322 739Z"/><glyph unicode="«" horiz-adv-x="1296" d="M793 0L547 547L985 1092H1298L874 547L1106 0H793ZM258 0L14 547L453 1092H766L342 547L571 0H258Z"/><glyph unicode="¬" horiz-adv-x="1536" d="M1116 352V728H212V920H1296V352H1116Z"/><glyph unicode="­" horiz-adv-x="731" d="M59 532L100 754H637L596 532H59Z"/><glyph unicode="®" horiz-adv-x="1083" d="M365 1341H565Q659 1341 712 1300T766 1171Q766 1111 741 1077T672 1022L774 825H643L553 1008H489V825H365V1341ZM551 600Q450 600 364 636T215 735T116 885T80 1071Q80 1171 116 1258T217 1409T367 1509T555 1546Q655 1546 740 1510T889 1411T988 1261T1024 1075Q1024 974 988 888T887 737T737 637T551 600ZM555 690Q636 690 704 718T822 798T900 919T928 1071Q928 1153 900 1224T821 1347T701 1428T551 1458Q470 1458 402 1429T283 1349T205 1227T176 1075Q176 993 204 923T284 801T404 720T555 690ZM557 1100Q600 1100 621 1115T643 1165Q643 1231 557 1231H489V1100H557Z"/><glyph unicode="¯" horiz-adv-x="1020" d="M250 1196L291 1430H965L924 1196H250Z"/><glyph unicode="°" horiz-adv-x="846" d="M485 1042Q519 1042 551 1054T608 1092T648 1154T664 1241Q664 1304 628 1344T526 1384Q492 1384 460 1372T403 1334T362 1272T346 1186Q346 1123 382 1083T485 1042ZM483 885Q409 885 351 908T252 970T191 1063T170 1178Q170 1265 202 1332T286 1446T402 1517T528 1542Q603 1542 661 1520T759 1458T821 1366T842 1251Q842 1166 809 1098T725 983T609 911T483 885Z"/><glyph unicode="±" horiz-adv-x="1323" d="M137 270H532V606H137V860H532V1272H791V860H1186V606H791V270H1186V31H137V270Z"/><glyph unicode="²" horiz-adv-x="979" d="M88 594Q104 691 138 760T217 880T314 964T417 1023T515 1069T599 1113T658 1165T680 1237Q680 1269 658 1293T590 1317Q568 1317 543 1313T489 1296T429 1261T367 1202L209 1341Q294 1445 401 1490T629 1536Q709 1536 767 1517T863 1464T919 1383T938 1280Q938 1208 917 1154T861 1060T780 990T687 938T592 895T506 855T440 810T406 752H854L815 541H78L88 594Z"/><glyph unicode="³" horiz-adv-x="979" d="M477 524Q326 524 228 581T82 737L262 862Q284 825 308 801T358 763T410 743T463 737Q546 737 585 769T625 860Q625 910 584 935T457 961H371L403 1143H492Q592 1143 633 1168T674 1247Q674 1278 653 1298T580 1319Q520 1319 462 1302T342 1241L233 1403Q282 1443 333 1468T435 1509T538 1530T639 1536Q714 1536 770 1518T864 1469T921 1393T940 1296Q940 1212 897 1149T756 1053Q793 1041 819 1021T863 975T887 919T895 858Q895 771 860 708T767 604T634 544T477 524Z"/><glyph unicode="´" horiz-adv-x="1020" d="M389 1208L637 1563H969L606 1208H389Z"/><glyph unicode="µ" horiz-adv-x="1253" d="M-78 -410L188 1092H516L393 393Q379 319 406 280T506 240Q563 240 619 271T729 350L862 1092H1190L997 0H668L698 170Q677 146 650 120T591 71T519 28T434 -2Q403 -7 375 -5T326 12L252 -410H-78Z"/><glyph unicode="¶" horiz-adv-x="1300" d="M354 -410L537 641Q437 647 358 675T224 753T140 869T111 1020Q111 1130 147 1221T252 1377T418 1479T637 1516H1305L967 -410H745L1040 1270H870L575 -410H354Z"/><glyph unicode="·" horiz-adv-x="592" d="M76 530L131 848H500L442 530H76Z"/><glyph unicode="¸" horiz-adv-x="1020" d="M369 -414Q310 -414 263 -409T179 -394T113 -370T61 -338L135 -240Q217 -301 330 -301Q378 -301 408 -284T438 -225Q438 -202 422 -189T381 -176Q358 -176 337 -184T293 -211L217 -170L301 0H436L395 -98Q417 -84 447 -76T514 -68Q576 -68 614 -103T653 -199Q653 -258 627 -299T559 -365T467 -402T369 -414Z"/><glyph unicode="¹" horiz-adv-x="791" d="M129 743H305L406 1309Q365 1292 317 1280T225 1268L258 1454Q317 1456 364 1470T446 1516H705L569 743H723L686 537H94L129 743Z"/><glyph unicode="º" horiz-adv-x="950" d="M520 905Q560 905 595 926T655 985T696 1079T711 1204Q711 1237 704 1266T680 1317T638 1351T575 1364Q534 1364 500 1343T440 1284T400 1190T385 1067Q385 1033 391 1004T414 952T456 918T520 905ZM516 739Q441 739 374 759T257 820T177 924T147 1073Q147 1166 168 1236T226 1357T307 1443T401 1497T495 1525T580 1534Q654 1534 720 1515T837 1456T916 1354T946 1204Q946 1113 925 1044T868 923T788 836T695 780T601 749T516 739Z"/><glyph unicode="»" horiz-adv-x="1296" d="M463 0L885 547L657 1092H971L1212 547L776 0H463ZM-70 0L352 547L123 1092H436L680 547L244 0H-70Z"/><glyph unicode="¼" horiz-adv-x="2173" d="M86 733H262L362 1298Q322 1281 274 1269T182 1257L215 1442Q334 1445 403 1505H662L526 733H680L643 526H51L86 733ZM383 0L1548 1516H1833L668 0H383ZM1638 205H1198L1227 369L1763 979H2034L1931 406H2085L2052 205H1898L1862 2H1602L1638 205ZM1686 389L1739 702L1473 389H1686Z"/><glyph unicode="½" horiz-adv-x="2269" d="M86 733H262L362 1298Q322 1281 274 1269T182 1257L215 1442Q334 1445 403 1505H662L526 733H680L643 526H51L86 733ZM383 0L1548 1516H1833L668 0H383ZM1325 59Q1341 155 1375 224T1455 344T1551 428T1655 487T1754 532T1838 576T1897 628T1919 700Q1919 732 1896 756T1829 780Q1808 780 1782 776T1728 759T1668 725T1606 666L1448 807Q1533 909 1639 954T1866 999Q1947 999 2005 980T2102 928T2158 847T2177 745Q2177 672 2156 618T2100 524T2020 454T1926 401T1831 358T1746 318T1680 273T1645 215H2091L2054 4H1317L1325 59Z"/><glyph unicode="¾" horiz-adv-x="2269" d="M434 514Q283 514 185 571T39 727L219 850Q241 813 265 789T315 751T367 731T420 725Q503 725 542 758T582 850Q582 899 541 924T414 950H328L360 1133H449Q549 1133 590 1157T631 1235Q631 1267 610 1288T537 1309Q477 1309 419 1292T299 1229L190 1393Q239 1432 290 1457T392 1498T495 1520T596 1526Q671 1526 727 1508T821 1458T878 1382T897 1286Q897 1199 855 1137T713 1040Q750 1028 776 1008T820 963T844 908T852 848Q852 760 817 697T724 594T591 534T434 514ZM479 0L1645 1516H1929L764 0H479ZM1735 205H1294L1323 369L1860 979H2130L2028 406H2181L2148 205H1995L1958 2H1698L1735 205ZM1782 389L1835 702L1569 389H1782Z"/><glyph unicode="¿" horiz-adv-x="1196" d="M555 1214L608 1516H961L907 1214H555ZM506 -29Q377 -29 285 -1T134 76T48 188T20 324Q20 396 35 449T77 540T138 607T212 656T292 697T373 737Q421 763 456 789T514 849T549 929T565 1042H836Q834 992 829 955T817 877Q806 811 781 765T721 685T642 626T551 578Q511 559 475 541T412 499T368 445T352 371Q352 340 362 315T394 271T451 243T537 233Q578 233 624 243T717 272T807 318T887 381L1055 190Q1000 138 935 97T799 28T654 -14T506 -29Z"/><glyph unicode="À" horiz-adv-x="1440" d="M-96 0L700 1522H1016L1274 0H948L899 340H395L223 0H-96ZM518 580H864L788 1098H784L518 580ZM772 1607L516 1962H846L989 1607H772Z"/><glyph unicode="Á" horiz-adv-x="1440" d="M-96 0L700 1522H1016L1274 0H948L899 340H395L223 0H-96ZM518 580H864L788 1098H784L518 580ZM741 1607L989 1962H1321L958 1607H741Z"/><glyph unicode="Â" horiz-adv-x="1440" d="M-96 0L700 1522H1016L1274 0H948L899 340H395L223 0H-96ZM518 580H864L788 1098H784L518 580ZM499 1611L821 1962H1042L1243 1611H1054L897 1763L686 1611H499Z"/><glyph unicode="Ã" horiz-adv-x="1440" d="M-96 0L700 1522H1016L1274 0H948L899 340H395L223 0H-96ZM518 580H864L788 1098H784L518 580ZM1040 1587Q985 1587 945 1605T873 1644T813 1684T752 1702Q711 1702 685 1677T649 1591H471Q480 1678 504 1739T565 1840T649 1898T752 1917Q807 1917 847 1899T919 1860T978 1820T1038 1802Q1080 1802 1106 1827T1143 1912H1323Q1313 1825 1289 1764T1227 1663T1143 1606T1040 1587Z"/><glyph unicode="Ä" horiz-adv-x="1440" d="M-96 0L700 1522H1016L1274 0H948L899 340H395L223 0H-96ZM518 580H864L788 1098H784L518 580ZM940 1595L993 1898H1272L1219 1595H940ZM510 1595L563 1898H842L789 1595H510Z"/><glyph unicode="Å" horiz-adv-x="1440" d="M-96 0L684 1493Q667 1515 658 1543T649 1604Q649 1661 671 1706T728 1782T809 1830T901 1847Q949 1847 986 1831T1048 1788T1087 1725T1100 1649Q1100 1592 1078 1547T1024 1473L1274 0H948L897 340H395L223 0H-96ZM518 580H864L786 1098H782L518 580ZM864 1526Q884 1526 903 1533T936 1555T960 1591T969 1640Q969 1672 948 1696T887 1720Q867 1720 848 1712T814 1690T790 1656T780 1610Q780 1575 801 1551T864 1526Z"/><glyph unicode="Æ" horiz-adv-x="2179" d="M733 678H1049L1147 1237H1145L733 678ZM-102 0L1026 1516H2202L2152 1237H1477L1419 911H1903L1858 647H1374L1307 270H2019L1972 0H930L1006 432H553L236 0H-102Z"/><glyph unicode="Ç" horiz-adv-x="1473" d="M682 -29Q541 -29 428 13T234 136T111 335T68 604Q68 822 127 996T291 1292T538 1479T844 1544Q953 1544 1037 1525T1183 1470T1289 1386T1360 1279T1404 1155T1425 1020L1096 991Q1091 1050 1076 1101T1030 1189T949 1247T825 1268Q725 1268 647 1216T514 1074T430 865T401 610Q401 526 419 458T474 342T566 267T696 240Q817 240 904 317T1057 559L1350 451Q1303 339 1242 250T1099 99T915 4T682 -29ZM594 -414Q535 -414 488 -409T404 -394T338 -370T286 -338L360 -240Q442 -301 555 -301Q603 -301 633 -284T663 -225Q663 -202 647 -189T606 -176Q583 -176 562 -184T518 -211L442 -170L526 0H661L620 -98Q642 -84 672 -76T739 -68Q801 -68 839 -103T878 -199Q878 -258 852 -299T784 -365T692 -402T594 -414Z"/><glyph unicode="È" horiz-adv-x="1276" d="M25 0L291 1516H1300L1251 1237H575L518 911H1001L956 647H471L403 270H1118L1071 0H25ZM719 1607L463 1962H793L936 1607H719Z"/><glyph unicode="É" horiz-adv-x="1276" d="M586 1607L834 1962H1166L803 1607H586ZM25 0L291 1516H1300L1251 1237H575L518 911H1001L956 647H471L403 270H1118L1071 0H25Z"/><glyph unicode="Ê" horiz-adv-x="1276" d="M432 1611L754 1962H975L1176 1611H987L830 1763L619 1611H432ZM25 0L291 1516H1300L1251 1237H575L518 911H1001L956 647H471L403 270H1118L1071 0H25Z"/><glyph unicode="Ë" horiz-adv-x="1276" d="M872 1595L925 1898H1204L1151 1595H872ZM442 1595L495 1898H774L721 1595H442ZM25 0L291 1516H1300L1251 1237H575L518 911H1001L956 647H471L403 270H1118L1071 0H25Z"/><glyph unicode="Ì" horiz-adv-x="676" d="M39 0L305 1516H639L373 0H39ZM408 1607L152 1962H482L625 1607H408Z"/><glyph unicode="Í" horiz-adv-x="676" d="M39 0L305 1516H639L373 0H39ZM337 1607L585 1962H917L554 1607H337Z"/><glyph unicode="Î" horiz-adv-x="676" d="M39 0L305 1516H639L373 0H39ZM119 1611L441 1962H662L863 1611H674L517 1763L306 1611H119Z"/><glyph unicode="Ï" horiz-adv-x="676" d="M39 0L305 1516H639L373 0H39ZM560 1595L613 1898H892L839 1595H560ZM130 1595L183 1898H462L409 1595H130Z"/><glyph unicode="Ð" horiz-adv-x="1497" d="M25 0L139 651H6L47 899H182L291 1516H678Q849 1516 988 1478T1225 1363T1378 1168T1432 891Q1432 729 1400 600T1310 372T1169 203T985 87T768 21T524 0H25ZM514 899H823L780 651H469L403 270H573Q708 270 807 309T970 425T1065 616T1096 879Q1096 964 1072 1030T997 1143T863 1213T664 1237H573L514 899Z"/><glyph unicode="Ñ" horiz-adv-x="1571" d="M27 0L293 1516H625L1069 547H1073L1243 1516H1550L1284 0H977L508 979H504L332 0H27ZM1103 1587Q1048 1587 1008 1605T936 1644T876 1684T815 1702Q774 1702 748 1677T712 1591H534Q543 1678 567 1739T628 1840T712 1898T815 1917Q870 1917 910 1899T982 1860T1041 1820T1101 1802Q1143 1802 1169 1827T1206 1912H1386Q1376 1825 1352 1764T1290 1663T1206 1606T1103 1587Z"/><glyph unicode="Ò" horiz-adv-x="1577" d="M719 240Q807 240 889 282T1034 406T1136 608T1174 887Q1174 973 1155 1043T1096 1163T997 1240T860 1268Q772 1268 689 1228T542 1108T440 909T401 631Q401 543 421 471T482 348T581 268T719 240ZM705 -29Q567 -29 451 14T249 141T116 346T68 623Q68 776 100 903T190 1133T325 1313T494 1441T687 1518T891 1544Q1022 1544 1135 1501T1331 1374T1461 1169T1509 891Q1509 739 1478 612T1391 382T1260 203T1095 75T906 -3T705 -29ZM870 1607L614 1962H944L1087 1607H870Z"/><glyph unicode="Ó" horiz-adv-x="1577" d="M735 1607L983 1962H1315L952 1607H735ZM719 240Q807 240 889 282T1034 406T1136 608T1174 887Q1174 973 1155 1043T1096 1163T997 1240T860 1268Q772 1268 689 1228T542 1108T440 909T401 631Q401 543 421 471T482 348T581 268T719 240ZM705 -29Q567 -29 451 14T249 141T116 346T68 623Q68 776 100 903T190 1133T325 1313T494 1441T687 1518T891 1544Q1022 1544 1135 1501T1331 1374T1461 1169T1509 891Q1509 739 1478 612T1391 382T1260 203T1095 75T906 -3T705 -29Z"/><glyph unicode="Ô" horiz-adv-x="1577" d="M567 1611L889 1962H1110L1311 1611H1122L965 1763L754 1611H567ZM719 240Q807 240 889 282T1034 406T1136 608T1174 887Q1174 973 1155 1043T1096 1163T997 1240T860 1268Q772 1268 689 1228T542 1108T440 909T401 631Q401 543 421 471T482 348T581 268T719 240ZM705 -29Q567 -29 451 14T249 141T116 346T68 623Q68 776 100 903T190 1133T325 1313T494 1441T687 1518T891 1544Q1022 1544 1135 1501T1331 1374T1461 1169T1509 891Q1509 739 1478 612T1391 382T1260 203T1095 75T906 -3T705 -29Z"/><glyph unicode="Õ" horiz-adv-x="1577" d="M719 240Q807 240 889 282T1034 406T1136 608T1174 887Q1174 973 1155 1043T1096 1163T997 1240T860 1268Q772 1268 689 1228T542 1108T440 909T401 631Q401 543 421 471T482 348T581 268T719 240ZM705 -29Q567 -29 451 14T249 141T116 346T68 623Q68 776 100 903T190 1133T325 1313T494 1441T687 1518T891 1544Q1022 1544 1135 1501T1331 1374T1461 1169T1509 891Q1509 739 1478 612T1391 382T1260 203T1095 75T906 -3T705 -29ZM1108 1587Q1053 1587 1013 1605T941 1644T881 1684T820 1702Q779 1702 753 1677T717 1591H539Q548 1678 572 1739T633 1840T717 1898T820 1917Q875 1917 915 1899T987 1860T1046 1820T1106 1802Q1148 1802 1174 1827T1211 1912H1391Q1381 1825 1357 1764T1295 1663T1211 1606T1108 1587Z"/><glyph unicode="Ö" horiz-adv-x="1577" d="M1007 1595L1060 1898H1339L1286 1595H1007ZM577 1595L630 1898H909L856 1595H577ZM719 240Q807 240 889 282T1034 406T1136 608T1174 887Q1174 973 1155 1043T1096 1163T997 1240T860 1268Q772 1268 689 1228T542 1108T440 909T401 631Q401 543 421 471T482 348T581 268T719 240ZM705 -29Q567 -29 451 14T249 141T116 346T68 623Q68 776 100 903T190 1133T325 1313T494 1441T687 1518T891 1544Q1022 1544 1135 1501T1331 1374T1461 1169T1509 891Q1509 739 1478 612T1391 382T1260 203T1095 75T906 -3T705 -29Z"/><glyph unicode="×" horiz-adv-x="1323" d="M336 145L143 338L467 662L143 981L336 1174L657 852L979 1174L1169 981L852 662L1176 342L983 152L659 471L336 145Z"/><glyph unicode="Ø" horiz-adv-x="1577" d="M705 -29Q577 -29 467 9T272 119L90 -61L-47 66L156 262Q68 411 68 623Q68 776 100 903T190 1133T325 1313T495 1441T688 1518T893 1544Q1014 1544 1119 1507T1307 1397L1493 1577L1628 1450L1425 1251Q1467 1177 1489 1087T1511 891Q1511 739 1480 612T1392 382T1260 203T1094 75T905 -3T705 -29ZM719 233Q807 233 890 276T1038 402T1142 607T1182 887Q1182 922 1179 954T1167 1018L481 338Q522 287 581 260T719 233ZM397 631Q397 555 410 496L1096 1174Q1055 1222 997 1248T860 1274Q772 1274 689 1233T541 1111T437 910T397 631Z"/><glyph unicode="Ù" horiz-adv-x="1464" d="M653 -25Q473 -25 357 23T178 157T101 361T111 621L266 1516H600L440 600Q425 518 428 453T457 341T534 271T668 246Q735 246 785 264T873 320T935 417T975 559L1143 1516H1468L1294 524Q1244 241 1086 108T653 -25ZM813 1607L557 1962H887L1030 1607H813Z"/><glyph unicode="Ú" horiz-adv-x="1464" d="M680 1607L928 1962H1260L897 1607H680ZM653 -25Q473 -25 357 23T178 157T101 361T111 621L266 1516H600L440 600Q425 518 428 453T457 341T534 271T668 246Q735 246 785 264T873 320T935 417T975 559L1143 1516H1468L1294 524Q1244 241 1086 108T653 -25Z"/><glyph unicode="Û" horiz-adv-x="1464" d="M510 1611L832 1962H1053L1254 1611H1065L908 1763L697 1611H510ZM653 -25Q473 -25 357 23T178 157T101 361T111 621L266 1516H600L440 600Q425 518 428 453T457 341T534 271T668 246Q735 246 785 264T873 320T935 417T975 559L1143 1516H1468L1294 524Q1244 241 1086 108T653 -25Z"/><glyph unicode="Ü" horiz-adv-x="1464" d="M952 1595L1005 1898H1284L1231 1595H952ZM522 1595L575 1898H854L801 1595H522ZM653 -25Q473 -25 357 23T178 157T101 361T111 621L266 1516H600L440 600Q425 518 428 453T457 341T534 271T668 246Q735 246 785 264T873 320T935 417T975 559L1143 1516H1468L1294 524Q1244 241 1086 108T653 -25Z"/><glyph unicode="Ý" horiz-adv-x="1395" d="M399 0L512 643L154 1516H492L725 926L1165 1516H1511L844 643L731 0H399ZM645 1607L893 1962H1225L862 1607H645Z"/><glyph unicode="Þ" horiz-adv-x="1368" d="M457 559H690Q757 559 811 573T903 619T961 699T981 817Q981 859 966 894T915 955T822 994T682 1008H537L457 559ZM27 0L293 1516H625L586 1286H698Q833 1286 948 1263T1147 1188T1278 1054T1325 854Q1325 737 1298 650T1223 501T1111 399T975 336T825 304T672 295H410L358 0H27Z"/><glyph unicode="ß" horiz-adv-x="1378" d="M815 -23Q729 -23 664 -9T549 26T465 74T406 123L569 299Q604 265 656 239T776 213Q870 213 921 270T973 430Q973 491 946 535T868 607T747 650T592 666L631 887Q719 887 778 902T874 947T926 1018T942 1112Q942 1143 932 1172T900 1223T841 1260T750 1274Q649 1274 586 1213T498 1008L319 0H-4L176 1024Q200 1161 253 1255T383 1407T552 1490T750 1516Q876 1516 970 1490T1127 1418T1221 1306T1253 1163Q1253 1079 1226 1017T1155 912T1053 841T934 799Q1004 787 1067 759T1178 686T1254 579T1282 436Q1282 315 1241 228T1132 86T982 4T815 -23Z"/><glyph unicode="à" horiz-adv-x="1165" d="M426 231Q497 231 552 257T657 326L694 532Q490 520 396 468T301 332Q301 287 332 259T426 231ZM268 -16Q201 -16 146 4T50 60T-12 147T-35 260Q-35 471 153 579T725 707L729 733Q734 764 730 788T709 830T663 856T588 866Q550 866 508 859T421 838T331 807T244 766L133 971Q172 998 227 1023T350 1069T494 1101T655 1114Q786 1114 870 1082T998 990T1050 849T1040 666L969 266Q961 221 956 187T948 123T946 64T952 0H625Q620 42 620 79T629 160Q545 73 454 29T268 -16ZM596 1208L340 1563H670L813 1208H596Z"/><glyph unicode="á" horiz-adv-x="1165" d="M426 231Q497 231 552 257T657 326L694 532Q490 520 396 468T301 332Q301 287 332 259T426 231ZM268 -16Q201 -16 146 4T50 60T-12 147T-35 260Q-35 471 153 579T725 707L729 733Q734 764 730 788T709 830T663 856T588 866Q550 866 508 859T421 838T331 807T244 766L133 971Q172 998 227 1023T350 1069T494 1101T655 1114Q786 1114 870 1082T998 990T1050 849T1040 666L969 266Q961 221 956 187T948 123T946 64T952 0H625Q620 42 620 79T629 160Q545 73 454 29T268 -16ZM461 1208L709 1563H1041L678 1208H461Z"/><glyph unicode="â" horiz-adv-x="1165" d="M426 231Q497 231 552 257T657 326L694 532Q490 520 396 468T301 332Q301 287 332 259T426 231ZM268 -16Q201 -16 146 4T50 60T-12 147T-35 260Q-35 471 153 579T725 707L729 733Q734 764 730 788T709 830T663 856T588 866Q550 866 508 859T421 838T331 807T244 766L133 971Q172 998 227 1023T350 1069T494 1101T655 1114Q786 1114 870 1082T998 990T1050 849T1040 666L969 266Q961 221 956 187T948 123T946 64T952 0H625Q620 42 620 79T629 160Q545 73 454 29T268 -16ZM292 1212L614 1563H835L1036 1212H847L690 1364L479 1212H292Z"/><glyph unicode="ã" horiz-adv-x="1165" d="M426 231Q497 231 552 257T657 326L694 532Q490 520 396 468T301 332Q301 287 332 259T426 231ZM268 -16Q201 -16 146 4T50 60T-12 147T-35 260Q-35 471 153 579T725 707L729 733Q734 764 730 788T709 830T663 856T588 866Q550 866 508 859T421 838T331 807T244 766L133 971Q172 998 227 1023T350 1069T494 1101T655 1114Q786 1114 870 1082T998 990T1050 849T1040 666L969 266Q961 221 956 187T948 123T946 64T952 0H625Q620 42 620 79T629 160Q545 73 454 29T268 -16ZM833 1188Q778 1188 738 1206T666 1245T606 1285T545 1303Q504 1303 478 1278T442 1192H264Q273 1279 297 1340T358 1441T442 1499T545 1518Q600 1518 640 1500T712 1461T771 1421T831 1403Q873 1403 899 1428T936 1513H1116Q1106 1426 1082 1365T1020 1264T936 1207T833 1188Z"/><glyph unicode="ä" horiz-adv-x="1165" d="M426 231Q497 231 552 257T657 326L694 532Q490 520 396 468T301 332Q301 287 332 259T426 231ZM268 -16Q201 -16 146 4T50 60T-12 147T-35 260Q-35 471 153 579T725 707L729 733Q734 764 730 788T709 830T663 856T588 866Q550 866 508 859T421 838T331 807T244 766L133 971Q172 998 227 1023T350 1069T494 1101T655 1114Q786 1114 870 1082T998 990T1050 849T1040 666L969 266Q961 221 956 187T948 123T946 64T952 0H625Q620 42 620 79T629 160Q545 73 454 29T268 -16ZM733 1196L786 1499H1065L1012 1196H733ZM303 1196L356 1499H635L582 1196H303Z"/><glyph unicode="å" horiz-adv-x="1165" d="M426 231Q497 231 552 257T657 326L694 532Q490 520 396 468T301 332Q301 287 332 259T426 231ZM268 -16Q201 -16 146 4T50 60T-12 147T-35 260Q-35 471 153 579T725 707L729 733Q734 764 730 788T709 830T663 856T588 866Q550 866 508 859T421 838T331 807T244 766L133 971Q172 998 227 1023T350 1069T494 1101T655 1114Q786 1114 870 1082T998 990T1050 849T1040 666L969 266Q961 221 956 187T948 123T946 64T952 0H625Q620 42 620 79T629 160Q545 73 454 29T268 -16ZM688 1315Q708 1315 727 1323T760 1345T784 1381T793 1430Q793 1464 772 1487T711 1511Q691 1511 672 1503T638 1481T614 1447T604 1401Q604 1364 625 1340T688 1315ZM674 1190Q626 1190 589 1206T526 1250T487 1314T473 1393Q473 1450 495 1495T552 1572T633 1619T725 1636Q773 1636 810 1620T872 1577T911 1514T924 1438Q924 1379 903 1333T847 1256T767 1207T674 1190Z"/><glyph unicode="æ" horiz-adv-x="1812" d="M268 -16Q201 -16 146 4T50 60T-12 147T-35 260Q-35 471 153 579T725 707L729 733Q734 764 730 788T709 830T663 856T588 866Q550 866 508 859T421 838T331 807T244 766L133 971Q172 998 227 1023T350 1069T494 1101T655 1114Q776 1114 846 1083T948 997Q991 1028 1036 1050T1125 1087T1209 1107T1282 1114Q1405 1114 1496 1076T1643 961T1715 772T1706 508L1698 457H991V436Q991 368 1010 324T1060 253T1133 217T1217 207Q1268 207 1312 217T1395 245T1467 287T1530 338L1661 152Q1578 73 1458 25T1169 -23Q1023 -23 915 28T748 188Q708 150 657 113T546 48T416 2T268 -16ZM690 444Q690 467 690 488T694 530Q588 524 514 508T392 466T323 406T301 332Q301 287 332 259T426 231Q462 231 498 241T570 267T637 303T696 344Q690 390 690 444ZM1264 881Q1182 881 1117 822T1018 651H1438Q1442 699 1436 741T1410 814T1355 863T1264 881Z"/><glyph unicode="ç" horiz-adv-x="1116" d="M508 -23Q407 -23 318 5T161 91T55 238T16 449Q16 573 42 670T113 842T217 968T344 1052T480 1099T616 1114Q734 1114 815 1089T950 1016T1032 901T1077 748L784 696Q775 744 762 777T727 832T676 864T602 874Q551 874 505 845T423 760T367 623T346 436Q346 385 355 344T386 272T440 226T522 209Q553 209 581 219T637 252T690 312T743 406L999 303Q973 246 935 188T839 83T700 7T508 -23ZM416 -414Q357 -414 310 -409T226 -394T160 -370T108 -338L182 -240Q264 -301 377 -301Q425 -301 455 -284T485 -225Q485 -202 469 -189T428 -176Q405 -176 384 -184T340 -211L264 -170L348 0H483L442 -98Q464 -84 494 -76T561 -68Q623 -68 661 -103T700 -199Q700 -258 674 -299T606 -365T514 -402T416 -414Z"/><glyph unicode="è" horiz-adv-x="1161" d="M516 -23Q409 -23 318 5T159 91T54 236T16 444Q16 581 48 683T132 860T250 984T384 1062T517 1102T631 1114Q753 1114 844 1076T990 961T1062 772T1053 508L1044 457H338V436Q338 368 357 324T407 253T479 217T563 207Q614 207 657 215T740 239T816 277T891 328L1032 139Q949 67 818 22T516 -23ZM610 881Q529 881 464 822T365 651H784Q788 699 782 741T757 814T701 863T610 881ZM592 1208L336 1563H666L809 1208H592Z"/><glyph unicode="é" horiz-adv-x="1161" d="M459 1208L707 1563H1039L676 1208H459ZM516 -23Q409 -23 318 5T159 91T54 236T16 444Q16 581 48 683T132 860T250 984T384 1062T517 1102T631 1114Q753 1114 844 1076T990 961T1062 772T1053 508L1044 457H338V436Q338 368 357 324T407 253T479 217T563 207Q614 207 657 215T740 239T816 277T891 328L1032 139Q949 67 818 22T516 -23ZM610 881Q529 881 464 822T365 651H784Q788 699 782 741T757 814T701 863T610 881Z"/><glyph unicode="ê" horiz-adv-x="1161" d="M288 1212L610 1563H831L1032 1212H843L686 1364L475 1212H288ZM516 -23Q409 -23 318 5T159 91T54 236T16 444Q16 581 48 683T132 860T250 984T384 1062T517 1102T631 1114Q753 1114 844 1076T990 961T1062 772T1053 508L1044 457H338V436Q338 368 357 324T407 253T479 217T563 207Q614 207 657 215T740 239T816 277T891 328L1032 139Q949 67 818 22T516 -23ZM610 881Q529 881 464 822T365 651H784Q788 699 782 741T757 814T701 863T610 881Z"/><glyph unicode="ë" horiz-adv-x="1161" d="M731 1196L784 1499H1063L1010 1196H731ZM301 1196L354 1499H633L580 1196H301ZM516 -23Q409 -23 318 5T159 91T54 236T16 444Q16 581 48 683T132 860T250 984T384 1062T517 1102T631 1114Q753 1114 844 1076T990 961T1062 772T1053 508L1044 457H338V436Q338 368 357 324T407 253T479 217T563 207Q614 207 657 215T740 239T816 277T891 328L1032 139Q949 67 818 22T516 -23ZM610 881Q529 881 464 822T365 651H784Q788 699 782 741T757 814T701 863T610 881Z"/><glyph unicode="ì" horiz-adv-x="602" d="M6 0L199 1092H528L334 0H6ZM289 1208L33 1563H363L506 1208H289Z"/><glyph unicode="í" horiz-adv-x="602" d="M234 1208L482 1563H814L451 1208H234ZM6 0L199 1092H528L334 0H6Z"/><glyph unicode="î" horiz-adv-x="602" d="M13 1212L335 1563H556L757 1212H568L411 1364L200 1212H13ZM6 0L199 1092H528L334 0H6Z"/><glyph unicode="ï" horiz-adv-x="602" d="M455 1196L508 1499H787L734 1196H455ZM25 1196L78 1499H357L304 1196H25ZM6 0L199 1092H528L334 0H6Z"/><glyph unicode="ð" horiz-adv-x="1225" d="M518 -23Q398 -23 305 9T148 101T50 243T16 424Q16 529 39 612T102 760T194 870T305 945T423 987T539 1001Q636 1001 718 963T848 854Q846 926 828 994T780 1126L612 1059L549 1229L688 1284Q660 1321 635 1350T586 1399L772 1575Q825 1533 869 1488T950 1391L1120 1458L1184 1288L1042 1231Q1095 1113 1118 988T1141 739Q1141 538 1094 394T963 157T766 21T518 -23ZM528 209Q579 209 627 228T711 290T770 398T793 559Q793 608 781 648T744 717T685 762T602 778Q555 778 509 757T426 693T367 582T344 424Q344 326 391 268T528 209Z"/><glyph unicode="ñ" horiz-adv-x="1245" d="M-4 0L188 1092H518L485 920Q509 950 545 984T628 1047T733 1095T856 1114Q933 1114 991 1093T1087 1029T1137 922T1135 774L999 0H670L791 690Q805 764 778 804T678 844Q649 844 619 835T560 811T504 775T453 733L324 0H-4ZM872 1188Q817 1188 777 1206T705 1245T645 1285T584 1303Q543 1303 517 1278T481 1192H303Q312 1279 336 1340T397 1441T481 1499T584 1518Q639 1518 679 1500T751 1461T810 1421T870 1403Q912 1403 938 1428T975 1513H1155Q1145 1426 1121 1365T1059 1264T975 1207T872 1188Z"/><glyph unicode="ò" horiz-adv-x="1227" d="M539 209Q593 209 642 238T727 323T785 458T807 637Q807 687 797 730T764 805T704 855T614 874Q559 874 511 845T426 760T369 624T348 444Q348 395 358 352T390 278T449 228T539 209ZM514 -23Q419 -23 329 5T170 92T58 241T16 453Q16 576 42 673T114 843T221 968T351 1052T494 1099T639 1114Q735 1114 825 1087T984 1001T1095 854T1137 641Q1137 519 1111 422T1040 252T934 126T804 41T661 -8T514 -23ZM626 1208L370 1563H700L843 1208H626Z"/><glyph unicode="ó" horiz-adv-x="1227" d="M491 1208L739 1563H1071L708 1208H491ZM539 209Q593 209 642 238T727 323T785 458T807 637Q807 687 797 730T764 805T704 855T614 874Q559 874 511 845T426 760T369 624T348 444Q348 395 358 352T390 278T449 228T539 209ZM514 -23Q419 -23 329 5T170 92T58 241T16 453Q16 576 42 673T114 843T221 968T351 1052T494 1099T639 1114Q735 1114 825 1087T984 1001T1095 854T1137 641Q1137 519 1111 422T1040 252T934 126T804 41T661 -8T514 -23Z"/><glyph unicode="ô" horiz-adv-x="1227" d="M323 1212L645 1563H866L1067 1212H878L721 1364L510 1212H323ZM539 209Q593 209 642 238T727 323T785 458T807 637Q807 687 797 730T764 805T704 855T614 874Q559 874 511 845T426 760T369 624T348 444Q348 395 358 352T390 278T449 228T539 209ZM514 -23Q419 -23 329 5T170 92T58 241T16 453Q16 576 42 673T114 843T221 968T351 1052T494 1099T639 1114Q735 1114 825 1087T984 1001T1095 854T1137 641Q1137 519 1111 422T1040 252T934 126T804 41T661 -8T514 -23Z"/><glyph unicode="õ" horiz-adv-x="1227" d="M539 209Q593 209 642 238T727 323T785 458T807 637Q807 687 797 730T764 805T704 855T614 874Q559 874 511 845T426 760T369 624T348 444Q348 395 358 352T390 278T449 228T539 209ZM514 -23Q419 -23 329 5T170 92T58 241T16 453Q16 576 42 673T114 843T221 968T351 1052T494 1099T639 1114Q735 1114 825 1087T984 1001T1095 854T1137 641Q1137 519 1111 422T1040 252T934 126T804 41T661 -8T514 -23ZM864 1188Q809 1188 769 1206T697 1245T637 1285T576 1303Q535 1303 509 1278T473 1192H295Q304 1279 328 1340T389 1441T473 1499T576 1518Q631 1518 671 1500T743 1461T802 1421T862 1403Q904 1403 930 1428T967 1513H1147Q1137 1426 1113 1365T1051 1264T967 1207T864 1188Z"/><glyph unicode="ö" horiz-adv-x="1227" d="M764 1196L817 1499H1096L1043 1196H764ZM334 1196L387 1499H666L613 1196H334ZM539 209Q593 209 642 238T727 323T785 458T807 637Q807 687 797 730T764 805T704 855T614 874Q559 874 511 845T426 760T369 624T348 444Q348 395 358 352T390 278T449 228T539 209ZM514 -23Q419 -23 329 5T170 92T58 241T16 453Q16 576 42 673T114 843T221 968T351 1052T494 1099T639 1114Q735 1114 825 1087T984 1001T1095 854T1137 641Q1137 519 1111 422T1040 252T934 126T804 41T661 -8T514 -23Z"/><glyph unicode="÷" horiz-adv-x="1323" d="M518 991V1235H795V991H518ZM133 588V848H1182V588H133ZM518 197V440H795V197H518Z"/><glyph unicode="ø" horiz-adv-x="1227" d="M514 -23Q427 -23 347 -1T201 68L35 -86L-74 39L88 186Q54 239 35 305T16 453Q16 576 42 673T114 843T221 968T351 1052T494 1099T639 1114Q729 1114 812 1091T965 1016L1120 1159L1227 1036L1073 893Q1102 842 1119 779T1137 641Q1137 519 1111 422T1040 252T934 126T804 41T661 -8T514 -23ZM342 410L766 813Q741 845 705 863T614 881Q559 881 510 851T423 763T364 625T342 444V410ZM539 203Q593 203 643 233T730 320T790 457T813 637V664L391 262Q414 234 450 219T539 203Z"/><glyph unicode="ù" horiz-adv-x="1243" d="M322 -20Q244 -20 185 1T90 65T41 171T43 319L178 1092H508L383 393Q369 319 396 280T496 240Q524 240 553 249T612 273T668 309T719 350L852 1092H1180L987 0H657L690 172Q666 143 631 109T549 47T445 -1T322 -20ZM635 1208L379 1563H709L852 1208H635Z"/><glyph unicode="ú" horiz-adv-x="1243" d="M500 1208L748 1563H1080L717 1208H500ZM322 -20Q244 -20 185 1T90 65T41 171T43 319L178 1092H508L383 393Q369 319 396 280T496 240Q524 240 553 249T612 273T668 309T719 350L852 1092H1180L987 0H657L690 172Q666 143 631 109T549 47T445 -1T322 -20Z"/><glyph unicode="û" horiz-adv-x="1243" d="M331 1212L653 1563H874L1075 1212H886L729 1364L518 1212H331ZM322 -20Q244 -20 185 1T90 65T41 171T43 319L178 1092H508L383 393Q369 319 396 280T496 240Q524 240 553 249T612 273T668 309T719 350L852 1092H1180L987 0H657L690 172Q666 143 631 109T549 47T445 -1T322 -20Z"/><glyph unicode="ü" horiz-adv-x="1243" d="M772 1196L825 1499H1104L1051 1196H772ZM342 1196L395 1499H674L621 1196H342ZM322 -20Q244 -20 185 1T90 65T41 171T43 319L178 1092H508L383 393Q369 319 396 280T496 240Q524 240 553 249T612 273T668 309T719 350L852 1092H1180L987 0H657L690 172Q666 143 631 109T549 47T445 -1T322 -20Z"/><glyph unicode="ý" horiz-adv-x="1126" d="M129 -418Q13 -418 -68 -400T-195 -362L-90 -109Q-75 -115 -51 -123T0 -137T55 -149T104 -154Q157 -154 189 -132T246 -63L279 -6L68 1092H406L510 383H514L870 1092H1192L508 -152Q470 -220 431 -270T347 -353T249 -402T129 -418ZM442 1208L690 1563H1022L659 1208H442Z"/><glyph unicode="þ" horiz-adv-x="1257" d="M573 229Q623 229 670 255T754 333T813 461T836 637Q836 731 793 786T662 842Q634 842 605 833T548 808T496 774T453 733L377 317Q414 279 461 254T573 229ZM-78 -412L262 1516H590L485 924Q509 958 543 992T620 1052T710 1095T811 1112Q895 1112 962 1083T1075 1000T1146 866T1171 686Q1171 526 1132 396T1025 174T866 32T668 -18Q609 -18 561 -8T474 20T402 63T342 119L250 -412H-78Z"/><glyph unicode="ÿ" horiz-adv-x="1126" d="M129 -418Q13 -418 -68 -400T-195 -362L-90 -109Q-75 -115 -51 -123T0 -137T55 -149T104 -154Q157 -154 189 -132T246 -63L279 -6L68 1092H406L510 383H514L870 1092H1192L508 -152Q470 -220 431 -270T347 -353T249 -402T129 -418ZM715 1196L768 1499H1047L994 1196H715ZM285 1196L338 1499H617L564 1196H285Z"/><glyph unicode="ı" horiz-adv-x="602" d="M6 0L199 1092H528L334 0H6Z"/><glyph unicode="Œ" horiz-adv-x="2263" d="M1051 0L1079 150Q929 -29 649 -29Q532 -29 427 14T242 141T115 346T68 623Q68 776 100 903T188 1133T321 1313T487 1441T672 1518T866 1544Q943 1544 1005 1530T1118 1490T1208 1428T1278 1346L1309 1516H2286L2236 1237H1561L1503 911H1987L1942 647H1458L1391 270H2103L2056 0H1051ZM719 240Q806 240 888 282T1033 406T1135 608T1174 887Q1174 973 1155 1043T1096 1163T997 1240T860 1268Q772 1268 689 1228T542 1108T440 909T401 631Q401 543 421 471T482 348T581 268T719 240Z"/><glyph unicode="œ" horiz-adv-x="1917" d="M1274 -23Q1153 -23 1059 16T901 129Q821 52 720 15T514 -23Q419 -23 329 5T170 92T58 241T16 453Q16 576 42 673T114 843T221 968T351 1052T494 1099T639 1114Q750 1114 843 1073T999 950Q1046 994 1098 1025T1201 1076T1300 1105T1386 1114Q1509 1114 1600 1076T1747 961T1819 772T1810 508L1802 457H1096V436Q1096 368 1115 324T1165 253T1237 217T1321 207Q1372 207 1416 217T1499 245T1571 287T1634 338L1765 152Q1682 73 1563 25T1274 -23ZM539 209Q593 209 642 238T727 323T785 458T807 637Q807 687 797 730T764 805T704 855T614 874Q559 874 511 845T426 760T369 624T348 444Q348 395 358 352T390 278T449 228T539 209ZM1368 881Q1287 881 1222 822T1122 651H1542Q1546 699 1540 741T1515 814T1459 863T1368 881Z"/><glyph unicode="Š" horiz-adv-x="1397" d="M735 1613L535 1964H723L881 1812L1092 1964H1278L957 1613H735ZM637 -31Q509 -31 406 -8T222 66T83 194T-14 383L279 479Q321 358 414 297T664 236Q709 236 755 244T838 274T898 330T922 420Q922 470 890 505T806 568T687 619T550 668T414 726T295 803T210 911T178 1059Q178 1145 201 1214T265 1338T360 1431T478 1496T609 1534T745 1546Q834 1546 906 1534T1036 1502T1140 1452T1223 1390T1289 1318T1343 1241L1079 1075Q1057 1108 1028 1143T958 1207T861 1255T731 1274Q629 1274 570 1231T510 1104Q510 1056 542 1022T626 960T746 909T882 859T1019 802T1138 726T1223 621T1255 479Q1255 359 1211 265T1086 105T891 4T637 -31Z"/><glyph unicode="š" horiz-adv-x="1073" d="M762 1214L562 1565H750L908 1413L1119 1565H1305L984 1214H762ZM467 -23Q362 -23 280 -9T133 29T20 87T-63 158L104 332Q135 302 174 276T260 230T360 199T471 188Q502 188 531 193T583 212T619 246T633 299Q633 331 610 352T549 390T462 421T363 453T264 492T177 548T115 627T92 739Q92 839 130 910T229 1026T366 1093T518 1114Q610 1114 683 1103T815 1071T921 1023T1008 961L854 776Q789 830 710 861T541 893Q484 893 447 869T410 793Q410 761 433 739T495 700T581 669T681 638T780 600T867 547T928 471T952 365Q952 286 930 226T871 123T784 52T680 7T571 -16T467 -23Z"/><glyph unicode="Ÿ" horiz-adv-x="1395" d="M399 0L512 643L154 1516H492L725 926L1165 1516H1511L844 643L731 0H399ZM917 1595L970 1898H1249L1196 1595H917ZM487 1595L540 1898H819L766 1595H487Z"/><glyph unicode="Ž" horiz-adv-x="1331" d="M702 1613L502 1964H690L848 1812L1059 1964H1245L924 1613H702ZM-70 0L-29 229L918 1239H201L250 1516H1386L1346 1278L416 270H1167L1120 0H-70Z"/><glyph unicode="ž" horiz-adv-x="1065" d="M758 1214L558 1565H746L904 1413L1115 1565H1301L980 1214H758ZM-72 0L-43 170L578 852H117L160 1092H1038L1006 918L383 233H924L885 0H-72Z"/><glyph unicode="ƒ" horiz-adv-x="860" d="M-63 -416Q-86 -416 -116 -415T-175 -411T-228 -407T-258 -401L-215 -180Q-203 -183 -175 -186T-121 -190Q-48 -190 -4 -153T55 -29L201 788H12L51 1016H240L264 1169Q276 1238 300 1302T375 1416T505 1494T709 1524Q733 1524 764 1522T824 1518T876 1513T907 1509L864 1280Q857 1281 846 1283T822 1286T796 1289T770 1290Q739 1290 710 1286T656 1269T615 1229T592 1159L569 1016H807L766 788H528L375 -94Q364 -155 341 -213T269 -316T140 -388T-63 -416Z"/><glyph unicode="ˆ" horiz-adv-x="1126" d="M274 1212L596 1563H817L1018 1212H829L672 1364L461 1212H274Z"/><glyph unicode="ˇ" horiz-adv-x="1126" d="M532 1214L332 1565H520L678 1413L889 1565H1075L754 1214H532Z"/><glyph unicode="˚" horiz-adv-x="1102" d="M657 1315Q677 1315 696 1323T729 1345T753 1381T762 1430Q762 1464 741 1487T680 1511Q660 1511 641 1503T607 1481T583 1447T573 1401Q573 1364 594 1340T657 1315ZM643 1190Q595 1190 558 1206T495 1250T456 1314T442 1393Q442 1450 464 1495T521 1572T602 1619T694 1636Q742 1636 779 1620T841 1577T880 1514T893 1438Q893 1379 872 1333T816 1256T736 1207T643 1190Z"/><glyph unicode="˜" horiz-adv-x="1065" d="M784 1188Q729 1188 689 1206T617 1245T557 1285T496 1303Q455 1303 429 1278T393 1192H215Q224 1279 248 1340T309 1441T393 1499T496 1518Q551 1518 591 1500T663 1461T722 1421T782 1403Q824 1403 850 1428T887 1513H1067Q1057 1426 1033 1365T971 1264T887 1207T784 1188Z"/><glyph unicode="̄" horiz-adv-x="1020" d="M250 1196L291 1430H965L924 1196H250Z"/><glyph unicode="μ" horiz-adv-x="1253" d="M-78 -410L188 1092H516L393 393Q379 319 406 280T506 240Q563 240 619 271T729 350L862 1092H1190L997 0H668L698 170Q677 146 650 120T591 71T519 28T434 -2Q403 -7 375 -5T326 12L252 -410H-78Z"/><glyph unicode="–" horiz-adv-x="1382" d="M70 500L119 776H1276L1227 500H70Z"/><glyph unicode="—" horiz-adv-x="1925" d="M70 498L119 776H1819L1769 498H70Z"/><glyph unicode="‘" horiz-adv-x="578" d="M156 954L207 1243L412 1516H565L434 1272H549L494 954H156Z"/><glyph unicode="’" horiz-adv-x="578" d="M184 954L315 1198H201L256 1516H592L543 1227L336 954H184Z"/><glyph unicode="‚" horiz-adv-x="578" d="M-27 -246L104 0H-10L45 317H383L332 29L127 -246H-27Z"/><glyph unicode="“" horiz-adv-x="1061" d="M641 954L692 1243L895 1516H1049L920 1272H1034L977 954H641ZM156 954L207 1243L412 1516H565L434 1272H549L494 954H156Z"/><glyph unicode="”" horiz-adv-x="1061" d="M668 954L799 1198H684L739 1516H1075L1026 1227L821 954H668ZM184 954L315 1198H201L256 1516H592L543 1227L336 954H184Z"/><glyph unicode="„" horiz-adv-x="1061" d="M459 -246L588 0H473L528 317H866L815 29L610 -246H459ZM-27 -246L104 0H-10L45 317H383L332 29L127 -246H-27Z"/><glyph unicode="†" horiz-adv-x="1235" d="M244 -410L500 756L59 721L111 1022L541 985L582 1516H924L780 985L1221 1022L1169 721L739 756L586 -410H244Z"/><glyph unicode="‡" horiz-adv-x="1235" d="M244 -410L367 10L-31 -27L18 260L406 225L420 553L522 881L121 846L172 1130L559 1096L582 1516H932L801 1096L1200 1130L1149 846L762 881L748 553L647 225L1047 260L997 -27L608 10L586 -410H244Z"/><glyph unicode="•" horiz-adv-x="948" d="M453 440Q393 440 342 461T254 518T195 606T174 717Q174 778 195 829T253 917T342 976T453 997Q513 997 563 976T651 918T710 829T731 717Q731 657 710 606T652 519T564 461T453 440Z"/><glyph unicode="…" horiz-adv-x="1731" d="M1135 0L1192 317H1544L1487 0H1135ZM559 0L614 317H967L911 0H559ZM-18 0L39 317H391L334 0H-18Z"/><glyph unicode="‰" horiz-adv-x="3144" d="M393 0L1559 1516H1843L678 0H393ZM2564 188Q2595 188 2621 207T2668 260T2705 336T2731 427T2747 522T2753 614Q2753 680 2729 721T2646 762Q2615 762 2589 743T2541 691T2504 615T2478 524T2462 429T2456 338Q2456 304 2462 277T2481 230T2514 199T2564 188ZM2554 -20Q2462 -20 2394 9T2280 91T2213 215T2191 373Q2191 519 2230 631T2335 819T2484 934T2658 973Q2750 973 2818 944T2930 861T2997 735T3019 575Q3019 432 2980 322T2876 135T2728 20T2554 -20ZM1655 188Q1686 188 1712 207T1758 260T1795 336T1821 427T1837 522T1843 614Q1843 680 1819 721T1737 762Q1706 762 1680 743T1632 691T1595 615T1568 524T1552 429T1546 338Q1546 270 1571 229T1655 188ZM1645 -20Q1553 -20 1485 9T1371 91T1304 215T1282 373Q1282 519 1321 631T1425 819T1575 934T1749 973Q1841 973 1909 944T2021 861T2087 735T2109 575Q2109 432 2070 322T1967 135T1819 20T1645 -20ZM504 756Q535 756 561 776T607 829T644 905T670 996T686 1092T692 1184Q692 1250 669 1289T586 1329Q554 1329 528 1310T480 1258T443 1182T417 1091T401 996T395 905Q395 839 420 798T504 756ZM492 549Q400 549 332 578T220 659T153 784T131 942Q131 1088 170 1199T274 1387T423 1501T598 1540Q689 1540 757 1511T869 1430T936 1305T958 1145Q958 1001 919 890T816 704T667 589T492 549Z"/><glyph unicode="‹" horiz-adv-x="764" d="M258 0L14 547L453 1092H766L342 547L571 0H258Z"/><glyph unicode="›" horiz-adv-x="764" d="M-70 0L352 547L123 1092H436L680 547L244 0H-70Z"/><glyph unicode="⁄" horiz-adv-x="1114" d="M-166 0L999 1516H1284L119 0H-166Z"/><glyph unicode="⁰" horiz-adv-x="1090" d="M541 520Q440 520 367 549T245 630T174 755T150 915Q150 1045 186 1158T289 1354T448 1486T655 1534Q752 1534 824 1504T945 1419T1016 1289T1040 1126Q1040 995 1004 884T901 692T744 566T541 520ZM551 725Q612 725 654 763T723 861T760 997T772 1145Q772 1229 741 1276T637 1323Q576 1323 534 1285T465 1187T426 1053T414 907Q414 821 446 773T551 725Z"/><glyph unicode="⁴" horiz-adv-x="1016" d="M532 739H92L121 905L659 1516H928L827 942H981L946 739H793L756 539H496L532 739ZM580 926L635 1239L369 926H580Z"/><glyph unicode="⁵" horiz-adv-x="961" d="M457 520Q383 520 324 532T218 564T134 611T68 668L209 834Q230 812 257 792T315 755T380 729T449 719Q543 719 592 764T641 897Q641 954 608 986T514 1018Q469 1018 428 997T340 930L174 985L307 1516H936L887 1315H467L422 1135Q453 1161 502 1176T616 1192Q682 1192 734 1175T823 1124T879 1041T899 928Q899 823 865 746T772 619T632 544T457 520Z"/><glyph unicode="⁶" horiz-adv-x="1018" d="M504 520Q415 520 348 546T235 620T168 739T145 899Q145 1053 184 1171T293 1370T458 1492T664 1534Q782 1534 864 1507T989 1446L860 1264Q820 1293 766 1309T647 1325Q599 1325 561 1307T493 1256T445 1176T413 1072Q525 1171 692 1171Q750 1171 799 1155T885 1106T941 1024T961 911Q961 819 929 747T838 624T695 547T504 520ZM590 985Q528 985 482 967T397 918V889Q397 841 407 808T436 753T480 723T537 713Q574 713 606 722T661 752T698 802T711 874Q711 925 683 955T590 985Z"/><glyph unicode="⁷" horiz-adv-x="866" d="M618 1303H174L209 1516H930L895 1321L399 539H127L618 1303Z"/><glyph unicode="⁸" horiz-adv-x="997" d="M481 520Q383 520 310 540T189 596T116 679T92 782Q92 834 109 877T158 954T237 1016T344 1067Q284 1109 254 1157T223 1264Q223 1325 248 1375T324 1460T447 1514T616 1534Q710 1534 776 1513T883 1456T944 1378T963 1290Q963 1202 912 1142T756 1036Q837 991 879 938T922 813Q922 735 890 680T801 589T662 537T481 520ZM487 688Q571 688 618 718T666 811Q667 855 628 892T510 975Q428 941 386 898T344 795Q344 750 378 719T487 688ZM584 1116Q649 1147 683 1180T717 1262Q717 1280 711 1297T692 1327T656 1349T600 1358Q540 1358 504 1328T467 1249Q467 1212 496 1180T584 1116Z"/><glyph unicode="⁹" horiz-adv-x="1018" d="M453 520Q334 520 252 547T127 608L256 784Q296 755 350 739T469 723Q518 723 556 741T624 794T673 875T704 982Q590 883 424 883Q365 883 316 899T232 948T176 1029T156 1143Q156 1235 187 1307T278 1430T421 1507T612 1534Q701 1534 768 1508T881 1434T948 1315T971 1155Q971 1000 932 882T824 683T659 562T453 520ZM526 1063Q589 1063 634 1080T718 1128Q719 1136 719 1143T719 1159Q719 1207 709 1240T681 1295T637 1325T580 1335Q542 1335 510 1326T455 1296T419 1246T406 1174Q406 1121 433 1092T526 1063Z"/><glyph unicode="₀" horiz-adv-x="1090" d="M378 -425Q277 -425 204 -396T82 -315T11 -190T-13 -30Q-13 100 23 213T126 409T285 541T492 589Q589 589 661 559T782 474T853 344T877 181Q877 50 841 -61T738 -253T581 -379T378 -425ZM388 -220Q449 -220 491 -182T560 -84T597 52T609 200Q609 284 578 331T474 378Q413 378 371 340T302 242T263 108T251 -38Q251 -124 283 -172T388 -220Z"/><glyph unicode="₁" horiz-adv-x="791" d="M-34 -202H142L243 364Q202 347 154 335T62 323L95 509Q154 511 201 525T283 571H542L406 -202H560L523 -408H-69L-34 -202Z"/><glyph unicode="₂" horiz-adv-x="979" d="M-75 -351Q-59 -254 -25 -185T54 -65T151 19T254 78T352 124T436 168T495 220T517 292Q517 324 495 348T427 372Q405 372 380 368T326 351T266 316T204 257L46 396Q131 500 238 545T466 591Q546 591 604 572T700 519T756 438T775 335Q775 263 754 209T698 115T617 45T524 -7T429 -50T343 -90T277 -135T243 -193H691L652 -404H-85L-75 -351Z"/><glyph unicode="₃" horiz-adv-x="979" d="M314 -421Q163 -421 65 -364T-81 -208L99 -83Q121 -120 145 -144T195 -182T247 -202T300 -208Q383 -208 422 -176T462 -85Q462 -35 421 -10T294 16H208L240 198H329Q429 198 470 223T511 302Q511 333 490 353T417 374Q357 374 299 357T179 296L70 458Q119 498 170 523T272 564T375 585T476 591Q551 591 607 573T701 524T758 448T777 351Q777 267 734 204T593 108Q630 96 656 76T700 30T724 -26T732 -87Q732 -174 697 -237T604 -341T471 -401T314 -421Z"/><glyph unicode="₄" horiz-adv-x="1016" d="M369 -206H-71L-42 -40L496 571H765L664 -3H818L783 -206H630L593 -406H333L369 -206ZM417 -19L472 294L206 -19H417Z"/><glyph unicode="₅" horiz-adv-x="961" d="M294 -425Q220 -425 161 -413T55 -381T-29 -334T-95 -277L46 -111Q67 -133 94 -153T152 -190T217 -216T286 -226Q380 -226 429 -181T478 -48Q478 9 445 41T351 73Q306 73 265 52T177 -15L11 40L144 571H773L724 370H304L259 190Q290 216 339 231T453 247Q519 247 571 230T660 179T716 96T736 -17Q736 -122 702 -199T609 -326T469 -401T294 -425Z"/><glyph unicode="₆" horiz-adv-x="1018" d="M341 -425Q252 -425 185 -399T72 -325T5 -206T-18 -46Q-18 108 21 226T130 425T295 547T501 589Q619 589 701 562T826 501L697 319Q657 348 603 364T484 380Q436 380 398 362T330 311T282 231T250 127Q362 226 529 226Q587 226 636 210T722 161T778 79T798 -34Q798 -126 766 -198T675 -321T532 -398T341 -425ZM427 40Q365 40 319 22T234 -27V-56Q234 -104 244 -137T273 -192T317 -222T374 -232Q411 -232 443 -223T498 -193T535 -143T548 -71Q548 -20 520 10T427 40Z"/><glyph unicode="₇" horiz-adv-x="866" d="M455 358H11L46 571H767L732 376L236 -406H-36L455 358Z"/><glyph unicode="₈" horiz-adv-x="997" d="M318 -425Q220 -425 147 -405T26 -349T-47 -266T-71 -163Q-71 -111 -54 -68T-5 9T74 71T181 122Q121 164 91 212T60 319Q60 380 85 430T161 515T284 569T453 589Q547 589 613 568T720 511T781 433T800 345Q800 257 749 197T593 91Q674 46 716 -7T759 -132Q759 -210 727 -265T638 -356T499 -408T318 -425ZM324 -257Q408 -257 455 -227T503 -134Q504 -90 465 -53T347 30Q265 -4 223 -47T181 -150Q181 -195 215 -226T324 -257ZM421 171Q486 202 520 235T554 317Q554 335 548 352T529 382T493 404T437 413Q377 413 341 383T304 304Q304 267 333 235T421 171Z"/><glyph unicode="₉" horiz-adv-x="1018" d="M290 -425Q171 -425 89 -398T-36 -337L93 -161Q133 -190 187 -206T306 -222Q355 -222 393 -204T461 -151T510 -70T541 37Q427 -62 261 -62Q202 -62 153 -46T69 3T13 84T-7 198Q-7 290 24 362T115 485T258 562T449 589Q538 589 605 563T718 489T785 370T808 210Q808 55 769 -63T661 -262T496 -383T290 -425ZM363 118Q426 118 471 135T555 183Q556 191 556 198T556 214Q556 262 546 295T518 350T474 380T417 390Q379 390 347 381T292 351T256 301T243 229Q243 176 270 147T363 118Z"/><glyph unicode="€" horiz-adv-x="1489" d="M795 -29Q678 -29 581 3T410 100T293 264T238 498H0L31 674H238Q240 709 243 744T252 813H55L86 989H291Q331 1122 397 1225T547 1399T733 1507T946 1544Q1087 1544 1181 1508T1335 1410T1425 1266T1470 1090L1171 1042Q1164 1094 1152 1138T1115 1215T1048 1266T940 1284Q884 1284 836 1263T749 1203T678 1110T623 989H954L924 813H578Q571 779 567 744T559 674H899L868 498H555Q559 424 576 372T625 288T702 240T807 225Q888 225 958 291T1087 502L1362 397Q1331 324 1283 249T1165 112T1004 11T795 -29Z"/><glyph unicode="™" horiz-adv-x="1894" d="M348 649V1333H111V1516H809V1333H571V649H348ZM930 649V1516H1235L1393 940L1554 1516H1853V649H1636V1214L1475 649H1290L1128 1210V649H930Z"/><glyph unicode="∕" horiz-adv-x="1114" d="M-166 0L999 1516H1284L119 0H-166Z"/><glyph unicode="∙" horiz-adv-x="592" d="M76 530L131 848H500L442 530H76Z"/><glyph unicode="ﬀ" horiz-adv-x="1473" d="M242 852H59L104 1092H285L301 1192Q312 1260 338 1320T411 1426T524 1497T684 1524Q709 1524 739 1522T798 1518T849 1512T879 1507L838 1280Q824 1285 803 1287T756 1290Q732 1290 711 1285T672 1266T642 1224T625 1153L614 1092H934L950 1192Q962 1260 985 1320T1055 1426T1178 1497T1372 1524Q1397 1524 1430 1522T1494 1518T1550 1512T1581 1507L1540 1278Q1528 1283 1496 1286T1425 1290Q1401 1290 1377 1285T1332 1266T1296 1224T1274 1153L1264 1092H1495L1452 852H1219L1069 0H741L891 852H569L420 0H92L242 852Z"/><glyph unicode="ﬁ" horiz-adv-x="1323" d="M92 0L242 852H61L104 1092H285L301 1192Q313 1260 337 1320T406 1426T515 1497T674 1524Q705 1524 737 1522T796 1518T842 1512T870 1507L829 1282Q814 1284 794 1287T745 1290Q721 1290 702 1285T667 1264T642 1222T625 1153L614 1092H801L756 852H569L420 0H92ZM725 0L918 1092H1247L1053 0H725ZM942 1241L989 1505H1319L1274 1241H942Z"/><glyph unicode="ﬂ" horiz-adv-x="1323" d="M92 0L242 852H61L104 1092H285L301 1192Q313 1260 337 1320T406 1426T515 1497T674 1524Q705 1524 737 1522T796 1518T842 1512T870 1507L829 1282Q814 1284 794 1287T745 1290Q721 1290 702 1285T667 1264T642 1222T625 1153L614 1092H801L756 852H569L420 0H92ZM725 0L993 1516H1321L1053 0H725Z"/><glyph unicode="ﬃ" horiz-adv-x="1972" d="M242 852H59L104 1092H285L301 1192Q312 1260 338 1320T411 1426T524 1497T684 1524Q709 1524 739 1522T798 1518T849 1512T879 1507L838 1280Q824 1285 803 1287T756 1290Q732 1290 711 1285T672 1266T642 1224T625 1153L614 1092H934L950 1192Q962 1260 986 1320T1055 1426T1164 1497T1323 1524Q1354 1524 1386 1522T1445 1518T1492 1512T1520 1507L1479 1282Q1463 1284 1443 1287T1395 1290Q1371 1290 1352 1285T1317 1264T1291 1222T1274 1153L1264 1092H1450L1405 852H1219L1069 0H741L891 852H569L420 0H92L242 852ZM1567 1092H1896L1702 0H1374L1567 1092ZM1638 1505H1968L1923 1241H1591L1638 1505Z"/><glyph unicode="ﬄ" horiz-adv-x="1972" d="M279 852H98L141 1092H322L338 1192Q350 1260 376 1320T449 1426T562 1497T723 1524Q747 1524 777 1522T835 1518T886 1512T915 1507L874 1280Q862 1285 841 1287T793 1290Q769 1290 748 1285T710 1266T680 1224T662 1153L651 1092H973L989 1192Q1000 1260 1024 1320T1093 1426T1203 1497T1362 1524Q1393 1524 1424 1522T1483 1518T1529 1512T1556 1507L1516 1282Q1502 1284 1482 1287T1432 1290Q1408 1290 1389 1285T1354 1264T1328 1222T1311 1153L1300 1092H1487L1444 852H1257L1108 0H778L928 852H606L457 0H129L279 852ZM1679 1516H2007L1741 0H1411L1679 1516Z"/></font>
</defs>
</svg>
